%TF.GenerationSoftware,KiCad,Pcbnew,8.0.4*%
%TF.CreationDate,2026-05-08T10:43:49+05:30*%
%TF.ProjectId,two phase bipolar stepper motor,74776f20-7068-4617-9365-206269706f6c,REV1*%
%TF.SameCoordinates,Original*%
%TF.FileFunction,Soldermask,Bot*%
%TF.FilePolarity,Negative*%
%FSLAX46Y46*%
G04 Gerber Fmt 4.6, Leading zero omitted, Abs format (unit mm)*
G04 Created by KiCad (PCBNEW 8.0.4) date 2026-05-08 10:43:49*
%MOMM*%
%LPD*%
G01*
G04 APERTURE LIST*
G04 Aperture macros list*
%AMRoundRect*
0 Rectangle with rounded corners*
0 $1 Rounding radius*
0 $2 $3 $4 $5 $6 $7 $8 $9 X,Y pos of 4 corners*
0 Add a 4 corners polygon primitive as box body*
4,1,4,$2,$3,$4,$5,$6,$7,$8,$9,$2,$3,0*
0 Add four circle primitives for the rounded corners*
1,1,$1+$1,$2,$3*
1,1,$1+$1,$4,$5*
1,1,$1+$1,$6,$7*
1,1,$1+$1,$8,$9*
0 Add four rect primitives between the rounded corners*
20,1,$1+$1,$2,$3,$4,$5,0*
20,1,$1+$1,$4,$5,$6,$7,0*
20,1,$1+$1,$6,$7,$8,$9,0*
20,1,$1+$1,$8,$9,$2,$3,0*%
G04 Aperture macros list end*
%ADD10C,2.400000*%
%ADD11O,2.400000X2.400000*%
%ADD12R,2.600000X2.600000*%
%ADD13C,2.600000*%
%ADD14C,2.100000*%
%ADD15C,1.600000*%
%ADD16R,2.400000X2.400000*%
%ADD17RoundRect,0.102000X-0.810000X0.810000X-0.810000X-0.810000X0.810000X-0.810000X0.810000X0.810000X0*%
%ADD18C,1.824000*%
%ADD19R,2.400000X1.600000*%
%ADD20O,2.400000X1.600000*%
%ADD21C,2.000000*%
G04 APERTURE END LIST*
D10*
%TO.C,Rs1*%
X163250000Y-102740000D03*
D11*
X163250000Y-87500000D03*
%TD*%
D12*
%TO.C,J4*%
X206250000Y-105500000D03*
D13*
X206250000Y-100500000D03*
X206250000Y-95500000D03*
X206250000Y-90500000D03*
X206250000Y-85500000D03*
X206250000Y-80500000D03*
X206250000Y-75500000D03*
X206250000Y-70500000D03*
X206250000Y-65500000D03*
X206250000Y-60500000D03*
X206250000Y-55500000D03*
X206250000Y-50500000D03*
%TD*%
D14*
%TO.C,REF\u002A\u002A*%
X214750000Y-115500000D03*
%TD*%
D15*
%TO.C,C3*%
X140000000Y-61750000D03*
X145000000Y-61750000D03*
%TD*%
%TO.C,C2*%
X189750000Y-47000000D03*
X194750000Y-47000000D03*
%TD*%
D14*
%TO.C,REF\u002A\u002A*%
X128000000Y-46000000D03*
%TD*%
D16*
%TO.C,D8*%
X150750000Y-91000000D03*
D11*
X135510000Y-91000000D03*
%TD*%
D16*
%TO.C,D3*%
X181010000Y-107110000D03*
D11*
X196250000Y-107110000D03*
%TD*%
D12*
%TO.C,J3*%
X158000000Y-114250000D03*
D13*
X163000000Y-114250000D03*
X168000000Y-114250000D03*
X173000000Y-114250000D03*
%TD*%
D12*
%TO.C,J2*%
X162500000Y-48500000D03*
D13*
X157420000Y-48500000D03*
%TD*%
D12*
%TO.C,J1*%
X148500000Y-48500000D03*
D13*
X143420000Y-48500000D03*
%TD*%
D16*
%TO.C,C4*%
X175000000Y-48250000D03*
D10*
X180000000Y-48250000D03*
%TD*%
%TO.C,Rs2*%
X169500000Y-102500000D03*
D11*
X169500000Y-87260000D03*
%TD*%
D17*
%TO.C,U3*%
X172180000Y-60920000D03*
D18*
X170910000Y-66000000D03*
X169640000Y-60920000D03*
X168370000Y-66000000D03*
X167100000Y-60920000D03*
X165830000Y-66000000D03*
X164560000Y-60920000D03*
X163290000Y-66000000D03*
X162020000Y-60920000D03*
X160750000Y-66000000D03*
X159480000Y-60920000D03*
X158210000Y-66000000D03*
X156940000Y-60920000D03*
X155670000Y-66000000D03*
X154400000Y-60920000D03*
%TD*%
D16*
%TO.C,D1*%
X181010000Y-91000000D03*
D11*
X196250000Y-91000000D03*
%TD*%
D19*
%TO.C,U1*%
X184630000Y-57640000D03*
D20*
X184630000Y-60180000D03*
X184630000Y-62720000D03*
X184630000Y-65260000D03*
X184630000Y-67800000D03*
X184630000Y-70340000D03*
X184630000Y-72880000D03*
X184630000Y-75420000D03*
X184630000Y-77960000D03*
X184630000Y-80500000D03*
X192250000Y-80500000D03*
X192250000Y-77960000D03*
X192250000Y-75420000D03*
X192250000Y-72880000D03*
X192250000Y-70340000D03*
X192250000Y-67800000D03*
X192250000Y-65260000D03*
X192250000Y-62720000D03*
X192250000Y-60180000D03*
X192250000Y-57640000D03*
%TD*%
D14*
%TO.C,REF\u002A\u002A*%
X214000000Y-45250000D03*
%TD*%
D16*
%TO.C,D5*%
X150750000Y-115000000D03*
D11*
X135510000Y-115000000D03*
%TD*%
D16*
%TO.C,D2*%
X180630000Y-99250000D03*
D11*
X195870000Y-99250000D03*
%TD*%
D16*
%TO.C,D7*%
X150370000Y-99250000D03*
D11*
X135130000Y-99250000D03*
%TD*%
D14*
%TO.C,REF\u002A\u002A*%
X129019856Y-117000000D03*
%TD*%
D16*
%TO.C,D4*%
X181010000Y-115000000D03*
D11*
X196250000Y-115000000D03*
%TD*%
D16*
%TO.C,D6*%
X150750000Y-107110000D03*
D11*
X135510000Y-107110000D03*
%TD*%
D10*
%TO.C,R1*%
X143050000Y-80000000D03*
D11*
X168450000Y-80000000D03*
%TD*%
D21*
%TO.C,C1*%
X144250000Y-71500000D03*
X136750000Y-71500000D03*
%TD*%
M02*
