%TF.GenerationSoftware,KiCad,Pcbnew,8.0.4*%
%TF.CreationDate,2026-05-08T10:43:49+05:30*%
%TF.ProjectId,two phase bipolar stepper motor,74776f20-7068-4617-9365-206269706f6c,REV1*%
%TF.SameCoordinates,Original*%
%TF.FileFunction,Legend,Top*%
%TF.FilePolarity,Positive*%
%FSLAX46Y46*%
G04 Gerber Fmt 4.6, Leading zero omitted, Abs format (unit mm)*
G04 Created by KiCad (PCBNEW 8.0.4) date 2026-05-08 10:43:49*
%MOMM*%
%LPD*%
G01*
G04 APERTURE LIST*
%ADD10C,0.200000*%
%ADD11C,0.160000*%
%ADD12C,0.140000*%
%ADD13C,0.150000*%
%ADD14C,0.120000*%
%ADD15C,0.127000*%
G04 APERTURE END LIST*
D10*
X161726816Y-42117219D02*
X162060149Y-43117219D01*
X162060149Y-43117219D02*
X162393482Y-42117219D01*
X162679197Y-43069600D02*
X162822054Y-43117219D01*
X162822054Y-43117219D02*
X163060149Y-43117219D01*
X163060149Y-43117219D02*
X163155387Y-43069600D01*
X163155387Y-43069600D02*
X163203006Y-43021980D01*
X163203006Y-43021980D02*
X163250625Y-42926742D01*
X163250625Y-42926742D02*
X163250625Y-42831504D01*
X163250625Y-42831504D02*
X163203006Y-42736266D01*
X163203006Y-42736266D02*
X163155387Y-42688647D01*
X163155387Y-42688647D02*
X163060149Y-42641028D01*
X163060149Y-42641028D02*
X162869673Y-42593409D01*
X162869673Y-42593409D02*
X162774435Y-42545790D01*
X162774435Y-42545790D02*
X162726816Y-42498171D01*
X162726816Y-42498171D02*
X162679197Y-42402933D01*
X162679197Y-42402933D02*
X162679197Y-42307695D01*
X162679197Y-42307695D02*
X162726816Y-42212457D01*
X162726816Y-42212457D02*
X162774435Y-42164838D01*
X162774435Y-42164838D02*
X162869673Y-42117219D01*
X162869673Y-42117219D02*
X163107768Y-42117219D01*
X163107768Y-42117219D02*
X163250625Y-42164838D01*
X156893482Y-42164838D02*
X156798244Y-42117219D01*
X156798244Y-42117219D02*
X156655387Y-42117219D01*
X156655387Y-42117219D02*
X156512530Y-42164838D01*
X156512530Y-42164838D02*
X156417292Y-42260076D01*
X156417292Y-42260076D02*
X156369673Y-42355314D01*
X156369673Y-42355314D02*
X156322054Y-42545790D01*
X156322054Y-42545790D02*
X156322054Y-42688647D01*
X156322054Y-42688647D02*
X156369673Y-42879123D01*
X156369673Y-42879123D02*
X156417292Y-42974361D01*
X156417292Y-42974361D02*
X156512530Y-43069600D01*
X156512530Y-43069600D02*
X156655387Y-43117219D01*
X156655387Y-43117219D02*
X156750625Y-43117219D01*
X156750625Y-43117219D02*
X156893482Y-43069600D01*
X156893482Y-43069600D02*
X156941101Y-43021980D01*
X156941101Y-43021980D02*
X156941101Y-42688647D01*
X156941101Y-42688647D02*
X156750625Y-42688647D01*
X157369673Y-43117219D02*
X157369673Y-42117219D01*
X157369673Y-42117219D02*
X157941101Y-43117219D01*
X157941101Y-43117219D02*
X157941101Y-42117219D01*
X158417292Y-43117219D02*
X158417292Y-42117219D01*
X158417292Y-42117219D02*
X158655387Y-42117219D01*
X158655387Y-42117219D02*
X158798244Y-42164838D01*
X158798244Y-42164838D02*
X158893482Y-42260076D01*
X158893482Y-42260076D02*
X158941101Y-42355314D01*
X158941101Y-42355314D02*
X158988720Y-42545790D01*
X158988720Y-42545790D02*
X158988720Y-42688647D01*
X158988720Y-42688647D02*
X158941101Y-42879123D01*
X158941101Y-42879123D02*
X158893482Y-42974361D01*
X158893482Y-42974361D02*
X158798244Y-43069600D01*
X158798244Y-43069600D02*
X158655387Y-43117219D01*
X158655387Y-43117219D02*
X158417292Y-43117219D01*
X147476816Y-42117219D02*
X147810149Y-43117219D01*
X147810149Y-43117219D02*
X148143482Y-42117219D01*
X148429197Y-43069600D02*
X148572054Y-43117219D01*
X148572054Y-43117219D02*
X148810149Y-43117219D01*
X148810149Y-43117219D02*
X148905387Y-43069600D01*
X148905387Y-43069600D02*
X148953006Y-43021980D01*
X148953006Y-43021980D02*
X149000625Y-42926742D01*
X149000625Y-42926742D02*
X149000625Y-42831504D01*
X149000625Y-42831504D02*
X148953006Y-42736266D01*
X148953006Y-42736266D02*
X148905387Y-42688647D01*
X148905387Y-42688647D02*
X148810149Y-42641028D01*
X148810149Y-42641028D02*
X148619673Y-42593409D01*
X148619673Y-42593409D02*
X148524435Y-42545790D01*
X148524435Y-42545790D02*
X148476816Y-42498171D01*
X148476816Y-42498171D02*
X148429197Y-42402933D01*
X148429197Y-42402933D02*
X148429197Y-42307695D01*
X148429197Y-42307695D02*
X148476816Y-42212457D01*
X148476816Y-42212457D02*
X148524435Y-42164838D01*
X148524435Y-42164838D02*
X148619673Y-42117219D01*
X148619673Y-42117219D02*
X148857768Y-42117219D01*
X148857768Y-42117219D02*
X149000625Y-42164838D01*
X149381578Y-43069600D02*
X149524435Y-43117219D01*
X149524435Y-43117219D02*
X149762530Y-43117219D01*
X149762530Y-43117219D02*
X149857768Y-43069600D01*
X149857768Y-43069600D02*
X149905387Y-43021980D01*
X149905387Y-43021980D02*
X149953006Y-42926742D01*
X149953006Y-42926742D02*
X149953006Y-42831504D01*
X149953006Y-42831504D02*
X149905387Y-42736266D01*
X149905387Y-42736266D02*
X149857768Y-42688647D01*
X149857768Y-42688647D02*
X149762530Y-42641028D01*
X149762530Y-42641028D02*
X149572054Y-42593409D01*
X149572054Y-42593409D02*
X149476816Y-42545790D01*
X149476816Y-42545790D02*
X149429197Y-42498171D01*
X149429197Y-42498171D02*
X149381578Y-42402933D01*
X149381578Y-42402933D02*
X149381578Y-42307695D01*
X149381578Y-42307695D02*
X149429197Y-42212457D01*
X149429197Y-42212457D02*
X149476816Y-42164838D01*
X149476816Y-42164838D02*
X149572054Y-42117219D01*
X149572054Y-42117219D02*
X149810149Y-42117219D01*
X149810149Y-42117219D02*
X149953006Y-42164838D01*
X142643482Y-42164838D02*
X142548244Y-42117219D01*
X142548244Y-42117219D02*
X142405387Y-42117219D01*
X142405387Y-42117219D02*
X142262530Y-42164838D01*
X142262530Y-42164838D02*
X142167292Y-42260076D01*
X142167292Y-42260076D02*
X142119673Y-42355314D01*
X142119673Y-42355314D02*
X142072054Y-42545790D01*
X142072054Y-42545790D02*
X142072054Y-42688647D01*
X142072054Y-42688647D02*
X142119673Y-42879123D01*
X142119673Y-42879123D02*
X142167292Y-42974361D01*
X142167292Y-42974361D02*
X142262530Y-43069600D01*
X142262530Y-43069600D02*
X142405387Y-43117219D01*
X142405387Y-43117219D02*
X142500625Y-43117219D01*
X142500625Y-43117219D02*
X142643482Y-43069600D01*
X142643482Y-43069600D02*
X142691101Y-43021980D01*
X142691101Y-43021980D02*
X142691101Y-42688647D01*
X142691101Y-42688647D02*
X142500625Y-42688647D01*
X143119673Y-43117219D02*
X143119673Y-42117219D01*
X143119673Y-42117219D02*
X143691101Y-43117219D01*
X143691101Y-43117219D02*
X143691101Y-42117219D01*
X144167292Y-43117219D02*
X144167292Y-42117219D01*
X144167292Y-42117219D02*
X144405387Y-42117219D01*
X144405387Y-42117219D02*
X144548244Y-42164838D01*
X144548244Y-42164838D02*
X144643482Y-42260076D01*
X144643482Y-42260076D02*
X144691101Y-42355314D01*
X144691101Y-42355314D02*
X144738720Y-42545790D01*
X144738720Y-42545790D02*
X144738720Y-42688647D01*
X144738720Y-42688647D02*
X144691101Y-42879123D01*
X144691101Y-42879123D02*
X144643482Y-42974361D01*
X144643482Y-42974361D02*
X144548244Y-43069600D01*
X144548244Y-43069600D02*
X144405387Y-43117219D01*
X144405387Y-43117219D02*
X144167292Y-43117219D01*
D11*
X172093775Y-107551879D02*
X172093775Y-107399498D01*
X172093775Y-107399498D02*
X172131870Y-107323308D01*
X172131870Y-107323308D02*
X172208060Y-107247117D01*
X172208060Y-107247117D02*
X172360441Y-107209022D01*
X172360441Y-107209022D02*
X172627108Y-107209022D01*
X172627108Y-107209022D02*
X172779489Y-107247117D01*
X172779489Y-107247117D02*
X172855680Y-107323308D01*
X172855680Y-107323308D02*
X172893775Y-107399498D01*
X172893775Y-107399498D02*
X172893775Y-107551879D01*
X172893775Y-107551879D02*
X172855680Y-107628070D01*
X172855680Y-107628070D02*
X172779489Y-107704260D01*
X172779489Y-107704260D02*
X172627108Y-107742356D01*
X172627108Y-107742356D02*
X172360441Y-107742356D01*
X172360441Y-107742356D02*
X172208060Y-107704260D01*
X172208060Y-107704260D02*
X172131870Y-107628070D01*
X172131870Y-107628070D02*
X172093775Y-107551879D01*
X172093775Y-106866165D02*
X172741394Y-106866165D01*
X172741394Y-106866165D02*
X172817584Y-106828070D01*
X172817584Y-106828070D02*
X172855680Y-106789975D01*
X172855680Y-106789975D02*
X172893775Y-106713784D01*
X172893775Y-106713784D02*
X172893775Y-106561403D01*
X172893775Y-106561403D02*
X172855680Y-106485213D01*
X172855680Y-106485213D02*
X172817584Y-106447118D01*
X172817584Y-106447118D02*
X172741394Y-106409022D01*
X172741394Y-106409022D02*
X172093775Y-106409022D01*
X172093775Y-106142356D02*
X172093775Y-105685213D01*
X172893775Y-105913785D02*
X172093775Y-105913785D01*
X172360441Y-104466165D02*
X172893775Y-104466165D01*
X172055680Y-104656641D02*
X172627108Y-104847118D01*
X172627108Y-104847118D02*
X172627108Y-104351879D01*
X167343775Y-107551879D02*
X167343775Y-107399498D01*
X167343775Y-107399498D02*
X167381870Y-107323308D01*
X167381870Y-107323308D02*
X167458060Y-107247117D01*
X167458060Y-107247117D02*
X167610441Y-107209022D01*
X167610441Y-107209022D02*
X167877108Y-107209022D01*
X167877108Y-107209022D02*
X168029489Y-107247117D01*
X168029489Y-107247117D02*
X168105680Y-107323308D01*
X168105680Y-107323308D02*
X168143775Y-107399498D01*
X168143775Y-107399498D02*
X168143775Y-107551879D01*
X168143775Y-107551879D02*
X168105680Y-107628070D01*
X168105680Y-107628070D02*
X168029489Y-107704260D01*
X168029489Y-107704260D02*
X167877108Y-107742356D01*
X167877108Y-107742356D02*
X167610441Y-107742356D01*
X167610441Y-107742356D02*
X167458060Y-107704260D01*
X167458060Y-107704260D02*
X167381870Y-107628070D01*
X167381870Y-107628070D02*
X167343775Y-107551879D01*
X167343775Y-106866165D02*
X167991394Y-106866165D01*
X167991394Y-106866165D02*
X168067584Y-106828070D01*
X168067584Y-106828070D02*
X168105680Y-106789975D01*
X168105680Y-106789975D02*
X168143775Y-106713784D01*
X168143775Y-106713784D02*
X168143775Y-106561403D01*
X168143775Y-106561403D02*
X168105680Y-106485213D01*
X168105680Y-106485213D02*
X168067584Y-106447118D01*
X168067584Y-106447118D02*
X167991394Y-106409022D01*
X167991394Y-106409022D02*
X167343775Y-106409022D01*
X167343775Y-106142356D02*
X167343775Y-105685213D01*
X168143775Y-105913785D02*
X167343775Y-105913785D01*
X167343775Y-104885213D02*
X167343775Y-104389975D01*
X167343775Y-104389975D02*
X167648537Y-104656641D01*
X167648537Y-104656641D02*
X167648537Y-104542356D01*
X167648537Y-104542356D02*
X167686632Y-104466165D01*
X167686632Y-104466165D02*
X167724727Y-104428070D01*
X167724727Y-104428070D02*
X167800918Y-104389975D01*
X167800918Y-104389975D02*
X167991394Y-104389975D01*
X167991394Y-104389975D02*
X168067584Y-104428070D01*
X168067584Y-104428070D02*
X168105680Y-104466165D01*
X168105680Y-104466165D02*
X168143775Y-104542356D01*
X168143775Y-104542356D02*
X168143775Y-104770927D01*
X168143775Y-104770927D02*
X168105680Y-104847118D01*
X168105680Y-104847118D02*
X168067584Y-104885213D01*
D10*
X162341695Y-107775564D02*
X162341695Y-107623183D01*
X162341695Y-107623183D02*
X162379790Y-107546993D01*
X162379790Y-107546993D02*
X162455980Y-107470802D01*
X162455980Y-107470802D02*
X162608361Y-107432707D01*
X162608361Y-107432707D02*
X162875028Y-107432707D01*
X162875028Y-107432707D02*
X163027409Y-107470802D01*
X163027409Y-107470802D02*
X163103600Y-107546993D01*
X163103600Y-107546993D02*
X163141695Y-107623183D01*
X163141695Y-107623183D02*
X163141695Y-107775564D01*
X163141695Y-107775564D02*
X163103600Y-107851755D01*
X163103600Y-107851755D02*
X163027409Y-107927945D01*
X163027409Y-107927945D02*
X162875028Y-107966041D01*
X162875028Y-107966041D02*
X162608361Y-107966041D01*
X162608361Y-107966041D02*
X162455980Y-107927945D01*
X162455980Y-107927945D02*
X162379790Y-107851755D01*
X162379790Y-107851755D02*
X162341695Y-107775564D01*
X162341695Y-107089850D02*
X162989314Y-107089850D01*
X162989314Y-107089850D02*
X163065504Y-107051755D01*
X163065504Y-107051755D02*
X163103600Y-107013660D01*
X163103600Y-107013660D02*
X163141695Y-106937469D01*
X163141695Y-106937469D02*
X163141695Y-106785088D01*
X163141695Y-106785088D02*
X163103600Y-106708898D01*
X163103600Y-106708898D02*
X163065504Y-106670803D01*
X163065504Y-106670803D02*
X162989314Y-106632707D01*
X162989314Y-106632707D02*
X162341695Y-106632707D01*
X162341695Y-106366041D02*
X162341695Y-105908898D01*
X163141695Y-106137470D02*
X162341695Y-106137470D01*
X162417885Y-105070803D02*
X162379790Y-105032707D01*
X162379790Y-105032707D02*
X162341695Y-104956517D01*
X162341695Y-104956517D02*
X162341695Y-104766041D01*
X162341695Y-104766041D02*
X162379790Y-104689850D01*
X162379790Y-104689850D02*
X162417885Y-104651755D01*
X162417885Y-104651755D02*
X162494076Y-104613660D01*
X162494076Y-104613660D02*
X162570266Y-104613660D01*
X162570266Y-104613660D02*
X162684552Y-104651755D01*
X162684552Y-104651755D02*
X163141695Y-105108898D01*
X163141695Y-105108898D02*
X163141695Y-104613660D01*
X157367219Y-107689850D02*
X157367219Y-107499374D01*
X157367219Y-107499374D02*
X157414838Y-107404136D01*
X157414838Y-107404136D02*
X157510076Y-107308898D01*
X157510076Y-107308898D02*
X157700552Y-107261279D01*
X157700552Y-107261279D02*
X158033885Y-107261279D01*
X158033885Y-107261279D02*
X158224361Y-107308898D01*
X158224361Y-107308898D02*
X158319600Y-107404136D01*
X158319600Y-107404136D02*
X158367219Y-107499374D01*
X158367219Y-107499374D02*
X158367219Y-107689850D01*
X158367219Y-107689850D02*
X158319600Y-107785088D01*
X158319600Y-107785088D02*
X158224361Y-107880326D01*
X158224361Y-107880326D02*
X158033885Y-107927945D01*
X158033885Y-107927945D02*
X157700552Y-107927945D01*
X157700552Y-107927945D02*
X157510076Y-107880326D01*
X157510076Y-107880326D02*
X157414838Y-107785088D01*
X157414838Y-107785088D02*
X157367219Y-107689850D01*
X157367219Y-106832707D02*
X158176742Y-106832707D01*
X158176742Y-106832707D02*
X158271980Y-106785088D01*
X158271980Y-106785088D02*
X158319600Y-106737469D01*
X158319600Y-106737469D02*
X158367219Y-106642231D01*
X158367219Y-106642231D02*
X158367219Y-106451755D01*
X158367219Y-106451755D02*
X158319600Y-106356517D01*
X158319600Y-106356517D02*
X158271980Y-106308898D01*
X158271980Y-106308898D02*
X158176742Y-106261279D01*
X158176742Y-106261279D02*
X157367219Y-106261279D01*
X157367219Y-105927945D02*
X157367219Y-105356517D01*
X158367219Y-105642231D02*
X157367219Y-105642231D01*
X158367219Y-103737469D02*
X158367219Y-104308897D01*
X158367219Y-104023183D02*
X157367219Y-104023183D01*
X157367219Y-104023183D02*
X157510076Y-104118421D01*
X157510076Y-104118421D02*
X157605314Y-104213659D01*
X157605314Y-104213659D02*
X157652933Y-104308897D01*
X213143482Y-104914838D02*
X213048244Y-104867219D01*
X213048244Y-104867219D02*
X212905387Y-104867219D01*
X212905387Y-104867219D02*
X212762530Y-104914838D01*
X212762530Y-104914838D02*
X212667292Y-105010076D01*
X212667292Y-105010076D02*
X212619673Y-105105314D01*
X212619673Y-105105314D02*
X212572054Y-105295790D01*
X212572054Y-105295790D02*
X212572054Y-105438647D01*
X212572054Y-105438647D02*
X212619673Y-105629123D01*
X212619673Y-105629123D02*
X212667292Y-105724361D01*
X212667292Y-105724361D02*
X212762530Y-105819600D01*
X212762530Y-105819600D02*
X212905387Y-105867219D01*
X212905387Y-105867219D02*
X213000625Y-105867219D01*
X213000625Y-105867219D02*
X213143482Y-105819600D01*
X213143482Y-105819600D02*
X213191101Y-105771980D01*
X213191101Y-105771980D02*
X213191101Y-105438647D01*
X213191101Y-105438647D02*
X213000625Y-105438647D01*
X213619673Y-105867219D02*
X213619673Y-104867219D01*
X213619673Y-104867219D02*
X214191101Y-105867219D01*
X214191101Y-105867219D02*
X214191101Y-104867219D01*
X214667292Y-105867219D02*
X214667292Y-104867219D01*
X214667292Y-104867219D02*
X214905387Y-104867219D01*
X214905387Y-104867219D02*
X215048244Y-104914838D01*
X215048244Y-104914838D02*
X215143482Y-105010076D01*
X215143482Y-105010076D02*
X215191101Y-105105314D01*
X215191101Y-105105314D02*
X215238720Y-105295790D01*
X215238720Y-105295790D02*
X215238720Y-105438647D01*
X215238720Y-105438647D02*
X215191101Y-105629123D01*
X215191101Y-105629123D02*
X215143482Y-105724361D01*
X215143482Y-105724361D02*
X215048244Y-105819600D01*
X215048244Y-105819600D02*
X214905387Y-105867219D01*
X214905387Y-105867219D02*
X214667292Y-105867219D01*
X212619673Y-100867219D02*
X212619673Y-99867219D01*
X212619673Y-100343409D02*
X213191101Y-100343409D01*
X213191101Y-100867219D02*
X213191101Y-99867219D01*
X213619673Y-100581504D02*
X214095863Y-100581504D01*
X213524435Y-100867219D02*
X213857768Y-99867219D01*
X213857768Y-99867219D02*
X214191101Y-100867219D01*
X215000625Y-100867219D02*
X214524435Y-100867219D01*
X214524435Y-100867219D02*
X214524435Y-99867219D01*
X215667292Y-100343409D02*
X215333959Y-100343409D01*
X215333959Y-100867219D02*
X215333959Y-99867219D01*
X215333959Y-99867219D02*
X215810149Y-99867219D01*
X212619673Y-95867219D02*
X212619673Y-94867219D01*
X212619673Y-95343409D02*
X213191101Y-95343409D01*
X213191101Y-95867219D02*
X213191101Y-94867219D01*
X213857768Y-94867219D02*
X214048244Y-94867219D01*
X214048244Y-94867219D02*
X214143482Y-94914838D01*
X214143482Y-94914838D02*
X214238720Y-95010076D01*
X214238720Y-95010076D02*
X214286339Y-95200552D01*
X214286339Y-95200552D02*
X214286339Y-95533885D01*
X214286339Y-95533885D02*
X214238720Y-95724361D01*
X214238720Y-95724361D02*
X214143482Y-95819600D01*
X214143482Y-95819600D02*
X214048244Y-95867219D01*
X214048244Y-95867219D02*
X213857768Y-95867219D01*
X213857768Y-95867219D02*
X213762530Y-95819600D01*
X213762530Y-95819600D02*
X213667292Y-95724361D01*
X213667292Y-95724361D02*
X213619673Y-95533885D01*
X213619673Y-95533885D02*
X213619673Y-95200552D01*
X213619673Y-95200552D02*
X213667292Y-95010076D01*
X213667292Y-95010076D02*
X213762530Y-94914838D01*
X213762530Y-94914838D02*
X213857768Y-94867219D01*
X214714911Y-95867219D02*
X214714911Y-94867219D01*
X214714911Y-94867219D02*
X215048244Y-95581504D01*
X215048244Y-95581504D02*
X215381577Y-94867219D01*
X215381577Y-94867219D02*
X215381577Y-95867219D01*
X215857768Y-95343409D02*
X216191101Y-95343409D01*
X216333958Y-95867219D02*
X215857768Y-95867219D01*
X215857768Y-95867219D02*
X215857768Y-94867219D01*
X215857768Y-94867219D02*
X216333958Y-94867219D01*
X212726816Y-89867219D02*
X213060149Y-90867219D01*
X213060149Y-90867219D02*
X213393482Y-89867219D01*
X213726816Y-90867219D02*
X213726816Y-90200552D01*
X213726816Y-90391028D02*
X213774435Y-90295790D01*
X213774435Y-90295790D02*
X213822054Y-90248171D01*
X213822054Y-90248171D02*
X213917292Y-90200552D01*
X213917292Y-90200552D02*
X214012530Y-90200552D01*
X214726816Y-90819600D02*
X214631578Y-90867219D01*
X214631578Y-90867219D02*
X214441102Y-90867219D01*
X214441102Y-90867219D02*
X214345864Y-90819600D01*
X214345864Y-90819600D02*
X214298245Y-90724361D01*
X214298245Y-90724361D02*
X214298245Y-90343409D01*
X214298245Y-90343409D02*
X214345864Y-90248171D01*
X214345864Y-90248171D02*
X214441102Y-90200552D01*
X214441102Y-90200552D02*
X214631578Y-90200552D01*
X214631578Y-90200552D02*
X214726816Y-90248171D01*
X214726816Y-90248171D02*
X214774435Y-90343409D01*
X214774435Y-90343409D02*
X214774435Y-90438647D01*
X214774435Y-90438647D02*
X214298245Y-90533885D01*
X215060150Y-90200552D02*
X215441102Y-90200552D01*
X215203007Y-90867219D02*
X215203007Y-90010076D01*
X215203007Y-90010076D02*
X215250626Y-89914838D01*
X215250626Y-89914838D02*
X215345864Y-89867219D01*
X215345864Y-89867219D02*
X215441102Y-89867219D01*
X213191101Y-85521980D02*
X213143482Y-85569600D01*
X213143482Y-85569600D02*
X213000625Y-85617219D01*
X213000625Y-85617219D02*
X212905387Y-85617219D01*
X212905387Y-85617219D02*
X212762530Y-85569600D01*
X212762530Y-85569600D02*
X212667292Y-85474361D01*
X212667292Y-85474361D02*
X212619673Y-85379123D01*
X212619673Y-85379123D02*
X212572054Y-85188647D01*
X212572054Y-85188647D02*
X212572054Y-85045790D01*
X212572054Y-85045790D02*
X212619673Y-84855314D01*
X212619673Y-84855314D02*
X212667292Y-84760076D01*
X212667292Y-84760076D02*
X212762530Y-84664838D01*
X212762530Y-84664838D02*
X212905387Y-84617219D01*
X212905387Y-84617219D02*
X213000625Y-84617219D01*
X213000625Y-84617219D02*
X213143482Y-84664838D01*
X213143482Y-84664838D02*
X213191101Y-84712457D01*
X214095863Y-85617219D02*
X213619673Y-85617219D01*
X213619673Y-85617219D02*
X213619673Y-84617219D01*
X214429197Y-85617219D02*
X214429197Y-84617219D01*
X215000625Y-85617219D02*
X214572054Y-85045790D01*
X215000625Y-84617219D02*
X214429197Y-85188647D01*
X213191101Y-80771980D02*
X213143482Y-80819600D01*
X213143482Y-80819600D02*
X213000625Y-80867219D01*
X213000625Y-80867219D02*
X212905387Y-80867219D01*
X212905387Y-80867219D02*
X212762530Y-80819600D01*
X212762530Y-80819600D02*
X212667292Y-80724361D01*
X212667292Y-80724361D02*
X212619673Y-80629123D01*
X212619673Y-80629123D02*
X212572054Y-80438647D01*
X212572054Y-80438647D02*
X212572054Y-80295790D01*
X212572054Y-80295790D02*
X212619673Y-80105314D01*
X212619673Y-80105314D02*
X212667292Y-80010076D01*
X212667292Y-80010076D02*
X212762530Y-79914838D01*
X212762530Y-79914838D02*
X212905387Y-79867219D01*
X212905387Y-79867219D02*
X213000625Y-79867219D01*
X213000625Y-79867219D02*
X213143482Y-79914838D01*
X213143482Y-79914838D02*
X213191101Y-79962457D01*
X213524435Y-79867219D02*
X213762530Y-80867219D01*
X213762530Y-80867219D02*
X213953006Y-80152933D01*
X213953006Y-80152933D02*
X214143482Y-80867219D01*
X214143482Y-80867219D02*
X214381578Y-79867219D01*
X212619673Y-75593409D02*
X212953006Y-75593409D01*
X213095863Y-76117219D02*
X212619673Y-76117219D01*
X212619673Y-76117219D02*
X212619673Y-75117219D01*
X212619673Y-75117219D02*
X213095863Y-75117219D01*
X213524435Y-76117219D02*
X213524435Y-75117219D01*
X213524435Y-75117219D02*
X214095863Y-76117219D01*
X214095863Y-76117219D02*
X214095863Y-75117219D01*
X214524435Y-75831504D02*
X215000625Y-75831504D01*
X214429197Y-76117219D02*
X214762530Y-75117219D01*
X214762530Y-75117219D02*
X215095863Y-76117219D01*
X213191101Y-71617219D02*
X212857768Y-71141028D01*
X212619673Y-71617219D02*
X212619673Y-70617219D01*
X212619673Y-70617219D02*
X213000625Y-70617219D01*
X213000625Y-70617219D02*
X213095863Y-70664838D01*
X213095863Y-70664838D02*
X213143482Y-70712457D01*
X213143482Y-70712457D02*
X213191101Y-70807695D01*
X213191101Y-70807695D02*
X213191101Y-70950552D01*
X213191101Y-70950552D02*
X213143482Y-71045790D01*
X213143482Y-71045790D02*
X213095863Y-71093409D01*
X213095863Y-71093409D02*
X213000625Y-71141028D01*
X213000625Y-71141028D02*
X212619673Y-71141028D01*
X213619673Y-71093409D02*
X213953006Y-71093409D01*
X214095863Y-71617219D02*
X213619673Y-71617219D01*
X213619673Y-71617219D02*
X213619673Y-70617219D01*
X213619673Y-70617219D02*
X214095863Y-70617219D01*
X214476816Y-71569600D02*
X214619673Y-71617219D01*
X214619673Y-71617219D02*
X214857768Y-71617219D01*
X214857768Y-71617219D02*
X214953006Y-71569600D01*
X214953006Y-71569600D02*
X215000625Y-71521980D01*
X215000625Y-71521980D02*
X215048244Y-71426742D01*
X215048244Y-71426742D02*
X215048244Y-71331504D01*
X215048244Y-71331504D02*
X215000625Y-71236266D01*
X215000625Y-71236266D02*
X214953006Y-71188647D01*
X214953006Y-71188647D02*
X214857768Y-71141028D01*
X214857768Y-71141028D02*
X214667292Y-71093409D01*
X214667292Y-71093409D02*
X214572054Y-71045790D01*
X214572054Y-71045790D02*
X214524435Y-70998171D01*
X214524435Y-70998171D02*
X214476816Y-70902933D01*
X214476816Y-70902933D02*
X214476816Y-70807695D01*
X214476816Y-70807695D02*
X214524435Y-70712457D01*
X214524435Y-70712457D02*
X214572054Y-70664838D01*
X214572054Y-70664838D02*
X214667292Y-70617219D01*
X214667292Y-70617219D02*
X214905387Y-70617219D01*
X214905387Y-70617219D02*
X215048244Y-70664838D01*
X215476816Y-71093409D02*
X215810149Y-71093409D01*
X215953006Y-71617219D02*
X215476816Y-71617219D01*
X215476816Y-71617219D02*
X215476816Y-70617219D01*
X215476816Y-70617219D02*
X215953006Y-70617219D01*
X216238721Y-70617219D02*
X216810149Y-70617219D01*
X216524435Y-71617219D02*
X216524435Y-70617219D01*
X213191101Y-66021980D02*
X213143482Y-66069600D01*
X213143482Y-66069600D02*
X213000625Y-66117219D01*
X213000625Y-66117219D02*
X212905387Y-66117219D01*
X212905387Y-66117219D02*
X212762530Y-66069600D01*
X212762530Y-66069600D02*
X212667292Y-65974361D01*
X212667292Y-65974361D02*
X212619673Y-65879123D01*
X212619673Y-65879123D02*
X212572054Y-65688647D01*
X212572054Y-65688647D02*
X212572054Y-65545790D01*
X212572054Y-65545790D02*
X212619673Y-65355314D01*
X212619673Y-65355314D02*
X212667292Y-65260076D01*
X212667292Y-65260076D02*
X212762530Y-65164838D01*
X212762530Y-65164838D02*
X212905387Y-65117219D01*
X212905387Y-65117219D02*
X213000625Y-65117219D01*
X213000625Y-65117219D02*
X213143482Y-65164838D01*
X213143482Y-65164838D02*
X213191101Y-65212457D01*
X213476816Y-65117219D02*
X214048244Y-65117219D01*
X213762530Y-66117219D02*
X213762530Y-65117219D01*
X214953006Y-66117219D02*
X214619673Y-65641028D01*
X214381578Y-66117219D02*
X214381578Y-65117219D01*
X214381578Y-65117219D02*
X214762530Y-65117219D01*
X214762530Y-65117219D02*
X214857768Y-65164838D01*
X214857768Y-65164838D02*
X214905387Y-65212457D01*
X214905387Y-65212457D02*
X214953006Y-65307695D01*
X214953006Y-65307695D02*
X214953006Y-65450552D01*
X214953006Y-65450552D02*
X214905387Y-65545790D01*
X214905387Y-65545790D02*
X214857768Y-65593409D01*
X214857768Y-65593409D02*
X214762530Y-65641028D01*
X214762530Y-65641028D02*
X214381578Y-65641028D01*
X215857768Y-66117219D02*
X215381578Y-66117219D01*
X215381578Y-66117219D02*
X215381578Y-65117219D01*
X212810149Y-59867219D02*
X213000625Y-59867219D01*
X213000625Y-59867219D02*
X213095863Y-59914838D01*
X213095863Y-59914838D02*
X213191101Y-60010076D01*
X213191101Y-60010076D02*
X213238720Y-60200552D01*
X213238720Y-60200552D02*
X213238720Y-60533885D01*
X213238720Y-60533885D02*
X213191101Y-60724361D01*
X213191101Y-60724361D02*
X213095863Y-60819600D01*
X213095863Y-60819600D02*
X213000625Y-60867219D01*
X213000625Y-60867219D02*
X212810149Y-60867219D01*
X212810149Y-60867219D02*
X212714911Y-60819600D01*
X212714911Y-60819600D02*
X212619673Y-60724361D01*
X212619673Y-60724361D02*
X212572054Y-60533885D01*
X212572054Y-60533885D02*
X212572054Y-60200552D01*
X212572054Y-60200552D02*
X212619673Y-60010076D01*
X212619673Y-60010076D02*
X212714911Y-59914838D01*
X212714911Y-59914838D02*
X212810149Y-59867219D01*
X213619673Y-60819600D02*
X213762530Y-60867219D01*
X213762530Y-60867219D02*
X214000625Y-60867219D01*
X214000625Y-60867219D02*
X214095863Y-60819600D01*
X214095863Y-60819600D02*
X214143482Y-60771980D01*
X214143482Y-60771980D02*
X214191101Y-60676742D01*
X214191101Y-60676742D02*
X214191101Y-60581504D01*
X214191101Y-60581504D02*
X214143482Y-60486266D01*
X214143482Y-60486266D02*
X214095863Y-60438647D01*
X214095863Y-60438647D02*
X214000625Y-60391028D01*
X214000625Y-60391028D02*
X213810149Y-60343409D01*
X213810149Y-60343409D02*
X213714911Y-60295790D01*
X213714911Y-60295790D02*
X213667292Y-60248171D01*
X213667292Y-60248171D02*
X213619673Y-60152933D01*
X213619673Y-60152933D02*
X213619673Y-60057695D01*
X213619673Y-60057695D02*
X213667292Y-59962457D01*
X213667292Y-59962457D02*
X213714911Y-59914838D01*
X213714911Y-59914838D02*
X213810149Y-59867219D01*
X213810149Y-59867219D02*
X214048244Y-59867219D01*
X214048244Y-59867219D02*
X214191101Y-59914838D01*
X215191101Y-60771980D02*
X215143482Y-60819600D01*
X215143482Y-60819600D02*
X215000625Y-60867219D01*
X215000625Y-60867219D02*
X214905387Y-60867219D01*
X214905387Y-60867219D02*
X214762530Y-60819600D01*
X214762530Y-60819600D02*
X214667292Y-60724361D01*
X214667292Y-60724361D02*
X214619673Y-60629123D01*
X214619673Y-60629123D02*
X214572054Y-60438647D01*
X214572054Y-60438647D02*
X214572054Y-60295790D01*
X214572054Y-60295790D02*
X214619673Y-60105314D01*
X214619673Y-60105314D02*
X214667292Y-60010076D01*
X214667292Y-60010076D02*
X214762530Y-59914838D01*
X214762530Y-59914838D02*
X214905387Y-59867219D01*
X214905387Y-59867219D02*
X215000625Y-59867219D01*
X215000625Y-59867219D02*
X215143482Y-59914838D01*
X215143482Y-59914838D02*
X215191101Y-59962457D01*
D12*
X212532581Y-56072720D02*
X212675438Y-56120339D01*
X212675438Y-56120339D02*
X212913533Y-56120339D01*
X212913533Y-56120339D02*
X213008771Y-56072720D01*
X213008771Y-56072720D02*
X213056390Y-56025100D01*
X213056390Y-56025100D02*
X213104009Y-55929862D01*
X213104009Y-55929862D02*
X213104009Y-55834624D01*
X213104009Y-55834624D02*
X213056390Y-55739386D01*
X213056390Y-55739386D02*
X213008771Y-55691767D01*
X213008771Y-55691767D02*
X212913533Y-55644148D01*
X212913533Y-55644148D02*
X212723057Y-55596529D01*
X212723057Y-55596529D02*
X212627819Y-55548910D01*
X212627819Y-55548910D02*
X212580200Y-55501291D01*
X212580200Y-55501291D02*
X212532581Y-55406053D01*
X212532581Y-55406053D02*
X212532581Y-55310815D01*
X212532581Y-55310815D02*
X212580200Y-55215577D01*
X212580200Y-55215577D02*
X212627819Y-55167958D01*
X212627819Y-55167958D02*
X212723057Y-55120339D01*
X212723057Y-55120339D02*
X212961152Y-55120339D01*
X212961152Y-55120339D02*
X213104009Y-55167958D01*
X213723057Y-55644148D02*
X213723057Y-56120339D01*
X213389724Y-55120339D02*
X213723057Y-55644148D01*
X213723057Y-55644148D02*
X214056390Y-55120339D01*
X214389724Y-56120339D02*
X214389724Y-55120339D01*
X214389724Y-55120339D02*
X214961152Y-56120339D01*
X214961152Y-56120339D02*
X214961152Y-55120339D01*
X216008771Y-56025100D02*
X215961152Y-56072720D01*
X215961152Y-56072720D02*
X215818295Y-56120339D01*
X215818295Y-56120339D02*
X215723057Y-56120339D01*
X215723057Y-56120339D02*
X215580200Y-56072720D01*
X215580200Y-56072720D02*
X215484962Y-55977481D01*
X215484962Y-55977481D02*
X215437343Y-55882243D01*
X215437343Y-55882243D02*
X215389724Y-55691767D01*
X215389724Y-55691767D02*
X215389724Y-55548910D01*
X215389724Y-55548910D02*
X215437343Y-55358434D01*
X215437343Y-55358434D02*
X215484962Y-55263196D01*
X215484962Y-55263196D02*
X215580200Y-55167958D01*
X215580200Y-55167958D02*
X215723057Y-55120339D01*
X215723057Y-55120339D02*
X215818295Y-55120339D01*
X215818295Y-55120339D02*
X215961152Y-55167958D01*
X215961152Y-55167958D02*
X216008771Y-55215577D01*
D10*
X166117219Y-51273183D02*
X167117219Y-50939850D01*
X167117219Y-50939850D02*
X166117219Y-50606517D01*
X167069600Y-50320802D02*
X167117219Y-50225564D01*
X167117219Y-50225564D02*
X167117219Y-50035088D01*
X167117219Y-50035088D02*
X167069600Y-49939850D01*
X167069600Y-49939850D02*
X166974361Y-49892231D01*
X166974361Y-49892231D02*
X166926742Y-49892231D01*
X166926742Y-49892231D02*
X166831504Y-49939850D01*
X166831504Y-49939850D02*
X166783885Y-50035088D01*
X166783885Y-50035088D02*
X166783885Y-50177945D01*
X166783885Y-50177945D02*
X166736266Y-50273183D01*
X166736266Y-50273183D02*
X166641028Y-50320802D01*
X166641028Y-50320802D02*
X166593409Y-50320802D01*
X166593409Y-50320802D02*
X166498171Y-50273183D01*
X166498171Y-50273183D02*
X166450552Y-50177945D01*
X166450552Y-50177945D02*
X166450552Y-50035088D01*
X166450552Y-50035088D02*
X166498171Y-49939850D01*
X166736266Y-48701754D02*
X166736266Y-47939850D01*
X167117219Y-48320802D02*
X166355314Y-48320802D01*
X167117219Y-46939850D02*
X167117219Y-47511278D01*
X167117219Y-47225564D02*
X166117219Y-47225564D01*
X166117219Y-47225564D02*
X166260076Y-47320802D01*
X166260076Y-47320802D02*
X166355314Y-47416040D01*
X166355314Y-47416040D02*
X166402933Y-47511278D01*
X166212457Y-46558897D02*
X166164838Y-46511278D01*
X166164838Y-46511278D02*
X166117219Y-46416040D01*
X166117219Y-46416040D02*
X166117219Y-46177945D01*
X166117219Y-46177945D02*
X166164838Y-46082707D01*
X166164838Y-46082707D02*
X166212457Y-46035088D01*
X166212457Y-46035088D02*
X166307695Y-45987469D01*
X166307695Y-45987469D02*
X166402933Y-45987469D01*
X166402933Y-45987469D02*
X166545790Y-46035088D01*
X166545790Y-46035088D02*
X167117219Y-46606516D01*
X167117219Y-46606516D02*
X167117219Y-45987469D01*
X166117219Y-45701754D02*
X167117219Y-45368421D01*
X167117219Y-45368421D02*
X166117219Y-45035088D01*
X138867219Y-51523183D02*
X139867219Y-51189850D01*
X139867219Y-51189850D02*
X138867219Y-50856517D01*
X139819600Y-50570802D02*
X139867219Y-50475564D01*
X139867219Y-50475564D02*
X139867219Y-50285088D01*
X139867219Y-50285088D02*
X139819600Y-50189850D01*
X139819600Y-50189850D02*
X139724361Y-50142231D01*
X139724361Y-50142231D02*
X139676742Y-50142231D01*
X139676742Y-50142231D02*
X139581504Y-50189850D01*
X139581504Y-50189850D02*
X139533885Y-50285088D01*
X139533885Y-50285088D02*
X139533885Y-50427945D01*
X139533885Y-50427945D02*
X139486266Y-50523183D01*
X139486266Y-50523183D02*
X139391028Y-50570802D01*
X139391028Y-50570802D02*
X139343409Y-50570802D01*
X139343409Y-50570802D02*
X139248171Y-50523183D01*
X139248171Y-50523183D02*
X139200552Y-50427945D01*
X139200552Y-50427945D02*
X139200552Y-50285088D01*
X139200552Y-50285088D02*
X139248171Y-50189850D01*
X139486266Y-48951754D02*
X139486266Y-48189850D01*
X139867219Y-48570802D02*
X139105314Y-48570802D01*
X138867219Y-47237469D02*
X138867219Y-47713659D01*
X138867219Y-47713659D02*
X139343409Y-47761278D01*
X139343409Y-47761278D02*
X139295790Y-47713659D01*
X139295790Y-47713659D02*
X139248171Y-47618421D01*
X139248171Y-47618421D02*
X139248171Y-47380326D01*
X139248171Y-47380326D02*
X139295790Y-47285088D01*
X139295790Y-47285088D02*
X139343409Y-47237469D01*
X139343409Y-47237469D02*
X139438647Y-47189850D01*
X139438647Y-47189850D02*
X139676742Y-47189850D01*
X139676742Y-47189850D02*
X139771980Y-47237469D01*
X139771980Y-47237469D02*
X139819600Y-47285088D01*
X139819600Y-47285088D02*
X139867219Y-47380326D01*
X139867219Y-47380326D02*
X139867219Y-47618421D01*
X139867219Y-47618421D02*
X139819600Y-47713659D01*
X139819600Y-47713659D02*
X139771980Y-47761278D01*
X138867219Y-46904135D02*
X139867219Y-46570802D01*
X139867219Y-46570802D02*
X138867219Y-46237469D01*
D13*
X160334819Y-95691428D02*
X159858628Y-96024761D01*
X160334819Y-96262856D02*
X159334819Y-96262856D01*
X159334819Y-96262856D02*
X159334819Y-95881904D01*
X159334819Y-95881904D02*
X159382438Y-95786666D01*
X159382438Y-95786666D02*
X159430057Y-95739047D01*
X159430057Y-95739047D02*
X159525295Y-95691428D01*
X159525295Y-95691428D02*
X159668152Y-95691428D01*
X159668152Y-95691428D02*
X159763390Y-95739047D01*
X159763390Y-95739047D02*
X159811009Y-95786666D01*
X159811009Y-95786666D02*
X159858628Y-95881904D01*
X159858628Y-95881904D02*
X159858628Y-96262856D01*
X160287200Y-95310475D02*
X160334819Y-95215237D01*
X160334819Y-95215237D02*
X160334819Y-95024761D01*
X160334819Y-95024761D02*
X160287200Y-94929523D01*
X160287200Y-94929523D02*
X160191961Y-94881904D01*
X160191961Y-94881904D02*
X160144342Y-94881904D01*
X160144342Y-94881904D02*
X160049104Y-94929523D01*
X160049104Y-94929523D02*
X160001485Y-95024761D01*
X160001485Y-95024761D02*
X160001485Y-95167618D01*
X160001485Y-95167618D02*
X159953866Y-95262856D01*
X159953866Y-95262856D02*
X159858628Y-95310475D01*
X159858628Y-95310475D02*
X159811009Y-95310475D01*
X159811009Y-95310475D02*
X159715771Y-95262856D01*
X159715771Y-95262856D02*
X159668152Y-95167618D01*
X159668152Y-95167618D02*
X159668152Y-95024761D01*
X159668152Y-95024761D02*
X159715771Y-94929523D01*
X160334819Y-93929523D02*
X160334819Y-94500951D01*
X160334819Y-94215237D02*
X159334819Y-94215237D01*
X159334819Y-94215237D02*
X159477676Y-94310475D01*
X159477676Y-94310475D02*
X159572914Y-94405713D01*
X159572914Y-94405713D02*
X159620533Y-94500951D01*
X199444819Y-78333333D02*
X200159104Y-78333333D01*
X200159104Y-78333333D02*
X200301961Y-78380952D01*
X200301961Y-78380952D02*
X200397200Y-78476190D01*
X200397200Y-78476190D02*
X200444819Y-78619047D01*
X200444819Y-78619047D02*
X200444819Y-78714285D01*
X199778152Y-77428571D02*
X200444819Y-77428571D01*
X199397200Y-77666666D02*
X200111485Y-77904761D01*
X200111485Y-77904761D02*
X200111485Y-77285714D01*
X142333333Y-57609580D02*
X142285714Y-57657200D01*
X142285714Y-57657200D02*
X142142857Y-57704819D01*
X142142857Y-57704819D02*
X142047619Y-57704819D01*
X142047619Y-57704819D02*
X141904762Y-57657200D01*
X141904762Y-57657200D02*
X141809524Y-57561961D01*
X141809524Y-57561961D02*
X141761905Y-57466723D01*
X141761905Y-57466723D02*
X141714286Y-57276247D01*
X141714286Y-57276247D02*
X141714286Y-57133390D01*
X141714286Y-57133390D02*
X141761905Y-56942914D01*
X141761905Y-56942914D02*
X141809524Y-56847676D01*
X141809524Y-56847676D02*
X141904762Y-56752438D01*
X141904762Y-56752438D02*
X142047619Y-56704819D01*
X142047619Y-56704819D02*
X142142857Y-56704819D01*
X142142857Y-56704819D02*
X142285714Y-56752438D01*
X142285714Y-56752438D02*
X142333333Y-56800057D01*
X142666667Y-56704819D02*
X143285714Y-56704819D01*
X143285714Y-56704819D02*
X142952381Y-57085771D01*
X142952381Y-57085771D02*
X143095238Y-57085771D01*
X143095238Y-57085771D02*
X143190476Y-57133390D01*
X143190476Y-57133390D02*
X143238095Y-57181009D01*
X143238095Y-57181009D02*
X143285714Y-57276247D01*
X143285714Y-57276247D02*
X143285714Y-57514342D01*
X143285714Y-57514342D02*
X143238095Y-57609580D01*
X143238095Y-57609580D02*
X143190476Y-57657200D01*
X143190476Y-57657200D02*
X143095238Y-57704819D01*
X143095238Y-57704819D02*
X142809524Y-57704819D01*
X142809524Y-57704819D02*
X142714286Y-57657200D01*
X142714286Y-57657200D02*
X142666667Y-57609580D01*
X192083333Y-42859580D02*
X192035714Y-42907200D01*
X192035714Y-42907200D02*
X191892857Y-42954819D01*
X191892857Y-42954819D02*
X191797619Y-42954819D01*
X191797619Y-42954819D02*
X191654762Y-42907200D01*
X191654762Y-42907200D02*
X191559524Y-42811961D01*
X191559524Y-42811961D02*
X191511905Y-42716723D01*
X191511905Y-42716723D02*
X191464286Y-42526247D01*
X191464286Y-42526247D02*
X191464286Y-42383390D01*
X191464286Y-42383390D02*
X191511905Y-42192914D01*
X191511905Y-42192914D02*
X191559524Y-42097676D01*
X191559524Y-42097676D02*
X191654762Y-42002438D01*
X191654762Y-42002438D02*
X191797619Y-41954819D01*
X191797619Y-41954819D02*
X191892857Y-41954819D01*
X191892857Y-41954819D02*
X192035714Y-42002438D01*
X192035714Y-42002438D02*
X192083333Y-42050057D01*
X192464286Y-42050057D02*
X192511905Y-42002438D01*
X192511905Y-42002438D02*
X192607143Y-41954819D01*
X192607143Y-41954819D02*
X192845238Y-41954819D01*
X192845238Y-41954819D02*
X192940476Y-42002438D01*
X192940476Y-42002438D02*
X192988095Y-42050057D01*
X192988095Y-42050057D02*
X193035714Y-42145295D01*
X193035714Y-42145295D02*
X193035714Y-42240533D01*
X193035714Y-42240533D02*
X192988095Y-42383390D01*
X192988095Y-42383390D02*
X192416667Y-42954819D01*
X192416667Y-42954819D02*
X193035714Y-42954819D01*
X142141905Y-87204819D02*
X142141905Y-86204819D01*
X142141905Y-86204819D02*
X142380000Y-86204819D01*
X142380000Y-86204819D02*
X142522857Y-86252438D01*
X142522857Y-86252438D02*
X142618095Y-86347676D01*
X142618095Y-86347676D02*
X142665714Y-86442914D01*
X142665714Y-86442914D02*
X142713333Y-86633390D01*
X142713333Y-86633390D02*
X142713333Y-86776247D01*
X142713333Y-86776247D02*
X142665714Y-86966723D01*
X142665714Y-86966723D02*
X142618095Y-87061961D01*
X142618095Y-87061961D02*
X142522857Y-87157200D01*
X142522857Y-87157200D02*
X142380000Y-87204819D01*
X142380000Y-87204819D02*
X142141905Y-87204819D01*
X143284762Y-86633390D02*
X143189524Y-86585771D01*
X143189524Y-86585771D02*
X143141905Y-86538152D01*
X143141905Y-86538152D02*
X143094286Y-86442914D01*
X143094286Y-86442914D02*
X143094286Y-86395295D01*
X143094286Y-86395295D02*
X143141905Y-86300057D01*
X143141905Y-86300057D02*
X143189524Y-86252438D01*
X143189524Y-86252438D02*
X143284762Y-86204819D01*
X143284762Y-86204819D02*
X143475238Y-86204819D01*
X143475238Y-86204819D02*
X143570476Y-86252438D01*
X143570476Y-86252438D02*
X143618095Y-86300057D01*
X143618095Y-86300057D02*
X143665714Y-86395295D01*
X143665714Y-86395295D02*
X143665714Y-86442914D01*
X143665714Y-86442914D02*
X143618095Y-86538152D01*
X143618095Y-86538152D02*
X143570476Y-86585771D01*
X143570476Y-86585771D02*
X143475238Y-86633390D01*
X143475238Y-86633390D02*
X143284762Y-86633390D01*
X143284762Y-86633390D02*
X143189524Y-86681009D01*
X143189524Y-86681009D02*
X143141905Y-86728628D01*
X143141905Y-86728628D02*
X143094286Y-86823866D01*
X143094286Y-86823866D02*
X143094286Y-87014342D01*
X143094286Y-87014342D02*
X143141905Y-87109580D01*
X143141905Y-87109580D02*
X143189524Y-87157200D01*
X143189524Y-87157200D02*
X143284762Y-87204819D01*
X143284762Y-87204819D02*
X143475238Y-87204819D01*
X143475238Y-87204819D02*
X143570476Y-87157200D01*
X143570476Y-87157200D02*
X143618095Y-87109580D01*
X143618095Y-87109580D02*
X143665714Y-87014342D01*
X143665714Y-87014342D02*
X143665714Y-86823866D01*
X143665714Y-86823866D02*
X143618095Y-86728628D01*
X143618095Y-86728628D02*
X143570476Y-86681009D01*
X143570476Y-86681009D02*
X143475238Y-86633390D01*
X150488095Y-93654819D02*
X150488095Y-92654819D01*
X151059523Y-93654819D02*
X150630952Y-93083390D01*
X151059523Y-92654819D02*
X150488095Y-93226247D01*
X187891905Y-103779819D02*
X187891905Y-102779819D01*
X187891905Y-102779819D02*
X188130000Y-102779819D01*
X188130000Y-102779819D02*
X188272857Y-102827438D01*
X188272857Y-102827438D02*
X188368095Y-102922676D01*
X188368095Y-102922676D02*
X188415714Y-103017914D01*
X188415714Y-103017914D02*
X188463333Y-103208390D01*
X188463333Y-103208390D02*
X188463333Y-103351247D01*
X188463333Y-103351247D02*
X188415714Y-103541723D01*
X188415714Y-103541723D02*
X188368095Y-103636961D01*
X188368095Y-103636961D02*
X188272857Y-103732200D01*
X188272857Y-103732200D02*
X188130000Y-103779819D01*
X188130000Y-103779819D02*
X187891905Y-103779819D01*
X188796667Y-102779819D02*
X189415714Y-102779819D01*
X189415714Y-102779819D02*
X189082381Y-103160771D01*
X189082381Y-103160771D02*
X189225238Y-103160771D01*
X189225238Y-103160771D02*
X189320476Y-103208390D01*
X189320476Y-103208390D02*
X189368095Y-103256009D01*
X189368095Y-103256009D02*
X189415714Y-103351247D01*
X189415714Y-103351247D02*
X189415714Y-103589342D01*
X189415714Y-103589342D02*
X189368095Y-103684580D01*
X189368095Y-103684580D02*
X189320476Y-103732200D01*
X189320476Y-103732200D02*
X189225238Y-103779819D01*
X189225238Y-103779819D02*
X188939524Y-103779819D01*
X188939524Y-103779819D02*
X188844286Y-103732200D01*
X188844286Y-103732200D02*
X188796667Y-103684580D01*
X180748095Y-105364819D02*
X180748095Y-104364819D01*
X181319523Y-105364819D02*
X180890952Y-104793390D01*
X181319523Y-104364819D02*
X180748095Y-104936247D01*
X159416666Y-106704819D02*
X159416666Y-107419104D01*
X159416666Y-107419104D02*
X159369047Y-107561961D01*
X159369047Y-107561961D02*
X159273809Y-107657200D01*
X159273809Y-107657200D02*
X159130952Y-107704819D01*
X159130952Y-107704819D02*
X159035714Y-107704819D01*
X159797619Y-106704819D02*
X160416666Y-106704819D01*
X160416666Y-106704819D02*
X160083333Y-107085771D01*
X160083333Y-107085771D02*
X160226190Y-107085771D01*
X160226190Y-107085771D02*
X160321428Y-107133390D01*
X160321428Y-107133390D02*
X160369047Y-107181009D01*
X160369047Y-107181009D02*
X160416666Y-107276247D01*
X160416666Y-107276247D02*
X160416666Y-107514342D01*
X160416666Y-107514342D02*
X160369047Y-107609580D01*
X160369047Y-107609580D02*
X160321428Y-107657200D01*
X160321428Y-107657200D02*
X160226190Y-107704819D01*
X160226190Y-107704819D02*
X159940476Y-107704819D01*
X159940476Y-107704819D02*
X159845238Y-107657200D01*
X159845238Y-107657200D02*
X159797619Y-107609580D01*
X159626666Y-54214819D02*
X159626666Y-54929104D01*
X159626666Y-54929104D02*
X159579047Y-55071961D01*
X159579047Y-55071961D02*
X159483809Y-55167200D01*
X159483809Y-55167200D02*
X159340952Y-55214819D01*
X159340952Y-55214819D02*
X159245714Y-55214819D01*
X160055238Y-54310057D02*
X160102857Y-54262438D01*
X160102857Y-54262438D02*
X160198095Y-54214819D01*
X160198095Y-54214819D02*
X160436190Y-54214819D01*
X160436190Y-54214819D02*
X160531428Y-54262438D01*
X160531428Y-54262438D02*
X160579047Y-54310057D01*
X160579047Y-54310057D02*
X160626666Y-54405295D01*
X160626666Y-54405295D02*
X160626666Y-54500533D01*
X160626666Y-54500533D02*
X160579047Y-54643390D01*
X160579047Y-54643390D02*
X160007619Y-55214819D01*
X160007619Y-55214819D02*
X160626666Y-55214819D01*
X145626666Y-54214819D02*
X145626666Y-54929104D01*
X145626666Y-54929104D02*
X145579047Y-55071961D01*
X145579047Y-55071961D02*
X145483809Y-55167200D01*
X145483809Y-55167200D02*
X145340952Y-55214819D01*
X145340952Y-55214819D02*
X145245714Y-55214819D01*
X146626666Y-55214819D02*
X146055238Y-55214819D01*
X146340952Y-55214819D02*
X146340952Y-54214819D01*
X146340952Y-54214819D02*
X146245714Y-54357676D01*
X146245714Y-54357676D02*
X146150476Y-54452914D01*
X146150476Y-54452914D02*
X146055238Y-54500533D01*
X183583333Y-42859580D02*
X183535714Y-42907200D01*
X183535714Y-42907200D02*
X183392857Y-42954819D01*
X183392857Y-42954819D02*
X183297619Y-42954819D01*
X183297619Y-42954819D02*
X183154762Y-42907200D01*
X183154762Y-42907200D02*
X183059524Y-42811961D01*
X183059524Y-42811961D02*
X183011905Y-42716723D01*
X183011905Y-42716723D02*
X182964286Y-42526247D01*
X182964286Y-42526247D02*
X182964286Y-42383390D01*
X182964286Y-42383390D02*
X183011905Y-42192914D01*
X183011905Y-42192914D02*
X183059524Y-42097676D01*
X183059524Y-42097676D02*
X183154762Y-42002438D01*
X183154762Y-42002438D02*
X183297619Y-41954819D01*
X183297619Y-41954819D02*
X183392857Y-41954819D01*
X183392857Y-41954819D02*
X183535714Y-42002438D01*
X183535714Y-42002438D02*
X183583333Y-42050057D01*
X184440476Y-42288152D02*
X184440476Y-42954819D01*
X184202381Y-41907200D02*
X183964286Y-42621485D01*
X183964286Y-42621485D02*
X184583333Y-42621485D01*
X173454819Y-95451428D02*
X172978628Y-95784761D01*
X173454819Y-96022856D02*
X172454819Y-96022856D01*
X172454819Y-96022856D02*
X172454819Y-95641904D01*
X172454819Y-95641904D02*
X172502438Y-95546666D01*
X172502438Y-95546666D02*
X172550057Y-95499047D01*
X172550057Y-95499047D02*
X172645295Y-95451428D01*
X172645295Y-95451428D02*
X172788152Y-95451428D01*
X172788152Y-95451428D02*
X172883390Y-95499047D01*
X172883390Y-95499047D02*
X172931009Y-95546666D01*
X172931009Y-95546666D02*
X172978628Y-95641904D01*
X172978628Y-95641904D02*
X172978628Y-96022856D01*
X173407200Y-95070475D02*
X173454819Y-94975237D01*
X173454819Y-94975237D02*
X173454819Y-94784761D01*
X173454819Y-94784761D02*
X173407200Y-94689523D01*
X173407200Y-94689523D02*
X173311961Y-94641904D01*
X173311961Y-94641904D02*
X173264342Y-94641904D01*
X173264342Y-94641904D02*
X173169104Y-94689523D01*
X173169104Y-94689523D02*
X173121485Y-94784761D01*
X173121485Y-94784761D02*
X173121485Y-94927618D01*
X173121485Y-94927618D02*
X173073866Y-95022856D01*
X173073866Y-95022856D02*
X172978628Y-95070475D01*
X172978628Y-95070475D02*
X172931009Y-95070475D01*
X172931009Y-95070475D02*
X172835771Y-95022856D01*
X172835771Y-95022856D02*
X172788152Y-94927618D01*
X172788152Y-94927618D02*
X172788152Y-94784761D01*
X172788152Y-94784761D02*
X172835771Y-94689523D01*
X172550057Y-94260951D02*
X172502438Y-94213332D01*
X172502438Y-94213332D02*
X172454819Y-94118094D01*
X172454819Y-94118094D02*
X172454819Y-93879999D01*
X172454819Y-93879999D02*
X172502438Y-93784761D01*
X172502438Y-93784761D02*
X172550057Y-93737142D01*
X172550057Y-93737142D02*
X172645295Y-93689523D01*
X172645295Y-93689523D02*
X172740533Y-93689523D01*
X172740533Y-93689523D02*
X172883390Y-93737142D01*
X172883390Y-93737142D02*
X173454819Y-94308570D01*
X173454819Y-94308570D02*
X173454819Y-93689523D01*
X174129819Y-64106904D02*
X174939342Y-64106904D01*
X174939342Y-64106904D02*
X175034580Y-64059285D01*
X175034580Y-64059285D02*
X175082200Y-64011666D01*
X175082200Y-64011666D02*
X175129819Y-63916428D01*
X175129819Y-63916428D02*
X175129819Y-63725952D01*
X175129819Y-63725952D02*
X175082200Y-63630714D01*
X175082200Y-63630714D02*
X175034580Y-63583095D01*
X175034580Y-63583095D02*
X174939342Y-63535476D01*
X174939342Y-63535476D02*
X174129819Y-63535476D01*
X174129819Y-63154523D02*
X174129819Y-62535476D01*
X174129819Y-62535476D02*
X174510771Y-62868809D01*
X174510771Y-62868809D02*
X174510771Y-62725952D01*
X174510771Y-62725952D02*
X174558390Y-62630714D01*
X174558390Y-62630714D02*
X174606009Y-62583095D01*
X174606009Y-62583095D02*
X174701247Y-62535476D01*
X174701247Y-62535476D02*
X174939342Y-62535476D01*
X174939342Y-62535476D02*
X175034580Y-62583095D01*
X175034580Y-62583095D02*
X175082200Y-62630714D01*
X175082200Y-62630714D02*
X175129819Y-62725952D01*
X175129819Y-62725952D02*
X175129819Y-63011666D01*
X175129819Y-63011666D02*
X175082200Y-63106904D01*
X175082200Y-63106904D02*
X175034580Y-63154523D01*
X187891905Y-87669819D02*
X187891905Y-86669819D01*
X187891905Y-86669819D02*
X188130000Y-86669819D01*
X188130000Y-86669819D02*
X188272857Y-86717438D01*
X188272857Y-86717438D02*
X188368095Y-86812676D01*
X188368095Y-86812676D02*
X188415714Y-86907914D01*
X188415714Y-86907914D02*
X188463333Y-87098390D01*
X188463333Y-87098390D02*
X188463333Y-87241247D01*
X188463333Y-87241247D02*
X188415714Y-87431723D01*
X188415714Y-87431723D02*
X188368095Y-87526961D01*
X188368095Y-87526961D02*
X188272857Y-87622200D01*
X188272857Y-87622200D02*
X188130000Y-87669819D01*
X188130000Y-87669819D02*
X187891905Y-87669819D01*
X189415714Y-87669819D02*
X188844286Y-87669819D01*
X189130000Y-87669819D02*
X189130000Y-86669819D01*
X189130000Y-86669819D02*
X189034762Y-86812676D01*
X189034762Y-86812676D02*
X188939524Y-86907914D01*
X188939524Y-86907914D02*
X188844286Y-86955533D01*
X180748095Y-89254819D02*
X180748095Y-88254819D01*
X181319523Y-89254819D02*
X180890952Y-88683390D01*
X181319523Y-88254819D02*
X180748095Y-88826247D01*
X142141905Y-111704819D02*
X142141905Y-110704819D01*
X142141905Y-110704819D02*
X142380000Y-110704819D01*
X142380000Y-110704819D02*
X142522857Y-110752438D01*
X142522857Y-110752438D02*
X142618095Y-110847676D01*
X142618095Y-110847676D02*
X142665714Y-110942914D01*
X142665714Y-110942914D02*
X142713333Y-111133390D01*
X142713333Y-111133390D02*
X142713333Y-111276247D01*
X142713333Y-111276247D02*
X142665714Y-111466723D01*
X142665714Y-111466723D02*
X142618095Y-111561961D01*
X142618095Y-111561961D02*
X142522857Y-111657200D01*
X142522857Y-111657200D02*
X142380000Y-111704819D01*
X142380000Y-111704819D02*
X142141905Y-111704819D01*
X143618095Y-110704819D02*
X143141905Y-110704819D01*
X143141905Y-110704819D02*
X143094286Y-111181009D01*
X143094286Y-111181009D02*
X143141905Y-111133390D01*
X143141905Y-111133390D02*
X143237143Y-111085771D01*
X143237143Y-111085771D02*
X143475238Y-111085771D01*
X143475238Y-111085771D02*
X143570476Y-111133390D01*
X143570476Y-111133390D02*
X143618095Y-111181009D01*
X143618095Y-111181009D02*
X143665714Y-111276247D01*
X143665714Y-111276247D02*
X143665714Y-111514342D01*
X143665714Y-111514342D02*
X143618095Y-111609580D01*
X143618095Y-111609580D02*
X143570476Y-111657200D01*
X143570476Y-111657200D02*
X143475238Y-111704819D01*
X143475238Y-111704819D02*
X143237143Y-111704819D01*
X143237143Y-111704819D02*
X143141905Y-111657200D01*
X143141905Y-111657200D02*
X143094286Y-111609580D01*
X150488095Y-117654819D02*
X150488095Y-116654819D01*
X151059523Y-117654819D02*
X150630952Y-117083390D01*
X151059523Y-116654819D02*
X150488095Y-117226247D01*
X187511905Y-95919819D02*
X187511905Y-94919819D01*
X187511905Y-94919819D02*
X187750000Y-94919819D01*
X187750000Y-94919819D02*
X187892857Y-94967438D01*
X187892857Y-94967438D02*
X187988095Y-95062676D01*
X187988095Y-95062676D02*
X188035714Y-95157914D01*
X188035714Y-95157914D02*
X188083333Y-95348390D01*
X188083333Y-95348390D02*
X188083333Y-95491247D01*
X188083333Y-95491247D02*
X188035714Y-95681723D01*
X188035714Y-95681723D02*
X187988095Y-95776961D01*
X187988095Y-95776961D02*
X187892857Y-95872200D01*
X187892857Y-95872200D02*
X187750000Y-95919819D01*
X187750000Y-95919819D02*
X187511905Y-95919819D01*
X188464286Y-95015057D02*
X188511905Y-94967438D01*
X188511905Y-94967438D02*
X188607143Y-94919819D01*
X188607143Y-94919819D02*
X188845238Y-94919819D01*
X188845238Y-94919819D02*
X188940476Y-94967438D01*
X188940476Y-94967438D02*
X188988095Y-95015057D01*
X188988095Y-95015057D02*
X189035714Y-95110295D01*
X189035714Y-95110295D02*
X189035714Y-95205533D01*
X189035714Y-95205533D02*
X188988095Y-95348390D01*
X188988095Y-95348390D02*
X188416667Y-95919819D01*
X188416667Y-95919819D02*
X189035714Y-95919819D01*
X180368095Y-97504819D02*
X180368095Y-96504819D01*
X180939523Y-97504819D02*
X180510952Y-96933390D01*
X180939523Y-96504819D02*
X180368095Y-97076247D01*
X141641905Y-95704819D02*
X141641905Y-94704819D01*
X141641905Y-94704819D02*
X141880000Y-94704819D01*
X141880000Y-94704819D02*
X142022857Y-94752438D01*
X142022857Y-94752438D02*
X142118095Y-94847676D01*
X142118095Y-94847676D02*
X142165714Y-94942914D01*
X142165714Y-94942914D02*
X142213333Y-95133390D01*
X142213333Y-95133390D02*
X142213333Y-95276247D01*
X142213333Y-95276247D02*
X142165714Y-95466723D01*
X142165714Y-95466723D02*
X142118095Y-95561961D01*
X142118095Y-95561961D02*
X142022857Y-95657200D01*
X142022857Y-95657200D02*
X141880000Y-95704819D01*
X141880000Y-95704819D02*
X141641905Y-95704819D01*
X142546667Y-94704819D02*
X143213333Y-94704819D01*
X143213333Y-94704819D02*
X142784762Y-95704819D01*
X150108095Y-101904819D02*
X150108095Y-100904819D01*
X150679523Y-101904819D02*
X150250952Y-101333390D01*
X150679523Y-100904819D02*
X150108095Y-101476247D01*
X187891905Y-111669819D02*
X187891905Y-110669819D01*
X187891905Y-110669819D02*
X188130000Y-110669819D01*
X188130000Y-110669819D02*
X188272857Y-110717438D01*
X188272857Y-110717438D02*
X188368095Y-110812676D01*
X188368095Y-110812676D02*
X188415714Y-110907914D01*
X188415714Y-110907914D02*
X188463333Y-111098390D01*
X188463333Y-111098390D02*
X188463333Y-111241247D01*
X188463333Y-111241247D02*
X188415714Y-111431723D01*
X188415714Y-111431723D02*
X188368095Y-111526961D01*
X188368095Y-111526961D02*
X188272857Y-111622200D01*
X188272857Y-111622200D02*
X188130000Y-111669819D01*
X188130000Y-111669819D02*
X187891905Y-111669819D01*
X189320476Y-111003152D02*
X189320476Y-111669819D01*
X189082381Y-110622200D02*
X188844286Y-111336485D01*
X188844286Y-111336485D02*
X189463333Y-111336485D01*
X180748095Y-113254819D02*
X180748095Y-112254819D01*
X181319523Y-113254819D02*
X180890952Y-112683390D01*
X181319523Y-112254819D02*
X180748095Y-112826247D01*
X141891905Y-103814819D02*
X141891905Y-102814819D01*
X141891905Y-102814819D02*
X142130000Y-102814819D01*
X142130000Y-102814819D02*
X142272857Y-102862438D01*
X142272857Y-102862438D02*
X142368095Y-102957676D01*
X142368095Y-102957676D02*
X142415714Y-103052914D01*
X142415714Y-103052914D02*
X142463333Y-103243390D01*
X142463333Y-103243390D02*
X142463333Y-103386247D01*
X142463333Y-103386247D02*
X142415714Y-103576723D01*
X142415714Y-103576723D02*
X142368095Y-103671961D01*
X142368095Y-103671961D02*
X142272857Y-103767200D01*
X142272857Y-103767200D02*
X142130000Y-103814819D01*
X142130000Y-103814819D02*
X141891905Y-103814819D01*
X143320476Y-102814819D02*
X143130000Y-102814819D01*
X143130000Y-102814819D02*
X143034762Y-102862438D01*
X143034762Y-102862438D02*
X142987143Y-102910057D01*
X142987143Y-102910057D02*
X142891905Y-103052914D01*
X142891905Y-103052914D02*
X142844286Y-103243390D01*
X142844286Y-103243390D02*
X142844286Y-103624342D01*
X142844286Y-103624342D02*
X142891905Y-103719580D01*
X142891905Y-103719580D02*
X142939524Y-103767200D01*
X142939524Y-103767200D02*
X143034762Y-103814819D01*
X143034762Y-103814819D02*
X143225238Y-103814819D01*
X143225238Y-103814819D02*
X143320476Y-103767200D01*
X143320476Y-103767200D02*
X143368095Y-103719580D01*
X143368095Y-103719580D02*
X143415714Y-103624342D01*
X143415714Y-103624342D02*
X143415714Y-103386247D01*
X143415714Y-103386247D02*
X143368095Y-103291009D01*
X143368095Y-103291009D02*
X143320476Y-103243390D01*
X143320476Y-103243390D02*
X143225238Y-103195771D01*
X143225238Y-103195771D02*
X143034762Y-103195771D01*
X143034762Y-103195771D02*
X142939524Y-103243390D01*
X142939524Y-103243390D02*
X142891905Y-103291009D01*
X142891905Y-103291009D02*
X142844286Y-103386247D01*
X150488095Y-109764819D02*
X150488095Y-108764819D01*
X151059523Y-109764819D02*
X150630952Y-109193390D01*
X151059523Y-108764819D02*
X150488095Y-109336247D01*
X155583333Y-74834819D02*
X155250000Y-74358628D01*
X155011905Y-74834819D02*
X155011905Y-73834819D01*
X155011905Y-73834819D02*
X155392857Y-73834819D01*
X155392857Y-73834819D02*
X155488095Y-73882438D01*
X155488095Y-73882438D02*
X155535714Y-73930057D01*
X155535714Y-73930057D02*
X155583333Y-74025295D01*
X155583333Y-74025295D02*
X155583333Y-74168152D01*
X155583333Y-74168152D02*
X155535714Y-74263390D01*
X155535714Y-74263390D02*
X155488095Y-74311009D01*
X155488095Y-74311009D02*
X155392857Y-74358628D01*
X155392857Y-74358628D02*
X155011905Y-74358628D01*
X156535714Y-74834819D02*
X155964286Y-74834819D01*
X156250000Y-74834819D02*
X156250000Y-73834819D01*
X156250000Y-73834819D02*
X156154762Y-73977676D01*
X156154762Y-73977676D02*
X156059524Y-74072914D01*
X156059524Y-74072914D02*
X155964286Y-74120533D01*
X140333333Y-74609580D02*
X140285714Y-74657200D01*
X140285714Y-74657200D02*
X140142857Y-74704819D01*
X140142857Y-74704819D02*
X140047619Y-74704819D01*
X140047619Y-74704819D02*
X139904762Y-74657200D01*
X139904762Y-74657200D02*
X139809524Y-74561961D01*
X139809524Y-74561961D02*
X139761905Y-74466723D01*
X139761905Y-74466723D02*
X139714286Y-74276247D01*
X139714286Y-74276247D02*
X139714286Y-74133390D01*
X139714286Y-74133390D02*
X139761905Y-73942914D01*
X139761905Y-73942914D02*
X139809524Y-73847676D01*
X139809524Y-73847676D02*
X139904762Y-73752438D01*
X139904762Y-73752438D02*
X140047619Y-73704819D01*
X140047619Y-73704819D02*
X140142857Y-73704819D01*
X140142857Y-73704819D02*
X140285714Y-73752438D01*
X140285714Y-73752438D02*
X140333333Y-73800057D01*
X141285714Y-74704819D02*
X140714286Y-74704819D01*
X141000000Y-74704819D02*
X141000000Y-73704819D01*
X141000000Y-73704819D02*
X140904762Y-73847676D01*
X140904762Y-73847676D02*
X140809524Y-73942914D01*
X140809524Y-73942914D02*
X140714286Y-73990533D01*
D14*
%TO.C,Rs1*%
X160880000Y-89050000D02*
X160880000Y-101190000D01*
X160880000Y-101190000D02*
X165620000Y-101190000D01*
X163250000Y-88940000D02*
X163250000Y-89050000D01*
X163250000Y-101300000D02*
X163250000Y-101190000D01*
X165620000Y-89050000D02*
X160880000Y-89050000D01*
X165620000Y-101190000D02*
X165620000Y-89050000D01*
%TO.C,J4*%
X200989000Y-47940000D02*
X210910000Y-47940000D01*
X200989000Y-108060000D02*
X200989000Y-47940000D01*
X200989000Y-108060000D02*
X210910000Y-108060000D01*
X203949000Y-108060000D02*
X203949000Y-47940000D01*
X204975000Y-49430000D02*
X205011000Y-49465000D01*
X204975000Y-54430000D02*
X205011000Y-54465000D01*
X204975000Y-59430000D02*
X205011000Y-59465000D01*
X204975000Y-64430000D02*
X205011000Y-64465000D01*
X204975000Y-69430000D02*
X205011000Y-69465000D01*
X204975000Y-74430000D02*
X205011000Y-74465000D01*
X204975000Y-79430000D02*
X205011000Y-79465000D01*
X204975000Y-84430000D02*
X205011000Y-84465000D01*
X204975000Y-89430000D02*
X205011000Y-89465000D01*
X204975000Y-94430000D02*
X205011000Y-94465000D01*
X204975000Y-99430000D02*
X205011000Y-99465000D01*
X205181000Y-49225000D02*
X205227000Y-49272000D01*
X205181000Y-54225000D02*
X205227000Y-54272000D01*
X205181000Y-59225000D02*
X205227000Y-59272000D01*
X205181000Y-64225000D02*
X205227000Y-64272000D01*
X205181000Y-69225000D02*
X205227000Y-69272000D01*
X205181000Y-74225000D02*
X205227000Y-74272000D01*
X205181000Y-79225000D02*
X205227000Y-79272000D01*
X205181000Y-84225000D02*
X205227000Y-84272000D01*
X205181000Y-89225000D02*
X205227000Y-89272000D01*
X205181000Y-94225000D02*
X205227000Y-94272000D01*
X205181000Y-99225000D02*
X205227000Y-99272000D01*
X207273000Y-51727000D02*
X207319000Y-51774000D01*
X207273000Y-56727000D02*
X207319000Y-56774000D01*
X207273000Y-61727000D02*
X207319000Y-61774000D01*
X207273000Y-66727000D02*
X207319000Y-66774000D01*
X207273000Y-71727000D02*
X207319000Y-71774000D01*
X207273000Y-76727000D02*
X207319000Y-76774000D01*
X207273000Y-81727000D02*
X207319000Y-81774000D01*
X207273000Y-86727000D02*
X207319000Y-86774000D01*
X207273000Y-91727000D02*
X207319000Y-91774000D01*
X207273000Y-96727000D02*
X207319000Y-96774000D01*
X207273000Y-101727000D02*
X207319000Y-101774000D01*
X207489000Y-51534000D02*
X207524000Y-51569000D01*
X207489000Y-56534000D02*
X207524000Y-56569000D01*
X207489000Y-61534000D02*
X207524000Y-61569000D01*
X207489000Y-66534000D02*
X207524000Y-66569000D01*
X207489000Y-71534000D02*
X207524000Y-71569000D01*
X207489000Y-76534000D02*
X207524000Y-76569000D01*
X207489000Y-81534000D02*
X207524000Y-81569000D01*
X207489000Y-86534000D02*
X207524000Y-86569000D01*
X207489000Y-91534000D02*
X207524000Y-91569000D01*
X207489000Y-96534000D02*
X207524000Y-96569000D01*
X207489000Y-101534000D02*
X207524000Y-101569000D01*
X208850000Y-108060000D02*
X208850000Y-47940000D01*
X210350000Y-108060000D02*
X210350000Y-47940000D01*
X210410000Y-108300000D02*
X211150000Y-108300000D01*
X210910000Y-108060000D02*
X210910000Y-47940000D01*
X211150000Y-108300000D02*
X211150000Y-107800000D01*
X204714573Y-106183042D02*
G75*
G02*
X204715000Y-104816000I1535420J683041D01*
G01*
X205566958Y-103964573D02*
G75*
G02*
X206934000Y-103965000I683042J-1535427D01*
G01*
X206933042Y-107035427D02*
G75*
G02*
X205566000Y-107035000I-683041J1535420D01*
G01*
X207784756Y-104816682D02*
G75*
G02*
X207930000Y-105500000I-1534756J-683318D01*
G01*
X207930253Y-105471195D02*
G75*
G02*
X207785000Y-106184000I-1680254J-28806D01*
G01*
X207930000Y-50500000D02*
G75*
G02*
X204570000Y-50500000I-1680000J0D01*
G01*
X204570000Y-50500000D02*
G75*
G02*
X207930000Y-50500000I1680000J0D01*
G01*
X207930000Y-55500000D02*
G75*
G02*
X204570000Y-55500000I-1680000J0D01*
G01*
X204570000Y-55500000D02*
G75*
G02*
X207930000Y-55500000I1680000J0D01*
G01*
X207930000Y-60500000D02*
G75*
G02*
X204570000Y-60500000I-1680000J0D01*
G01*
X204570000Y-60500000D02*
G75*
G02*
X207930000Y-60500000I1680000J0D01*
G01*
X207930000Y-65500000D02*
G75*
G02*
X204570000Y-65500000I-1680000J0D01*
G01*
X204570000Y-65500000D02*
G75*
G02*
X207930000Y-65500000I1680000J0D01*
G01*
X207930000Y-70500000D02*
G75*
G02*
X204570000Y-70500000I-1680000J0D01*
G01*
X204570000Y-70500000D02*
G75*
G02*
X207930000Y-70500000I1680000J0D01*
G01*
X207930000Y-75500000D02*
G75*
G02*
X204570000Y-75500000I-1680000J0D01*
G01*
X204570000Y-75500000D02*
G75*
G02*
X207930000Y-75500000I1680000J0D01*
G01*
X207930000Y-80500000D02*
G75*
G02*
X204570000Y-80500000I-1680000J0D01*
G01*
X204570000Y-80500000D02*
G75*
G02*
X207930000Y-80500000I1680000J0D01*
G01*
X207930000Y-85500000D02*
G75*
G02*
X204570000Y-85500000I-1680000J0D01*
G01*
X204570000Y-85500000D02*
G75*
G02*
X207930000Y-85500000I1680000J0D01*
G01*
X207930000Y-90500000D02*
G75*
G02*
X204570000Y-90500000I-1680000J0D01*
G01*
X204570000Y-90500000D02*
G75*
G02*
X207930000Y-90500000I1680000J0D01*
G01*
X207930000Y-95500000D02*
G75*
G02*
X204570000Y-95500000I-1680000J0D01*
G01*
X204570000Y-95500000D02*
G75*
G02*
X207930000Y-95500000I1680000J0D01*
G01*
X207930000Y-100500000D02*
G75*
G02*
X204570000Y-100500000I-1680000J0D01*
G01*
X204570000Y-100500000D02*
G75*
G02*
X207930000Y-100500000I1680000J0D01*
G01*
%TO.C,C3*%
X138630000Y-58380000D02*
X138630000Y-65120000D01*
X138630000Y-58380000D02*
X146370000Y-58380000D01*
X138630000Y-65120000D02*
X146370000Y-65120000D01*
X146370000Y-58380000D02*
X146370000Y-65120000D01*
%TO.C,C2*%
X188380000Y-43630000D02*
X188380000Y-50370000D01*
X188380000Y-43630000D02*
X196120000Y-43630000D01*
X188380000Y-50370000D02*
X196120000Y-50370000D01*
X196120000Y-43630000D02*
X196120000Y-50370000D01*
%TO.C,D8*%
X136950000Y-91000000D02*
X138250000Y-91000000D01*
X138250000Y-88215000D02*
X138250000Y-93785000D01*
X138250000Y-93785000D02*
X148010000Y-93785000D01*
X146342000Y-93785000D02*
X146342000Y-88215000D01*
X146462000Y-93785000D02*
X146462000Y-88215000D01*
X146582000Y-93785000D02*
X146582000Y-88215000D01*
X148010000Y-88215000D02*
X138250000Y-88215000D01*
X148010000Y-93785000D02*
X148010000Y-88215000D01*
X149310000Y-91000000D02*
X148010000Y-91000000D01*
%TO.C,D3*%
X182450000Y-107110000D02*
X183750000Y-107110000D01*
X183750000Y-104325000D02*
X183750000Y-109895000D01*
X183750000Y-109895000D02*
X193510000Y-109895000D01*
X185178000Y-104325000D02*
X185178000Y-109895000D01*
X185298000Y-104325000D02*
X185298000Y-109895000D01*
X185418000Y-104325000D02*
X185418000Y-109895000D01*
X193510000Y-104325000D02*
X183750000Y-104325000D01*
X193510000Y-109895000D02*
X193510000Y-104325000D01*
X194810000Y-107110000D02*
X193510000Y-107110000D01*
%TO.C,J3*%
X155200000Y-118410000D02*
X155200000Y-119150000D01*
X155200000Y-119150000D02*
X155700000Y-119150000D01*
X155440000Y-108989000D02*
X155440000Y-118910000D01*
X155440000Y-108989000D02*
X175561000Y-108989000D01*
X155440000Y-111949000D02*
X175561000Y-111949000D01*
X155440000Y-116850000D02*
X175561000Y-116850000D01*
X155440000Y-118350000D02*
X175561000Y-118350000D01*
X155440000Y-118910000D02*
X175561000Y-118910000D01*
X161773000Y-115273000D02*
X161726000Y-115319000D01*
X161966000Y-115489000D02*
X161931000Y-115524000D01*
X164070000Y-112975000D02*
X164035000Y-113011000D01*
X164275000Y-113181000D02*
X164228000Y-113227000D01*
X166773000Y-115273000D02*
X166726000Y-115319000D01*
X166966000Y-115489000D02*
X166931000Y-115524000D01*
X169070000Y-112975000D02*
X169035000Y-113011000D01*
X169275000Y-113181000D02*
X169228000Y-113227000D01*
X171773000Y-115273000D02*
X171726000Y-115319000D01*
X171966000Y-115489000D02*
X171931000Y-115524000D01*
X174070000Y-112975000D02*
X174035000Y-113011000D01*
X174275000Y-113181000D02*
X174228000Y-113227000D01*
X175561000Y-108989000D02*
X175561000Y-118910000D01*
X156464573Y-114933042D02*
G75*
G02*
X156465000Y-113566000I1535420J683041D01*
G01*
X157316958Y-112714573D02*
G75*
G02*
X158684000Y-112715000I683041J-1535420D01*
G01*
X158028805Y-115930253D02*
G75*
G02*
X157316000Y-115785000I-28806J1680254D01*
G01*
X158683318Y-115784756D02*
G75*
G02*
X158000000Y-115930000I-683318J1534756D01*
G01*
X159535427Y-113566958D02*
G75*
G02*
X159535000Y-114934000I-1535427J-683042D01*
G01*
X164680000Y-114250000D02*
G75*
G02*
X161320000Y-114250000I-1680000J0D01*
G01*
X161320000Y-114250000D02*
G75*
G02*
X164680000Y-114250000I1680000J0D01*
G01*
X169680000Y-114250000D02*
G75*
G02*
X166320000Y-114250000I-1680000J0D01*
G01*
X166320000Y-114250000D02*
G75*
G02*
X169680000Y-114250000I1680000J0D01*
G01*
X174680000Y-114250000D02*
G75*
G02*
X171320000Y-114250000I-1680000J0D01*
G01*
X171320000Y-114250000D02*
G75*
G02*
X174680000Y-114250000I1680000J0D01*
G01*
%TO.C,J2*%
X154820000Y-53761000D02*
X154820000Y-43840000D01*
X156145000Y-49569000D02*
X156192000Y-49523000D01*
X156350000Y-49775000D02*
X156385000Y-49739000D01*
X158454000Y-47261000D02*
X158489000Y-47226000D01*
X158647000Y-47477000D02*
X158694000Y-47431000D01*
X165100000Y-43840000D02*
X154820000Y-43840000D01*
X165100000Y-44400000D02*
X154820000Y-44400000D01*
X165100000Y-45900000D02*
X154820000Y-45900000D01*
X165100000Y-50801000D02*
X154820000Y-50801000D01*
X165100000Y-53761000D02*
X154820000Y-53761000D01*
X165100000Y-53761000D02*
X165100000Y-43840000D01*
X165340000Y-43600000D02*
X164840000Y-43600000D01*
X165340000Y-44340000D02*
X165340000Y-43600000D01*
X160964573Y-49183042D02*
G75*
G02*
X160965000Y-47816000I1535427J683042D01*
G01*
X161816682Y-46965244D02*
G75*
G02*
X162500000Y-46820000I683318J-1534756D01*
G01*
X162471195Y-46819747D02*
G75*
G02*
X163184000Y-46965000I28806J-1680254D01*
G01*
X163183042Y-50035427D02*
G75*
G02*
X161816000Y-50035000I-683041J1535420D01*
G01*
X164035427Y-47816958D02*
G75*
G02*
X164035000Y-49184000I-1535420J-683041D01*
G01*
X159100000Y-48500000D02*
G75*
G02*
X155740000Y-48500000I-1680000J0D01*
G01*
X155740000Y-48500000D02*
G75*
G02*
X159100000Y-48500000I1680000J0D01*
G01*
%TO.C,J1*%
X140820000Y-53761000D02*
X140820000Y-43840000D01*
X142145000Y-49569000D02*
X142192000Y-49523000D01*
X142350000Y-49775000D02*
X142385000Y-49739000D01*
X144454000Y-47261000D02*
X144489000Y-47226000D01*
X144647000Y-47477000D02*
X144694000Y-47431000D01*
X151100000Y-43840000D02*
X140820000Y-43840000D01*
X151100000Y-44400000D02*
X140820000Y-44400000D01*
X151100000Y-45900000D02*
X140820000Y-45900000D01*
X151100000Y-50801000D02*
X140820000Y-50801000D01*
X151100000Y-53761000D02*
X140820000Y-53761000D01*
X151100000Y-53761000D02*
X151100000Y-43840000D01*
X151340000Y-43600000D02*
X150840000Y-43600000D01*
X151340000Y-44340000D02*
X151340000Y-43600000D01*
X146964573Y-49183042D02*
G75*
G02*
X146965000Y-47816000I1535427J683042D01*
G01*
X147816682Y-46965244D02*
G75*
G02*
X148500000Y-46820000I683318J-1534756D01*
G01*
X148471195Y-46819747D02*
G75*
G02*
X149184000Y-46965000I28806J-1680254D01*
G01*
X149183042Y-50035427D02*
G75*
G02*
X147816000Y-50035000I-683041J1535420D01*
G01*
X150035427Y-47816958D02*
G75*
G02*
X150035000Y-49184000I-1535420J-683041D01*
G01*
X145100000Y-48500000D02*
G75*
G02*
X141740000Y-48500000I-1680000J0D01*
G01*
X141740000Y-48500000D02*
G75*
G02*
X145100000Y-48500000I1680000J0D01*
G01*
%TO.C,C4*%
X170415431Y-44535000D02*
X171715431Y-44535000D01*
X171065431Y-43885000D02*
X171065431Y-45185000D01*
X177500000Y-41670000D02*
X177500000Y-54830000D01*
X177540000Y-41670000D02*
X177540000Y-54830000D01*
X177580000Y-41670000D02*
X177580000Y-54830000D01*
X177620000Y-41671000D02*
X177620000Y-54829000D01*
X177660000Y-41671000D02*
X177660000Y-54829000D01*
X177700000Y-41673000D02*
X177700000Y-54827000D01*
X177740000Y-41674000D02*
X177740000Y-54826000D01*
X177780000Y-41675000D02*
X177780000Y-54825000D01*
X177820000Y-41677000D02*
X177820000Y-54823000D01*
X177860000Y-41679000D02*
X177860000Y-54821000D01*
X177900000Y-41682000D02*
X177900000Y-54818000D01*
X177940000Y-41684000D02*
X177940000Y-54816000D01*
X177980000Y-41687000D02*
X177980000Y-54813000D01*
X178020000Y-41690000D02*
X178020000Y-54810000D01*
X178060000Y-41693000D02*
X178060000Y-54807000D01*
X178100000Y-41697000D02*
X178100000Y-54803000D01*
X178140000Y-41701000D02*
X178140000Y-54799000D01*
X178180000Y-41705000D02*
X178180000Y-54795000D01*
X178221000Y-41709000D02*
X178221000Y-54791000D01*
X178261000Y-41713000D02*
X178261000Y-54787000D01*
X178301000Y-41718000D02*
X178301000Y-54782000D01*
X178341000Y-41723000D02*
X178341000Y-54777000D01*
X178381000Y-41728000D02*
X178381000Y-54772000D01*
X178421000Y-41734000D02*
X178421000Y-54766000D01*
X178461000Y-41739000D02*
X178461000Y-54761000D01*
X178501000Y-41745000D02*
X178501000Y-54755000D01*
X178541000Y-41752000D02*
X178541000Y-54748000D01*
X178581000Y-41758000D02*
X178581000Y-46810000D01*
X178581000Y-49690000D02*
X178581000Y-54742000D01*
X178621000Y-41765000D02*
X178621000Y-46810000D01*
X178621000Y-49690000D02*
X178621000Y-54735000D01*
X178661000Y-41772000D02*
X178661000Y-46810000D01*
X178661000Y-49690000D02*
X178661000Y-54728000D01*
X178701000Y-41779000D02*
X178701000Y-46810000D01*
X178701000Y-49690000D02*
X178701000Y-54721000D01*
X178741000Y-41787000D02*
X178741000Y-46810000D01*
X178741000Y-49690000D02*
X178741000Y-54713000D01*
X178781000Y-41794000D02*
X178781000Y-46810000D01*
X178781000Y-49690000D02*
X178781000Y-54706000D01*
X178821000Y-41802000D02*
X178821000Y-46810000D01*
X178821000Y-49690000D02*
X178821000Y-54698000D01*
X178861000Y-41811000D02*
X178861000Y-46810000D01*
X178861000Y-49690000D02*
X178861000Y-54689000D01*
X178901000Y-41819000D02*
X178901000Y-46810000D01*
X178901000Y-49690000D02*
X178901000Y-54681000D01*
X178941000Y-41828000D02*
X178941000Y-46810000D01*
X178941000Y-49690000D02*
X178941000Y-54672000D01*
X178981000Y-41837000D02*
X178981000Y-46810000D01*
X178981000Y-49690000D02*
X178981000Y-54663000D01*
X179021000Y-41846000D02*
X179021000Y-46810000D01*
X179021000Y-49690000D02*
X179021000Y-54654000D01*
X179061000Y-41856000D02*
X179061000Y-46810000D01*
X179061000Y-49690000D02*
X179061000Y-54644000D01*
X179101000Y-41866000D02*
X179101000Y-46810000D01*
X179101000Y-49690000D02*
X179101000Y-54634000D01*
X179141000Y-41876000D02*
X179141000Y-46810000D01*
X179141000Y-49690000D02*
X179141000Y-54624000D01*
X179181000Y-41886000D02*
X179181000Y-46810000D01*
X179181000Y-49690000D02*
X179181000Y-54614000D01*
X179221000Y-41897000D02*
X179221000Y-46810000D01*
X179221000Y-49690000D02*
X179221000Y-54603000D01*
X179261000Y-41908000D02*
X179261000Y-46810000D01*
X179261000Y-49690000D02*
X179261000Y-54592000D01*
X179301000Y-41919000D02*
X179301000Y-46810000D01*
X179301000Y-49690000D02*
X179301000Y-54581000D01*
X179341000Y-41930000D02*
X179341000Y-46810000D01*
X179341000Y-49690000D02*
X179341000Y-54570000D01*
X179381000Y-41942000D02*
X179381000Y-46810000D01*
X179381000Y-49690000D02*
X179381000Y-54558000D01*
X179421000Y-41954000D02*
X179421000Y-46810000D01*
X179421000Y-49690000D02*
X179421000Y-54546000D01*
X179461000Y-41966000D02*
X179461000Y-46810000D01*
X179461000Y-49690000D02*
X179461000Y-54534000D01*
X179501000Y-41979000D02*
X179501000Y-46810000D01*
X179501000Y-49690000D02*
X179501000Y-54521000D01*
X179541000Y-41992000D02*
X179541000Y-46810000D01*
X179541000Y-49690000D02*
X179541000Y-54508000D01*
X179581000Y-42005000D02*
X179581000Y-46810000D01*
X179581000Y-49690000D02*
X179581000Y-54495000D01*
X179621000Y-42018000D02*
X179621000Y-46810000D01*
X179621000Y-49690000D02*
X179621000Y-54482000D01*
X179661000Y-42032000D02*
X179661000Y-46810000D01*
X179661000Y-49690000D02*
X179661000Y-54468000D01*
X179701000Y-42046000D02*
X179701000Y-46810000D01*
X179701000Y-49690000D02*
X179701000Y-54454000D01*
X179741000Y-42060000D02*
X179741000Y-46810000D01*
X179741000Y-49690000D02*
X179741000Y-54440000D01*
X179781000Y-42075000D02*
X179781000Y-46810000D01*
X179781000Y-49690000D02*
X179781000Y-54425000D01*
X179821000Y-42089000D02*
X179821000Y-46810000D01*
X179821000Y-49690000D02*
X179821000Y-54411000D01*
X179861000Y-42104000D02*
X179861000Y-46810000D01*
X179861000Y-49690000D02*
X179861000Y-54396000D01*
X179901000Y-42120000D02*
X179901000Y-46810000D01*
X179901000Y-49690000D02*
X179901000Y-54380000D01*
X179941000Y-42136000D02*
X179941000Y-46810000D01*
X179941000Y-49690000D02*
X179941000Y-54364000D01*
X179981000Y-42152000D02*
X179981000Y-46810000D01*
X179981000Y-49690000D02*
X179981000Y-54348000D01*
X180021000Y-42168000D02*
X180021000Y-46810000D01*
X180021000Y-49690000D02*
X180021000Y-54332000D01*
X180061000Y-42185000D02*
X180061000Y-46810000D01*
X180061000Y-49690000D02*
X180061000Y-54315000D01*
X180101000Y-42201000D02*
X180101000Y-46810000D01*
X180101000Y-49690000D02*
X180101000Y-54299000D01*
X180141000Y-42219000D02*
X180141000Y-46810000D01*
X180141000Y-49690000D02*
X180141000Y-54281000D01*
X180181000Y-42236000D02*
X180181000Y-46810000D01*
X180181000Y-49690000D02*
X180181000Y-54264000D01*
X180221000Y-42254000D02*
X180221000Y-46810000D01*
X180221000Y-49690000D02*
X180221000Y-54246000D01*
X180261000Y-42272000D02*
X180261000Y-46810000D01*
X180261000Y-49690000D02*
X180261000Y-54228000D01*
X180301000Y-42291000D02*
X180301000Y-46810000D01*
X180301000Y-49690000D02*
X180301000Y-54209000D01*
X180341000Y-42310000D02*
X180341000Y-46810000D01*
X180341000Y-49690000D02*
X180341000Y-54190000D01*
X180381000Y-42329000D02*
X180381000Y-46810000D01*
X180381000Y-49690000D02*
X180381000Y-54171000D01*
X180421000Y-42348000D02*
X180421000Y-46810000D01*
X180421000Y-49690000D02*
X180421000Y-54152000D01*
X180461000Y-42368000D02*
X180461000Y-46810000D01*
X180461000Y-49690000D02*
X180461000Y-54132000D01*
X180501000Y-42388000D02*
X180501000Y-46810000D01*
X180501000Y-49690000D02*
X180501000Y-54112000D01*
X180541000Y-42409000D02*
X180541000Y-46810000D01*
X180541000Y-49690000D02*
X180541000Y-54091000D01*
X180581000Y-42430000D02*
X180581000Y-46810000D01*
X180581000Y-49690000D02*
X180581000Y-54070000D01*
X180621000Y-42451000D02*
X180621000Y-46810000D01*
X180621000Y-49690000D02*
X180621000Y-54049000D01*
X180661000Y-42472000D02*
X180661000Y-46810000D01*
X180661000Y-49690000D02*
X180661000Y-54028000D01*
X180701000Y-42494000D02*
X180701000Y-46810000D01*
X180701000Y-49690000D02*
X180701000Y-54006000D01*
X180741000Y-42517000D02*
X180741000Y-46810000D01*
X180741000Y-49690000D02*
X180741000Y-53983000D01*
X180781000Y-42539000D02*
X180781000Y-46810000D01*
X180781000Y-49690000D02*
X180781000Y-53961000D01*
X180821000Y-42562000D02*
X180821000Y-46810000D01*
X180821000Y-49690000D02*
X180821000Y-53938000D01*
X180861000Y-42586000D02*
X180861000Y-46810000D01*
X180861000Y-49690000D02*
X180861000Y-53914000D01*
X180901000Y-42609000D02*
X180901000Y-46810000D01*
X180901000Y-49690000D02*
X180901000Y-53891000D01*
X180941000Y-42633000D02*
X180941000Y-46810000D01*
X180941000Y-49690000D02*
X180941000Y-53867000D01*
X180981000Y-42658000D02*
X180981000Y-46810000D01*
X180981000Y-49690000D02*
X180981000Y-53842000D01*
X181021000Y-42683000D02*
X181021000Y-46810000D01*
X181021000Y-49690000D02*
X181021000Y-53817000D01*
X181061000Y-42708000D02*
X181061000Y-46810000D01*
X181061000Y-49690000D02*
X181061000Y-53792000D01*
X181101000Y-42734000D02*
X181101000Y-46810000D01*
X181101000Y-49690000D02*
X181101000Y-53766000D01*
X181141000Y-42760000D02*
X181141000Y-46810000D01*
X181141000Y-49690000D02*
X181141000Y-53740000D01*
X181181000Y-42787000D02*
X181181000Y-46810000D01*
X181181000Y-49690000D02*
X181181000Y-53713000D01*
X181221000Y-42814000D02*
X181221000Y-46810000D01*
X181221000Y-49690000D02*
X181221000Y-53686000D01*
X181261000Y-42841000D02*
X181261000Y-46810000D01*
X181261000Y-49690000D02*
X181261000Y-53659000D01*
X181301000Y-42869000D02*
X181301000Y-46810000D01*
X181301000Y-49690000D02*
X181301000Y-53631000D01*
X181341000Y-42897000D02*
X181341000Y-46810000D01*
X181341000Y-49690000D02*
X181341000Y-53603000D01*
X181381000Y-42926000D02*
X181381000Y-46810000D01*
X181381000Y-49690000D02*
X181381000Y-53574000D01*
X181421000Y-42955000D02*
X181421000Y-46810000D01*
X181421000Y-49690000D02*
X181421000Y-53545000D01*
X181461000Y-42985000D02*
X181461000Y-53515000D01*
X181501000Y-43015000D02*
X181501000Y-53485000D01*
X181541000Y-43045000D02*
X181541000Y-53455000D01*
X181581000Y-43076000D02*
X181581000Y-53424000D01*
X181621000Y-43108000D02*
X181621000Y-53392000D01*
X181661000Y-43140000D02*
X181661000Y-53360000D01*
X181701000Y-43172000D02*
X181701000Y-53328000D01*
X181741000Y-43206000D02*
X181741000Y-53294000D01*
X181781000Y-43239000D02*
X181781000Y-53261000D01*
X181821000Y-43273000D02*
X181821000Y-53227000D01*
X181861000Y-43308000D02*
X181861000Y-53192000D01*
X181901000Y-43343000D02*
X181901000Y-53157000D01*
X181941000Y-43379000D02*
X181941000Y-53121000D01*
X181981000Y-43416000D02*
X181981000Y-53084000D01*
X182021000Y-43453000D02*
X182021000Y-53047000D01*
X182061000Y-43490000D02*
X182061000Y-53010000D01*
X182101000Y-43529000D02*
X182101000Y-52971000D01*
X182141000Y-43568000D02*
X182141000Y-52932000D01*
X182181000Y-43607000D02*
X182181000Y-52893000D01*
X182221000Y-43648000D02*
X182221000Y-52852000D01*
X182261000Y-43689000D02*
X182261000Y-52811000D01*
X182301000Y-43731000D02*
X182301000Y-52769000D01*
X182341000Y-43773000D02*
X182341000Y-52727000D01*
X182381000Y-43816000D02*
X182381000Y-52684000D01*
X182421000Y-43860000D02*
X182421000Y-52640000D01*
X182461000Y-43905000D02*
X182461000Y-52595000D01*
X182501000Y-43951000D02*
X182501000Y-52549000D01*
X182541000Y-43997000D02*
X182541000Y-52503000D01*
X182581000Y-44045000D02*
X182581000Y-52455000D01*
X182621000Y-44093000D02*
X182621000Y-52407000D01*
X182661000Y-44142000D02*
X182661000Y-52358000D01*
X182701000Y-44193000D02*
X182701000Y-52307000D01*
X182741000Y-44244000D02*
X182741000Y-52256000D01*
X182781000Y-44296000D02*
X182781000Y-52204000D01*
X182821000Y-44350000D02*
X182821000Y-52150000D01*
X182861000Y-44404000D02*
X182861000Y-52096000D01*
X182901000Y-44460000D02*
X182901000Y-52040000D01*
X182941000Y-44517000D02*
X182941000Y-51983000D01*
X182981000Y-44575000D02*
X182981000Y-51925000D01*
X183021000Y-44635000D02*
X183021000Y-51865000D01*
X183061000Y-44696000D02*
X183061000Y-51804000D01*
X183101000Y-44759000D02*
X183101000Y-51741000D01*
X183141000Y-44823000D02*
X183141000Y-51677000D01*
X183181000Y-44889000D02*
X183181000Y-51611000D01*
X183221000Y-44957000D02*
X183221000Y-51543000D01*
X183261000Y-45027000D02*
X183261000Y-51473000D01*
X183301000Y-45098000D02*
X183301000Y-51402000D01*
X183341000Y-45172000D02*
X183341000Y-51328000D01*
X183381000Y-45248000D02*
X183381000Y-51252000D01*
X183421000Y-45327000D02*
X183421000Y-51173000D01*
X183461000Y-45408000D02*
X183461000Y-51092000D01*
X183501000Y-45492000D02*
X183501000Y-51008000D01*
X183541000Y-45580000D02*
X183541000Y-50920000D01*
X183581000Y-45671000D02*
X183581000Y-50829000D01*
X183621000Y-45766000D02*
X183621000Y-50734000D01*
X183661000Y-45865000D02*
X183661000Y-50635000D01*
X183701000Y-45969000D02*
X183701000Y-50531000D01*
X183741000Y-46079000D02*
X183741000Y-50421000D01*
X183781000Y-46195000D02*
X183781000Y-50305000D01*
X183821000Y-46319000D02*
X183821000Y-50181000D01*
X183861000Y-46452000D02*
X183861000Y-50048000D01*
X183901000Y-46597000D02*
X183901000Y-49903000D01*
X183941000Y-46756000D02*
X183941000Y-49744000D01*
X183981000Y-46935000D02*
X183981000Y-49565000D01*
X184021000Y-47143000D02*
X184021000Y-49357000D01*
X184061000Y-47400000D02*
X184061000Y-49100000D01*
X184101000Y-47775000D02*
X184101000Y-48725000D01*
X184120000Y-48250000D02*
G75*
G02*
X170880000Y-48250000I-6620000J0D01*
G01*
X170880000Y-48250000D02*
G75*
G02*
X184120000Y-48250000I6620000J0D01*
G01*
%TO.C,Rs2*%
X167130000Y-88810000D02*
X167130000Y-100950000D01*
X167130000Y-100950000D02*
X171870000Y-100950000D01*
X169500000Y-88700000D02*
X169500000Y-88810000D01*
X169500000Y-101060000D02*
X169500000Y-100950000D01*
X171870000Y-88810000D02*
X167130000Y-88810000D01*
X171870000Y-100950000D02*
X171870000Y-88810000D01*
D15*
%TO.C,U3*%
X153190000Y-65550000D02*
X153190000Y-70550000D01*
X153190000Y-70550000D02*
X173390000Y-70550000D01*
X173390000Y-70550000D02*
X173390000Y-65550000D01*
D10*
X172280000Y-59330000D02*
G75*
G02*
X172080000Y-59330000I-100000J0D01*
G01*
X172080000Y-59330000D02*
G75*
G02*
X172280000Y-59330000I100000J0D01*
G01*
D14*
%TO.C,D1*%
X182450000Y-91000000D02*
X183750000Y-91000000D01*
X183750000Y-88215000D02*
X183750000Y-93785000D01*
X183750000Y-93785000D02*
X193510000Y-93785000D01*
X185178000Y-88215000D02*
X185178000Y-93785000D01*
X185298000Y-88215000D02*
X185298000Y-93785000D01*
X185418000Y-88215000D02*
X185418000Y-93785000D01*
X193510000Y-88215000D02*
X183750000Y-88215000D01*
X193510000Y-93785000D02*
X193510000Y-88215000D01*
X194810000Y-91000000D02*
X193510000Y-91000000D01*
%TO.C,U1*%
X186190000Y-56310000D02*
X186190000Y-81830000D01*
X186190000Y-81830000D02*
X190690000Y-81830000D01*
X187440000Y-56310000D02*
X186190000Y-56310000D01*
X190690000Y-56310000D02*
X189440000Y-56310000D01*
X190690000Y-81830000D02*
X190690000Y-56310000D01*
X189440000Y-56310000D02*
G75*
G02*
X187440000Y-56310000I-1000000J0D01*
G01*
%TO.C,D5*%
X136950000Y-115000000D02*
X138250000Y-115000000D01*
X138250000Y-112215000D02*
X138250000Y-117785000D01*
X138250000Y-117785000D02*
X148010000Y-117785000D01*
X146342000Y-117785000D02*
X146342000Y-112215000D01*
X146462000Y-117785000D02*
X146462000Y-112215000D01*
X146582000Y-117785000D02*
X146582000Y-112215000D01*
X148010000Y-112215000D02*
X138250000Y-112215000D01*
X148010000Y-117785000D02*
X148010000Y-112215000D01*
X149310000Y-115000000D02*
X148010000Y-115000000D01*
%TO.C,D2*%
X182070000Y-99250000D02*
X183370000Y-99250000D01*
X183370000Y-96465000D02*
X183370000Y-102035000D01*
X183370000Y-102035000D02*
X193130000Y-102035000D01*
X184798000Y-96465000D02*
X184798000Y-102035000D01*
X184918000Y-96465000D02*
X184918000Y-102035000D01*
X185038000Y-96465000D02*
X185038000Y-102035000D01*
X193130000Y-96465000D02*
X183370000Y-96465000D01*
X193130000Y-102035000D02*
X193130000Y-96465000D01*
X194430000Y-99250000D02*
X193130000Y-99250000D01*
%TO.C,D7*%
X136570000Y-99250000D02*
X137870000Y-99250000D01*
X137870000Y-96465000D02*
X137870000Y-102035000D01*
X137870000Y-102035000D02*
X147630000Y-102035000D01*
X145962000Y-102035000D02*
X145962000Y-96465000D01*
X146082000Y-102035000D02*
X146082000Y-96465000D01*
X146202000Y-102035000D02*
X146202000Y-96465000D01*
X147630000Y-96465000D02*
X137870000Y-96465000D01*
X147630000Y-102035000D02*
X147630000Y-96465000D01*
X148930000Y-99250000D02*
X147630000Y-99250000D01*
%TO.C,D4*%
X182450000Y-115000000D02*
X183750000Y-115000000D01*
X183750000Y-112215000D02*
X183750000Y-117785000D01*
X183750000Y-117785000D02*
X193510000Y-117785000D01*
X185178000Y-112215000D02*
X185178000Y-117785000D01*
X185298000Y-112215000D02*
X185298000Y-117785000D01*
X185418000Y-112215000D02*
X185418000Y-117785000D01*
X193510000Y-112215000D02*
X183750000Y-112215000D01*
X193510000Y-117785000D02*
X193510000Y-112215000D01*
X194810000Y-115000000D02*
X193510000Y-115000000D01*
%TO.C,D6*%
X136950000Y-107110000D02*
X138250000Y-107110000D01*
X138250000Y-104325000D02*
X138250000Y-109895000D01*
X138250000Y-109895000D02*
X148010000Y-109895000D01*
X146342000Y-109895000D02*
X146342000Y-104325000D01*
X146462000Y-109895000D02*
X146462000Y-104325000D01*
X146582000Y-109895000D02*
X146582000Y-104325000D01*
X148010000Y-104325000D02*
X138250000Y-104325000D01*
X148010000Y-109895000D02*
X148010000Y-104325000D01*
X149310000Y-107110000D02*
X148010000Y-107110000D01*
%TO.C,R1*%
X144490000Y-80000000D02*
X145630000Y-80000000D01*
X145630000Y-75380000D02*
X145630000Y-84620000D01*
X145630000Y-84620000D02*
X165870000Y-84620000D01*
X165870000Y-75380000D02*
X145630000Y-75380000D01*
X165870000Y-84620000D02*
X165870000Y-75380000D01*
X167010000Y-80000000D02*
X165870000Y-80000000D01*
%TO.C,C1*%
X135380000Y-73120000D02*
X135380000Y-69880000D01*
X145620000Y-69880000D02*
X135380000Y-69880000D01*
X145620000Y-73120000D02*
X135380000Y-73120000D01*
X145620000Y-73120000D02*
X145620000Y-69880000D01*
%TD*%
M02*
