%TF.GenerationSoftware,KiCad,Pcbnew,8.0.4*%
%TF.CreationDate,2026-05-08T10:43:48+05:30*%
%TF.ProjectId,two phase bipolar stepper motor,74776f20-7068-4617-9365-206269706f6c,REV1*%
%TF.SameCoordinates,Original*%
%TF.FileFunction,Copper,L2,Bot*%
%TF.FilePolarity,Positive*%
%FSLAX46Y46*%
G04 Gerber Fmt 4.6, Leading zero omitted, Abs format (unit mm)*
G04 Created by KiCad (PCBNEW 8.0.4) date 2026-05-08 10:43:48*
%MOMM*%
%LPD*%
G01*
G04 APERTURE LIST*
%TA.AperFunction,ComponentPad*%
%ADD10C,2.400000*%
%TD*%
%TA.AperFunction,ComponentPad*%
%ADD11O,2.400000X2.400000*%
%TD*%
%TA.AperFunction,ComponentPad*%
%ADD12R,2.600000X2.600000*%
%TD*%
%TA.AperFunction,ComponentPad*%
%ADD13C,2.600000*%
%TD*%
%TA.AperFunction,ComponentPad*%
%ADD14C,1.600000*%
%TD*%
%TA.AperFunction,ComponentPad*%
%ADD15R,2.400000X2.400000*%
%TD*%
%TA.AperFunction,ComponentPad*%
%ADD16R,1.620000X1.620000*%
%TD*%
%TA.AperFunction,ComponentPad*%
%ADD17C,1.620000*%
%TD*%
%TA.AperFunction,ComponentPad*%
%ADD18R,2.400000X1.600000*%
%TD*%
%TA.AperFunction,ComponentPad*%
%ADD19O,2.400000X1.600000*%
%TD*%
%TA.AperFunction,ComponentPad*%
%ADD20C,2.000000*%
%TD*%
%TA.AperFunction,ViaPad*%
%ADD21C,0.800000*%
%TD*%
%TA.AperFunction,Conductor*%
%ADD22C,0.310000*%
%TD*%
G04 APERTURE END LIST*
D10*
%TO.P,Rs1,1*%
%TO.N,/Rs1*%
X163250000Y-102740000D03*
D11*
%TO.P,Rs1,2*%
%TO.N,GND*%
X163250000Y-87500000D03*
%TD*%
D12*
%TO.P,J4,1,Pin_1*%
%TO.N,GND*%
X206250000Y-105500000D03*
D13*
%TO.P,J4,2,Pin_2*%
%TO.N,/HALF*%
X206250000Y-100500000D03*
%TO.P,J4,3,Pin_3*%
%TO.N,/HOME*%
X206250000Y-95500000D03*
%TO.P,J4,4,Pin_4*%
%TO.N,/Vref*%
X206250000Y-90500000D03*
%TO.P,J4,5,Pin_5*%
%TO.N,/CLK*%
X206250000Y-85500000D03*
%TO.P,J4,6,Pin_6*%
%TO.N,/CW*%
X206250000Y-80500000D03*
%TO.P,J4,7,Pin_7*%
%TO.N,/ENA*%
X206250000Y-75500000D03*
%TO.P,J4,8,Pin_8*%
%TO.N,/RESET*%
X206250000Y-70500000D03*
%TO.P,J4,9,Pin_9*%
%TO.N,/CTRL*%
X206250000Y-65500000D03*
%TO.P,J4,10,Pin_10*%
%TO.N,/OSC*%
X206250000Y-60500000D03*
%TO.P,J4,11,Pin_11*%
%TO.N,/SYNC*%
X206250000Y-55500000D03*
%TO.P,J4,12,Pin_12*%
%TO.N,unconnected-(J4-Pin_12-Pad12)*%
X206250000Y-50500000D03*
%TD*%
D14*
%TO.P,C3,1*%
%TO.N,VS*%
X140000000Y-61750000D03*
%TO.P,C3,2*%
%TO.N,GND*%
X145000000Y-61750000D03*
%TD*%
%TO.P,C2,1*%
%TO.N,VSS*%
X189750000Y-47000000D03*
%TO.P,C2,2*%
%TO.N,GND*%
X194750000Y-47000000D03*
%TD*%
D15*
%TO.P,D8,1,K*%
%TO.N,Net-(D4-A)*%
X150750000Y-91000000D03*
D11*
%TO.P,D8,2,A*%
%TO.N,GND*%
X135510000Y-91000000D03*
%TD*%
D15*
%TO.P,D3,1,K*%
%TO.N,VS*%
X181010000Y-107110000D03*
D11*
%TO.P,D3,2,A*%
%TO.N,Net-(D3-A)*%
X196250000Y-107110000D03*
%TD*%
D12*
%TO.P,J3,1,Pin_1*%
%TO.N,Net-(D1-A)*%
X158000000Y-114250000D03*
D13*
%TO.P,J3,2,Pin_2*%
%TO.N,Net-(D2-A)*%
X163000000Y-114250000D03*
%TO.P,J3,3,Pin_3*%
%TO.N,Net-(D3-A)*%
X168000000Y-114250000D03*
%TO.P,J3,4,Pin_4*%
%TO.N,Net-(D4-A)*%
X173000000Y-114250000D03*
%TD*%
D12*
%TO.P,J2,1,Pin_1*%
%TO.N,VS*%
X162500000Y-48500000D03*
D13*
%TO.P,J2,2,Pin_2*%
%TO.N,GND*%
X157420000Y-48500000D03*
%TD*%
D12*
%TO.P,J1,1,Pin_1*%
%TO.N,VSS*%
X148500000Y-48500000D03*
D13*
%TO.P,J1,2,Pin_2*%
%TO.N,GND*%
X143420000Y-48500000D03*
%TD*%
D15*
%TO.P,C4,1*%
%TO.N,VS*%
X175000000Y-48250000D03*
D10*
%TO.P,C4,2*%
%TO.N,GND*%
X180000000Y-48250000D03*
%TD*%
%TO.P,Rs2,1*%
%TO.N,/Rs2*%
X169500000Y-102500000D03*
D11*
%TO.P,Rs2,2*%
%TO.N,GND*%
X169500000Y-87260000D03*
%TD*%
D16*
%TO.P,U3,1,SENSE_A*%
%TO.N,/Rs1*%
X172180000Y-60920000D03*
D17*
%TO.P,U3,2,OUT1*%
%TO.N,Net-(D1-A)*%
X170910000Y-66000000D03*
%TO.P,U3,3,OUT2*%
%TO.N,Net-(D2-A)*%
X169640000Y-60920000D03*
%TO.P,U3,4,VS*%
%TO.N,VS*%
X168370000Y-66000000D03*
%TO.P,U3,5,IN1*%
%TO.N,Net-(U1-A)*%
X167100000Y-60920000D03*
%TO.P,U3,6,ENA*%
%TO.N,Net-(U1-INH1)*%
X165830000Y-66000000D03*
%TO.P,U3,7,IN2*%
%TO.N,Net-(U1-B)*%
X164560000Y-60920000D03*
%TO.P,U3,8,GND*%
%TO.N,GND*%
X163290000Y-66000000D03*
%TO.P,U3,9,VSS*%
%TO.N,VSS*%
X162020000Y-60920000D03*
%TO.P,U3,10,IN3*%
%TO.N,Net-(U1-C)*%
X160750000Y-66000000D03*
%TO.P,U3,11,ENB*%
%TO.N,Net-(U1-INH2)*%
X159480000Y-60920000D03*
%TO.P,U3,12,IN4*%
%TO.N,Net-(U1-D)*%
X158210000Y-66000000D03*
%TO.P,U3,13,OUT3*%
%TO.N,Net-(D3-A)*%
X156940000Y-60920000D03*
%TO.P,U3,14,OUT4*%
%TO.N,Net-(D4-A)*%
X155670000Y-66000000D03*
%TO.P,U3,15,SENSE_B*%
%TO.N,/Rs2*%
X154400000Y-60920000D03*
%TD*%
D15*
%TO.P,D1,1,K*%
%TO.N,VS*%
X181010000Y-91000000D03*
D11*
%TO.P,D1,2,A*%
%TO.N,Net-(D1-A)*%
X196250000Y-91000000D03*
%TD*%
D18*
%TO.P,U1,1,SYNC*%
%TO.N,/SYNC*%
X184630000Y-57640000D03*
D19*
%TO.P,U1,2,GND*%
%TO.N,GND*%
X184630000Y-60180000D03*
%TO.P,U1,3,HOME*%
%TO.N,/HOME*%
X184630000Y-62720000D03*
%TO.P,U1,4,A*%
%TO.N,Net-(U1-A)*%
X184630000Y-65260000D03*
%TO.P,U1,5,INH1*%
%TO.N,Net-(U1-INH1)*%
X184630000Y-67800000D03*
%TO.P,U1,6,B*%
%TO.N,Net-(U1-B)*%
X184630000Y-70340000D03*
%TO.P,U1,7,C*%
%TO.N,Net-(U1-C)*%
X184630000Y-72880000D03*
%TO.P,U1,8,INH2*%
%TO.N,Net-(U1-INH2)*%
X184630000Y-75420000D03*
%TO.P,U1,9,D*%
%TO.N,Net-(U1-D)*%
X184630000Y-77960000D03*
%TO.P,U1,10,ENABLE*%
%TO.N,/ENA*%
X184630000Y-80500000D03*
%TO.P,U1,11,CONTROL*%
%TO.N,/CTRL*%
X192250000Y-80500000D03*
%TO.P,U1,12,Vs*%
%TO.N,VS*%
X192250000Y-77960000D03*
%TO.P,U1,13,SENS2*%
%TO.N,/Rs2*%
X192250000Y-75420000D03*
%TO.P,U1,14,SENS1*%
%TO.N,/Rs1*%
X192250000Y-72880000D03*
%TO.P,U1,15,Vref*%
%TO.N,/Vref*%
X192250000Y-70340000D03*
%TO.P,U1,16,OSC*%
%TO.N,/OSC*%
X192250000Y-67800000D03*
%TO.P,U1,17,CW*%
%TO.N,/CW*%
X192250000Y-65260000D03*
%TO.P,U1,18,CLOCK*%
%TO.N,/CLK*%
X192250000Y-62720000D03*
%TO.P,U1,19,HALF*%
%TO.N,/HALF*%
X192250000Y-60180000D03*
%TO.P,U1,20,RESET*%
%TO.N,/RESET*%
X192250000Y-57640000D03*
%TD*%
D15*
%TO.P,D5,1,K*%
%TO.N,Net-(D1-A)*%
X150750000Y-115000000D03*
D11*
%TO.P,D5,2,A*%
%TO.N,GND*%
X135510000Y-115000000D03*
%TD*%
D15*
%TO.P,D2,1,K*%
%TO.N,VS*%
X180630000Y-99250000D03*
D11*
%TO.P,D2,2,A*%
%TO.N,Net-(D2-A)*%
X195870000Y-99250000D03*
%TD*%
D15*
%TO.P,D7,1,K*%
%TO.N,Net-(D3-A)*%
X150370000Y-99250000D03*
D11*
%TO.P,D7,2,A*%
%TO.N,GND*%
X135130000Y-99250000D03*
%TD*%
D15*
%TO.P,D4,1,K*%
%TO.N,VS*%
X181010000Y-115000000D03*
D11*
%TO.P,D4,2,A*%
%TO.N,Net-(D4-A)*%
X196250000Y-115000000D03*
%TD*%
D15*
%TO.P,D6,1,K*%
%TO.N,Net-(D2-A)*%
X150750000Y-107110000D03*
D11*
%TO.P,D6,2,A*%
%TO.N,GND*%
X135510000Y-107110000D03*
%TD*%
D10*
%TO.P,R1,1*%
%TO.N,/OSC*%
X143050000Y-80000000D03*
D11*
%TO.P,R1,2*%
%TO.N,VSS*%
X168450000Y-80000000D03*
%TD*%
D20*
%TO.P,C1,1*%
%TO.N,/OSC*%
X144250000Y-71500000D03*
%TO.P,C1,2*%
%TO.N,GND*%
X136750000Y-71500000D03*
%TD*%
D21*
%TO.N,/OSC*%
X165920000Y-73250000D03*
%TO.N,VS*%
X151250000Y-69750000D03*
X155568352Y-55181648D03*
X162000000Y-69000000D03*
%TO.N,Net-(D1-A)*%
X171000000Y-69940000D03*
X186716648Y-84716648D03*
%TO.N,Net-(D2-A)*%
X181500000Y-74000000D03*
X185341648Y-86091648D03*
%TO.N,Net-(D3-A)*%
X180145000Y-111250000D03*
X149750000Y-74115000D03*
X154388352Y-64111648D03*
%TO.N,Net-(D4-A)*%
X156000000Y-74250000D03*
X176085852Y-114085852D03*
%TO.N,/CW*%
X201750000Y-79750000D03*
%TO.N,/CLK*%
X199486648Y-74486648D03*
%TO.N,/RESET*%
X203486647Y-70486648D03*
%TO.N,/ENA*%
X203500000Y-79635000D03*
%TO.N,/Vref*%
X196986648Y-76986648D03*
%TO.N,/Rs1*%
X180000000Y-69940000D03*
X180638352Y-83861648D03*
X178500000Y-61250000D03*
X175436019Y-90563981D03*
%TO.N,/Rs2*%
X152750000Y-72250000D03*
X176220909Y-91348871D03*
%TO.N,Net-(U1-D)*%
X173500000Y-71000000D03*
%TO.N,Net-(U1-C)*%
X173500000Y-73250000D03*
X188000000Y-73000000D03*
X180635000Y-78250000D03*
%TO.N,Net-(U1-INH2)*%
X180500000Y-62000000D03*
%TD*%
D22*
%TO.N,GND*%
X193415000Y-92665000D02*
X206250000Y-105500000D01*
X174035000Y-92665000D02*
X193415000Y-92665000D01*
X169500000Y-88130000D02*
X174035000Y-92665000D01*
X169500000Y-87260000D02*
X169500000Y-88130000D01*
X169110000Y-87260000D02*
X169500000Y-87260000D01*
X163250000Y-87500000D02*
X168870000Y-87500000D01*
X168870000Y-87500000D02*
X169110000Y-87260000D01*
%TO.N,/Rs2*%
X152750000Y-72250000D02*
X152750000Y-89885334D01*
X152750000Y-89885334D02*
X165364666Y-102500000D01*
X165364666Y-102500000D02*
X169500000Y-102500000D01*
%TO.N,GND*%
X135510000Y-91000000D02*
X135510000Y-98870000D01*
X162015000Y-64725000D02*
X163290000Y-66000000D01*
X157420000Y-48500000D02*
X157210000Y-48710000D01*
X156290000Y-48710000D02*
X154735000Y-50265000D01*
X156225000Y-64725000D02*
X162015000Y-64725000D01*
X157420000Y-48500000D02*
X153125000Y-52795000D01*
X180000000Y-48250000D02*
X180000000Y-55940000D01*
X136750000Y-71500000D02*
X136750000Y-89760000D01*
X145185000Y-50265000D02*
X154735000Y-50265000D01*
X186295000Y-61845000D02*
X184630000Y-60180000D01*
X153125000Y-52795000D02*
X153125000Y-61625000D01*
X136750000Y-89760000D02*
X135510000Y-91000000D01*
X180000000Y-48250000D02*
X181200000Y-49450000D01*
X163290000Y-66000000D02*
X163290000Y-87340000D01*
X186295000Y-65955000D02*
X186295000Y-61845000D01*
X184240000Y-60180000D02*
X184630000Y-60180000D01*
X135510000Y-107110000D02*
X136710000Y-108310000D01*
X153125000Y-61625000D02*
X156225000Y-64725000D01*
X145000000Y-61750000D02*
X144750000Y-62000000D01*
X136710000Y-108310000D02*
X136710000Y-113800000D01*
X135510000Y-98870000D02*
X135130000Y-99250000D01*
X157210000Y-48710000D02*
X156290000Y-48710000D01*
X163290000Y-66000000D02*
X164565000Y-64725000D01*
X192300000Y-49450000D02*
X194750000Y-47000000D01*
X182408188Y-66535000D02*
X185715000Y-66535000D01*
X164565000Y-64725000D02*
X180598188Y-64725000D01*
X135130000Y-99250000D02*
X135130000Y-106730000D01*
X136710000Y-113800000D02*
X135510000Y-115000000D01*
X144750000Y-62000000D02*
X144750000Y-63500000D01*
X144750000Y-63500000D02*
X136750000Y-71500000D01*
X180598188Y-64725000D02*
X182408188Y-66535000D01*
X135130000Y-106730000D02*
X135510000Y-107110000D01*
X143420000Y-60170000D02*
X145000000Y-61750000D01*
X181200000Y-49450000D02*
X192300000Y-49450000D01*
X143420000Y-48500000D02*
X145185000Y-50265000D01*
X180000000Y-55940000D02*
X184240000Y-60180000D01*
X185715000Y-66535000D02*
X186295000Y-65955000D01*
X143420000Y-48500000D02*
X143420000Y-60170000D01*
%TO.N,/OSC*%
X190975000Y-69075000D02*
X192250000Y-67800000D01*
X165920000Y-73250000D02*
X170095000Y-69075000D01*
X170095000Y-69075000D02*
X190975000Y-69075000D01*
%TO.N,VS*%
X156358295Y-75115000D02*
X162000000Y-69473295D01*
X151473295Y-69750000D02*
X155050000Y-73326705D01*
X162250000Y-48500000D02*
X162500000Y-48500000D01*
X151250000Y-69750000D02*
X151473295Y-69750000D01*
X155050000Y-74550000D02*
X155615000Y-75115000D01*
X155615000Y-75115000D02*
X156358295Y-75115000D01*
X155568352Y-55181648D02*
X162250000Y-48500000D01*
X155050000Y-73326705D02*
X155050000Y-74550000D01*
X162000000Y-69473295D02*
X162000000Y-69000000D01*
%TO.N,Net-(D1-A)*%
X171000000Y-73000000D02*
X171000000Y-69940000D01*
X186716648Y-85939943D02*
X185699943Y-86956648D01*
X186716648Y-84716648D02*
X186716648Y-85939943D01*
X185699943Y-86956648D02*
X184956648Y-86956648D01*
X184956648Y-86956648D02*
X171000000Y-73000000D01*
%TO.N,Net-(D2-A)*%
X181500000Y-74000000D02*
X181500000Y-82250000D01*
X181500000Y-82250000D02*
X185341648Y-86091648D01*
%TO.N,Net-(D3-A)*%
X180145000Y-111250000D02*
X184285000Y-107110000D01*
X149750000Y-68750000D02*
X154388352Y-64111648D01*
X149750000Y-74115000D02*
X149750000Y-68750000D01*
X184285000Y-107110000D02*
X196250000Y-107110000D01*
%TO.N,Net-(D4-A)*%
X176085852Y-114085852D02*
X178665000Y-116665000D01*
X155670000Y-73920000D02*
X155670000Y-66000000D01*
X178665000Y-116665000D02*
X194585000Y-116665000D01*
X156000000Y-74250000D02*
X155670000Y-73920000D01*
X194585000Y-116665000D02*
X196250000Y-115000000D01*
%TO.N,/CW*%
X193915000Y-71128188D02*
X193915000Y-66925000D01*
X201750000Y-79750000D02*
X201750000Y-78963188D01*
X201750000Y-78963188D02*
X193915000Y-71128188D01*
X193915000Y-66925000D02*
X192250000Y-65260000D01*
%TO.N,/CLK*%
X199486648Y-69956648D02*
X192250000Y-62720000D01*
X199486648Y-74486648D02*
X199486648Y-69956648D01*
%TO.N,/RESET*%
X203486647Y-70486648D02*
X203486647Y-68876647D01*
X203486647Y-68876647D02*
X192250000Y-57640000D01*
%TO.N,/ENA*%
X193915000Y-76165000D02*
X193915000Y-74896020D01*
X193173980Y-74155000D02*
X190975000Y-74155000D01*
X202520000Y-80615000D02*
X198365000Y-80615000D01*
X198365000Y-80615000D02*
X193915000Y-76165000D01*
X190975000Y-74155000D02*
X184630000Y-80500000D01*
X193915000Y-74896020D02*
X193173980Y-74155000D01*
X203500000Y-79635000D02*
X202520000Y-80615000D01*
%TO.N,/Vref*%
X196986648Y-76986648D02*
X196986648Y-75076648D01*
X196986648Y-75076648D02*
X192250000Y-70340000D01*
%TO.N,/Rs1*%
X192250000Y-72880000D02*
X190975000Y-71605000D01*
X178170000Y-60920000D02*
X172180000Y-60920000D01*
X181660000Y-71605000D02*
X180000000Y-69945000D01*
X175436019Y-90563981D02*
X175436019Y-89063981D01*
X178500000Y-61250000D02*
X178170000Y-60920000D01*
X180000000Y-69945000D02*
X180000000Y-69940000D01*
X190975000Y-71605000D02*
X181660000Y-71605000D01*
X175436019Y-89063981D02*
X180638352Y-83861648D01*
%TO.N,/Rs2*%
X179993132Y-87576648D02*
X185956755Y-87576648D01*
X185956755Y-87576648D02*
X188750000Y-84783403D01*
X188750000Y-78920000D02*
X192250000Y-75420000D01*
X176220909Y-91348871D02*
X179993132Y-87576648D01*
X188750000Y-84783403D02*
X188750000Y-78920000D01*
%TO.N,Net-(U1-D)*%
X173500000Y-71000000D02*
X180000000Y-71000000D01*
X182965000Y-76295000D02*
X184630000Y-77960000D01*
X180000000Y-71000000D02*
X182965000Y-73965000D01*
X182965000Y-73965000D02*
X182965000Y-76295000D01*
%TO.N,Net-(U1-C)*%
X188000000Y-73000000D02*
X187250000Y-73000000D01*
X178500000Y-78250000D02*
X180635000Y-78250000D01*
X187130000Y-72880000D02*
X184630000Y-72880000D01*
X173500000Y-73250000D02*
X178500000Y-78250000D01*
X187250000Y-73000000D02*
X187130000Y-72880000D01*
%TO.N,Net-(U1-INH2)*%
X162485000Y-57915000D02*
X176415000Y-57915000D01*
X159480000Y-60920000D02*
X162485000Y-57915000D01*
X176415000Y-57915000D02*
X180500000Y-62000000D01*
%TO.N,Net-(U1-INH1)*%
X184535000Y-67895000D02*
X167725000Y-67895000D01*
X167725000Y-67895000D02*
X165830000Y-66000000D01*
X184630000Y-67800000D02*
X184535000Y-67895000D01*
%TO.N,Net-(U1-A)*%
X182010000Y-65260000D02*
X180750000Y-64000000D01*
X184630000Y-65260000D02*
X182010000Y-65260000D01*
X176250000Y-64000000D02*
X175250000Y-63000000D01*
X169180000Y-63000000D02*
X167100000Y-60920000D01*
X180750000Y-64000000D02*
X176250000Y-64000000D01*
X167836877Y-60920000D02*
X167100000Y-60920000D01*
X175250000Y-63000000D02*
X169180000Y-63000000D01*
%TD*%
%TA.AperFunction,NonConductor*%
G36*
X212030420Y-41269685D02*
G01*
X212030709Y-41269870D01*
X216218274Y-43979471D01*
X216263865Y-44032417D01*
X216264885Y-44034732D01*
X217739882Y-47476393D01*
X217749907Y-47525683D01*
X217500198Y-117194582D01*
X217480273Y-117261551D01*
X217458580Y-117286817D01*
X215284784Y-119219080D01*
X215221600Y-119248906D01*
X215203460Y-119250396D01*
X127317977Y-119999420D01*
X127250772Y-119980308D01*
X127212953Y-119943004D01*
X125233471Y-116897648D01*
X127719356Y-116897648D01*
X127719356Y-117102351D01*
X127751378Y-117304534D01*
X127814637Y-117499223D01*
X127907571Y-117681613D01*
X128027884Y-117847213D01*
X128172642Y-117991971D01*
X128323980Y-118101922D01*
X128338246Y-118112287D01*
X128454463Y-118171503D01*
X128520632Y-118205218D01*
X128520634Y-118205218D01*
X128520637Y-118205220D01*
X128624993Y-118239127D01*
X128715321Y-118268477D01*
X128816413Y-118284488D01*
X128917504Y-118300500D01*
X128917505Y-118300500D01*
X129122207Y-118300500D01*
X129122208Y-118300500D01*
X129324390Y-118268477D01*
X129519075Y-118205220D01*
X129701466Y-118112287D01*
X129794446Y-118044732D01*
X129867069Y-117991971D01*
X129867071Y-117991968D01*
X129867075Y-117991966D01*
X130011822Y-117847219D01*
X130011824Y-117847215D01*
X130011827Y-117847213D01*
X130064588Y-117774590D01*
X130132143Y-117681610D01*
X130225076Y-117499219D01*
X130288333Y-117304534D01*
X130320356Y-117102352D01*
X130320356Y-116897648D01*
X130288333Y-116695466D01*
X130287886Y-116694091D01*
X130243519Y-116557544D01*
X130225076Y-116500781D01*
X130225074Y-116500778D01*
X130225074Y-116500776D01*
X130184893Y-116421917D01*
X130132143Y-116318390D01*
X130115508Y-116295494D01*
X130011827Y-116152786D01*
X129867069Y-116008028D01*
X129701469Y-115887715D01*
X129701468Y-115887714D01*
X129701466Y-115887713D01*
X129644509Y-115858691D01*
X129519079Y-115794781D01*
X129324390Y-115731522D01*
X129147898Y-115703569D01*
X129122208Y-115699500D01*
X128917504Y-115699500D01*
X128893185Y-115703351D01*
X128715321Y-115731522D01*
X128520632Y-115794781D01*
X128338242Y-115887715D01*
X128172642Y-116008028D01*
X128027884Y-116152786D01*
X127907571Y-116318386D01*
X127814637Y-116500776D01*
X127751378Y-116695465D01*
X127719356Y-116897648D01*
X125233471Y-116897648D01*
X124020033Y-115030820D01*
X124000002Y-114963883D01*
X124000000Y-114963241D01*
X124000000Y-99249995D01*
X133424732Y-99249995D01*
X133424732Y-99250004D01*
X133443777Y-99504154D01*
X133492266Y-99716599D01*
X133500492Y-99752637D01*
X133593607Y-99989888D01*
X133721041Y-100210612D01*
X133879950Y-100409877D01*
X134066783Y-100583232D01*
X134277366Y-100726805D01*
X134404303Y-100787934D01*
X134456161Y-100834755D01*
X134474500Y-100899653D01*
X134474500Y-105696949D01*
X134454815Y-105763988D01*
X134434841Y-105787847D01*
X134259958Y-105950114D01*
X134259950Y-105950123D01*
X134101041Y-106149388D01*
X133973608Y-106370109D01*
X133880492Y-106607362D01*
X133880490Y-106607369D01*
X133823777Y-106855845D01*
X133804732Y-107109995D01*
X133804732Y-107110004D01*
X133823777Y-107364154D01*
X133871742Y-107574303D01*
X133880492Y-107612637D01*
X133973607Y-107849888D01*
X134101041Y-108070612D01*
X134259950Y-108269877D01*
X134446783Y-108443232D01*
X134657366Y-108586805D01*
X134657371Y-108586807D01*
X134657372Y-108586808D01*
X134657373Y-108586809D01*
X134779328Y-108645538D01*
X134886992Y-108697387D01*
X134886993Y-108697387D01*
X134886996Y-108697389D01*
X135130542Y-108772513D01*
X135382565Y-108810500D01*
X135637435Y-108810500D01*
X135889458Y-108772513D01*
X135893942Y-108771130D01*
X135963805Y-108770174D01*
X136023094Y-108807142D01*
X136052985Y-108870295D01*
X136054500Y-108889618D01*
X136054500Y-113220381D01*
X136034815Y-113287420D01*
X135982011Y-113333175D01*
X135912853Y-113343119D01*
X135893954Y-113338873D01*
X135889471Y-113337490D01*
X135889463Y-113337488D01*
X135889458Y-113337487D01*
X135768231Y-113319214D01*
X135637440Y-113299500D01*
X135637435Y-113299500D01*
X135382565Y-113299500D01*
X135382559Y-113299500D01*
X135225609Y-113323157D01*
X135130542Y-113337487D01*
X135130539Y-113337488D01*
X135130533Y-113337489D01*
X134886992Y-113412612D01*
X134657373Y-113523190D01*
X134657372Y-113523191D01*
X134446782Y-113666768D01*
X134259952Y-113840121D01*
X134259950Y-113840123D01*
X134101041Y-114039388D01*
X133973608Y-114260109D01*
X133880492Y-114497362D01*
X133880490Y-114497369D01*
X133823777Y-114745845D01*
X133804732Y-114999995D01*
X133804732Y-115000004D01*
X133823777Y-115254154D01*
X133873618Y-115472523D01*
X133880492Y-115502637D01*
X133973607Y-115739888D01*
X134101041Y-115960612D01*
X134259950Y-116159877D01*
X134446783Y-116333232D01*
X134657366Y-116476805D01*
X134657371Y-116476807D01*
X134657372Y-116476808D01*
X134657373Y-116476809D01*
X134730885Y-116512210D01*
X134886992Y-116587387D01*
X134886993Y-116587387D01*
X134886996Y-116587389D01*
X135130542Y-116662513D01*
X135382565Y-116700500D01*
X135637435Y-116700500D01*
X135889458Y-116662513D01*
X136133004Y-116587389D01*
X136314458Y-116500005D01*
X136362626Y-116476809D01*
X136362626Y-116476808D01*
X136362634Y-116476805D01*
X136573217Y-116333232D01*
X136760050Y-116159877D01*
X136918959Y-115960612D01*
X137046393Y-115739888D01*
X137139508Y-115502637D01*
X137196222Y-115254157D01*
X137212765Y-115033398D01*
X137215268Y-115000004D01*
X137215268Y-114999995D01*
X137196222Y-114745845D01*
X137167057Y-114618066D01*
X137139508Y-114497363D01*
X137112838Y-114429411D01*
X137106670Y-114359818D01*
X137139107Y-114297934D01*
X137140505Y-114296511D01*
X137219160Y-114217857D01*
X137290897Y-114110496D01*
X137340310Y-113991203D01*
X137365500Y-113864561D01*
X137365500Y-113752135D01*
X149049500Y-113752135D01*
X149049500Y-116247870D01*
X149049501Y-116247876D01*
X149055908Y-116307483D01*
X149106202Y-116442328D01*
X149106206Y-116442335D01*
X149192452Y-116557544D01*
X149192455Y-116557547D01*
X149307664Y-116643793D01*
X149307671Y-116643797D01*
X149442517Y-116694091D01*
X149442516Y-116694091D01*
X149449444Y-116694835D01*
X149502127Y-116700500D01*
X151997872Y-116700499D01*
X152057483Y-116694091D01*
X152192331Y-116643796D01*
X152307546Y-116557546D01*
X152393796Y-116442331D01*
X152444091Y-116307483D01*
X152450500Y-116247873D01*
X152450499Y-113752128D01*
X152444091Y-113692517D01*
X152434487Y-113666768D01*
X152393797Y-113557671D01*
X152393793Y-113557664D01*
X152307547Y-113442455D01*
X152307544Y-113442452D01*
X152192335Y-113356206D01*
X152192328Y-113356202D01*
X152057482Y-113305908D01*
X152057483Y-113305908D01*
X151997883Y-113299501D01*
X151997881Y-113299500D01*
X151997873Y-113299500D01*
X151997864Y-113299500D01*
X149502129Y-113299500D01*
X149502123Y-113299501D01*
X149442516Y-113305908D01*
X149307671Y-113356202D01*
X149307664Y-113356206D01*
X149192455Y-113442452D01*
X149192452Y-113442455D01*
X149106206Y-113557664D01*
X149106202Y-113557671D01*
X149055908Y-113692517D01*
X149051294Y-113735439D01*
X149049501Y-113752123D01*
X149049500Y-113752135D01*
X137365500Y-113752135D01*
X137365500Y-113735439D01*
X137365500Y-112902135D01*
X156199500Y-112902135D01*
X156199500Y-115597870D01*
X156199501Y-115597876D01*
X156205908Y-115657483D01*
X156256202Y-115792328D01*
X156256206Y-115792335D01*
X156342452Y-115907544D01*
X156342455Y-115907547D01*
X156457664Y-115993793D01*
X156457671Y-115993797D01*
X156592517Y-116044091D01*
X156592516Y-116044091D01*
X156599444Y-116044835D01*
X156652127Y-116050500D01*
X159347872Y-116050499D01*
X159407483Y-116044091D01*
X159542331Y-115993796D01*
X159657546Y-115907546D01*
X159743796Y-115792331D01*
X159794091Y-115657483D01*
X159800500Y-115597873D01*
X159800499Y-114249995D01*
X161194451Y-114249995D01*
X161194451Y-114250004D01*
X161214616Y-114519101D01*
X161274664Y-114782188D01*
X161274666Y-114782195D01*
X161360455Y-115000781D01*
X161373257Y-115033398D01*
X161508185Y-115267102D01*
X161644080Y-115437509D01*
X161676442Y-115478089D01*
X161810366Y-115602351D01*
X161874259Y-115661635D01*
X162097226Y-115813651D01*
X162340359Y-115930738D01*
X162598228Y-116010280D01*
X162598229Y-116010280D01*
X162598232Y-116010281D01*
X162865063Y-116050499D01*
X162865068Y-116050499D01*
X162865071Y-116050500D01*
X162865072Y-116050500D01*
X163134928Y-116050500D01*
X163134929Y-116050500D01*
X163134936Y-116050499D01*
X163401767Y-116010281D01*
X163401768Y-116010280D01*
X163401772Y-116010280D01*
X163659641Y-115930738D01*
X163902775Y-115813651D01*
X164125741Y-115661635D01*
X164323561Y-115478085D01*
X164491815Y-115267102D01*
X164626743Y-115033398D01*
X164725334Y-114782195D01*
X164785383Y-114519103D01*
X164797243Y-114360835D01*
X164805549Y-114250004D01*
X164805549Y-114249995D01*
X166194451Y-114249995D01*
X166194451Y-114250004D01*
X166214616Y-114519101D01*
X166274664Y-114782188D01*
X166274666Y-114782195D01*
X166360455Y-115000781D01*
X166373257Y-115033398D01*
X166508185Y-115267102D01*
X166644080Y-115437509D01*
X166676442Y-115478089D01*
X166810366Y-115602351D01*
X166874259Y-115661635D01*
X167097226Y-115813651D01*
X167340359Y-115930738D01*
X167598228Y-116010280D01*
X167598229Y-116010280D01*
X167598232Y-116010281D01*
X167865063Y-116050499D01*
X167865068Y-116050499D01*
X167865071Y-116050500D01*
X167865072Y-116050500D01*
X168134928Y-116050500D01*
X168134929Y-116050500D01*
X168134936Y-116050499D01*
X168401767Y-116010281D01*
X168401768Y-116010280D01*
X168401772Y-116010280D01*
X168659641Y-115930738D01*
X168902775Y-115813651D01*
X169125741Y-115661635D01*
X169323561Y-115478085D01*
X169491815Y-115267102D01*
X169626743Y-115033398D01*
X169725334Y-114782195D01*
X169785383Y-114519103D01*
X169797243Y-114360835D01*
X169805549Y-114250004D01*
X169805549Y-114249995D01*
X171194451Y-114249995D01*
X171194451Y-114250004D01*
X171214616Y-114519101D01*
X171274664Y-114782188D01*
X171274666Y-114782195D01*
X171360455Y-115000781D01*
X171373257Y-115033398D01*
X171508185Y-115267102D01*
X171644080Y-115437509D01*
X171676442Y-115478089D01*
X171810366Y-115602351D01*
X171874259Y-115661635D01*
X172097226Y-115813651D01*
X172340359Y-115930738D01*
X172598228Y-116010280D01*
X172598229Y-116010280D01*
X172598232Y-116010281D01*
X172865063Y-116050499D01*
X172865068Y-116050499D01*
X172865071Y-116050500D01*
X172865072Y-116050500D01*
X173134928Y-116050500D01*
X173134929Y-116050500D01*
X173134936Y-116050499D01*
X173401767Y-116010281D01*
X173401768Y-116010280D01*
X173401772Y-116010280D01*
X173659641Y-115930738D01*
X173902775Y-115813651D01*
X174125741Y-115661635D01*
X174323561Y-115478085D01*
X174491815Y-115267102D01*
X174626743Y-115033398D01*
X174725334Y-114782195D01*
X174785383Y-114519103D01*
X174797243Y-114360835D01*
X174805549Y-114250004D01*
X174805549Y-114249995D01*
X174793248Y-114085852D01*
X175180392Y-114085852D01*
X175200178Y-114274108D01*
X175200179Y-114274111D01*
X175258670Y-114454129D01*
X175258673Y-114454136D01*
X175353319Y-114618068D01*
X175468370Y-114745845D01*
X175479981Y-114758740D01*
X175633117Y-114870000D01*
X175633122Y-114870003D01*
X175806044Y-114946994D01*
X175806049Y-114946996D01*
X175991206Y-114986352D01*
X176007973Y-114986352D01*
X176075012Y-115006037D01*
X176095654Y-115022671D01*
X178155840Y-117082857D01*
X178247143Y-117174160D01*
X178354504Y-117245897D01*
X178354505Y-117245897D01*
X178354506Y-117245898D01*
X178354508Y-117245899D01*
X178392296Y-117261551D01*
X178473798Y-117295310D01*
X178473800Y-117295310D01*
X178473805Y-117295312D01*
X178600434Y-117320499D01*
X178600438Y-117320500D01*
X178600439Y-117320500D01*
X194649562Y-117320500D01*
X194649563Y-117320499D01*
X194691774Y-117312103D01*
X194776194Y-117295312D01*
X194776197Y-117295310D01*
X194776202Y-117295310D01*
X194895496Y-117245897D01*
X195002857Y-117174160D01*
X195545605Y-116631410D01*
X195606926Y-116597927D01*
X195669831Y-116600601D01*
X195870542Y-116662513D01*
X196122565Y-116700500D01*
X196377435Y-116700500D01*
X196629458Y-116662513D01*
X196873004Y-116587389D01*
X197054458Y-116500005D01*
X197102626Y-116476809D01*
X197102626Y-116476808D01*
X197102634Y-116476805D01*
X197313217Y-116333232D01*
X197500050Y-116159877D01*
X197658959Y-115960612D01*
X197786393Y-115739888D01*
X197879508Y-115502637D01*
X197903471Y-115397648D01*
X213449500Y-115397648D01*
X213449500Y-115602351D01*
X213481522Y-115804534D01*
X213544781Y-115999223D01*
X213599756Y-116107116D01*
X213626639Y-116159877D01*
X213637715Y-116181613D01*
X213758028Y-116347213D01*
X213902786Y-116491971D01*
X214048198Y-116597617D01*
X214068390Y-116612287D01*
X214166958Y-116662510D01*
X214250776Y-116705218D01*
X214250778Y-116705218D01*
X214250781Y-116705220D01*
X214355137Y-116739127D01*
X214445465Y-116768477D01*
X214546557Y-116784488D01*
X214647648Y-116800500D01*
X214647649Y-116800500D01*
X214852351Y-116800500D01*
X214852352Y-116800500D01*
X215054534Y-116768477D01*
X215249219Y-116705220D01*
X215431610Y-116612287D01*
X215524590Y-116544732D01*
X215597213Y-116491971D01*
X215597215Y-116491968D01*
X215597219Y-116491966D01*
X215741966Y-116347219D01*
X215741968Y-116347215D01*
X215741971Y-116347213D01*
X215814142Y-116247876D01*
X215862287Y-116181610D01*
X215955220Y-115999219D01*
X216018477Y-115804534D01*
X216050500Y-115602352D01*
X216050500Y-115397648D01*
X216027773Y-115254157D01*
X216018477Y-115195465D01*
X215989127Y-115105137D01*
X215955220Y-115000781D01*
X215955218Y-115000778D01*
X215955218Y-115000776D01*
X215888585Y-114870003D01*
X215862287Y-114818390D01*
X215835985Y-114782188D01*
X215741971Y-114652786D01*
X215597213Y-114508028D01*
X215431613Y-114387715D01*
X215431612Y-114387714D01*
X215431610Y-114387713D01*
X215365127Y-114353838D01*
X215249223Y-114294781D01*
X215054534Y-114231522D01*
X214879995Y-114203878D01*
X214852352Y-114199500D01*
X214647648Y-114199500D01*
X214623329Y-114203351D01*
X214445465Y-114231522D01*
X214250776Y-114294781D01*
X214068386Y-114387715D01*
X213902786Y-114508028D01*
X213758028Y-114652786D01*
X213637715Y-114818386D01*
X213544781Y-115000776D01*
X213481522Y-115195465D01*
X213449500Y-115397648D01*
X197903471Y-115397648D01*
X197936222Y-115254157D01*
X197952765Y-115033398D01*
X197955268Y-115000004D01*
X197955268Y-114999995D01*
X197936222Y-114745845D01*
X197907057Y-114618066D01*
X197879508Y-114497363D01*
X197786393Y-114260112D01*
X197658959Y-114039388D01*
X197500050Y-113840123D01*
X197313217Y-113666768D01*
X197102634Y-113523195D01*
X197102630Y-113523193D01*
X197102627Y-113523191D01*
X197102626Y-113523190D01*
X196873006Y-113412612D01*
X196873008Y-113412612D01*
X196629466Y-113337489D01*
X196629462Y-113337488D01*
X196629458Y-113337487D01*
X196508231Y-113319214D01*
X196377440Y-113299500D01*
X196377435Y-113299500D01*
X196122565Y-113299500D01*
X196122559Y-113299500D01*
X195965609Y-113323157D01*
X195870542Y-113337487D01*
X195870539Y-113337488D01*
X195870533Y-113337489D01*
X195626992Y-113412612D01*
X195397373Y-113523190D01*
X195397372Y-113523191D01*
X195186782Y-113666768D01*
X194999952Y-113840121D01*
X194999950Y-113840123D01*
X194841041Y-114039388D01*
X194713608Y-114260109D01*
X194620492Y-114497362D01*
X194620490Y-114497369D01*
X194563777Y-114745845D01*
X194544732Y-114999995D01*
X194544732Y-115000004D01*
X194563777Y-115254154D01*
X194614888Y-115478085D01*
X194620492Y-115502637D01*
X194620494Y-115502642D01*
X194647160Y-115570586D01*
X194653329Y-115640183D01*
X194620891Y-115702066D01*
X194619413Y-115703569D01*
X194349802Y-115973181D01*
X194288479Y-116006666D01*
X194262121Y-116009500D01*
X182834500Y-116009500D01*
X182767461Y-115989815D01*
X182721706Y-115937011D01*
X182710500Y-115885500D01*
X182710499Y-113752129D01*
X182710498Y-113752123D01*
X182710497Y-113752116D01*
X182704091Y-113692517D01*
X182694487Y-113666768D01*
X182653797Y-113557671D01*
X182653793Y-113557664D01*
X182567547Y-113442455D01*
X182567544Y-113442452D01*
X182452335Y-113356206D01*
X182452328Y-113356202D01*
X182317482Y-113305908D01*
X182317483Y-113305908D01*
X182257883Y-113299501D01*
X182257881Y-113299500D01*
X182257873Y-113299500D01*
X182257864Y-113299500D01*
X179762129Y-113299500D01*
X179762123Y-113299501D01*
X179702516Y-113305908D01*
X179567671Y-113356202D01*
X179567664Y-113356206D01*
X179452455Y-113442452D01*
X179452452Y-113442455D01*
X179366206Y-113557664D01*
X179366202Y-113557671D01*
X179315908Y-113692517D01*
X179311294Y-113735439D01*
X179309500Y-113752127D01*
X179309500Y-114870003D01*
X179309501Y-115885500D01*
X179289816Y-115952539D01*
X179237013Y-115998294D01*
X179185501Y-116009500D01*
X178987879Y-116009500D01*
X178920840Y-115989815D01*
X178900198Y-115973181D01*
X177019830Y-114092813D01*
X176986345Y-114031490D01*
X176984190Y-114018093D01*
X176981363Y-113991195D01*
X176971526Y-113897596D01*
X176913031Y-113717568D01*
X176818385Y-113553636D01*
X176691723Y-113412964D01*
X176691239Y-113412612D01*
X176538586Y-113301703D01*
X176538581Y-113301700D01*
X176365659Y-113224709D01*
X176365654Y-113224707D01*
X176219853Y-113193717D01*
X176180498Y-113185352D01*
X175991206Y-113185352D01*
X175958749Y-113192250D01*
X175806049Y-113224707D01*
X175806044Y-113224709D01*
X175633122Y-113301700D01*
X175633117Y-113301703D01*
X175479981Y-113412963D01*
X175353318Y-113553637D01*
X175258673Y-113717567D01*
X175258670Y-113717574D01*
X175210911Y-113864562D01*
X175200178Y-113897596D01*
X175180392Y-114085852D01*
X174793248Y-114085852D01*
X174785383Y-113980898D01*
X174753252Y-113840121D01*
X174725334Y-113717805D01*
X174626743Y-113466602D01*
X174491815Y-113232898D01*
X174323561Y-113021915D01*
X174323560Y-113021914D01*
X174323557Y-113021910D01*
X174125741Y-112838365D01*
X173902775Y-112686349D01*
X173902769Y-112686346D01*
X173902768Y-112686345D01*
X173902767Y-112686344D01*
X173659643Y-112569263D01*
X173659645Y-112569263D01*
X173401773Y-112489720D01*
X173401767Y-112489718D01*
X173134936Y-112449500D01*
X173134929Y-112449500D01*
X172865071Y-112449500D01*
X172865063Y-112449500D01*
X172598232Y-112489718D01*
X172598226Y-112489720D01*
X172340358Y-112569262D01*
X172097230Y-112686346D01*
X171874258Y-112838365D01*
X171676442Y-113021910D01*
X171508185Y-113232898D01*
X171373258Y-113466599D01*
X171373256Y-113466603D01*
X171274666Y-113717804D01*
X171274664Y-113717811D01*
X171214616Y-113980898D01*
X171194451Y-114249995D01*
X169805549Y-114249995D01*
X169785383Y-113980898D01*
X169753252Y-113840121D01*
X169725334Y-113717805D01*
X169626743Y-113466602D01*
X169491815Y-113232898D01*
X169323561Y-113021915D01*
X169323560Y-113021914D01*
X169323557Y-113021910D01*
X169125741Y-112838365D01*
X168902775Y-112686349D01*
X168902769Y-112686346D01*
X168902768Y-112686345D01*
X168902767Y-112686344D01*
X168659643Y-112569263D01*
X168659645Y-112569263D01*
X168401773Y-112489720D01*
X168401767Y-112489718D01*
X168134936Y-112449500D01*
X168134929Y-112449500D01*
X167865071Y-112449500D01*
X167865063Y-112449500D01*
X167598232Y-112489718D01*
X167598226Y-112489720D01*
X167340358Y-112569262D01*
X167097230Y-112686346D01*
X166874258Y-112838365D01*
X166676442Y-113021910D01*
X166508185Y-113232898D01*
X166373258Y-113466599D01*
X166373256Y-113466603D01*
X166274666Y-113717804D01*
X166274664Y-113717811D01*
X166214616Y-113980898D01*
X166194451Y-114249995D01*
X164805549Y-114249995D01*
X164785383Y-113980898D01*
X164753252Y-113840121D01*
X164725334Y-113717805D01*
X164626743Y-113466602D01*
X164491815Y-113232898D01*
X164323561Y-113021915D01*
X164323560Y-113021914D01*
X164323557Y-113021910D01*
X164125741Y-112838365D01*
X163902775Y-112686349D01*
X163902769Y-112686346D01*
X163902768Y-112686345D01*
X163902767Y-112686344D01*
X163659643Y-112569263D01*
X163659645Y-112569263D01*
X163401773Y-112489720D01*
X163401767Y-112489718D01*
X163134936Y-112449500D01*
X163134929Y-112449500D01*
X162865071Y-112449500D01*
X162865063Y-112449500D01*
X162598232Y-112489718D01*
X162598226Y-112489720D01*
X162340358Y-112569262D01*
X162097230Y-112686346D01*
X161874258Y-112838365D01*
X161676442Y-113021910D01*
X161508185Y-113232898D01*
X161373258Y-113466599D01*
X161373256Y-113466603D01*
X161274666Y-113717804D01*
X161274664Y-113717811D01*
X161214616Y-113980898D01*
X161194451Y-114249995D01*
X159800499Y-114249995D01*
X159800499Y-112902128D01*
X159794091Y-112842517D01*
X159792542Y-112838365D01*
X159743797Y-112707671D01*
X159743793Y-112707664D01*
X159657547Y-112592455D01*
X159657544Y-112592452D01*
X159542335Y-112506206D01*
X159542328Y-112506202D01*
X159407482Y-112455908D01*
X159407483Y-112455908D01*
X159347883Y-112449501D01*
X159347881Y-112449500D01*
X159347873Y-112449500D01*
X159347864Y-112449500D01*
X156652129Y-112449500D01*
X156652123Y-112449501D01*
X156592516Y-112455908D01*
X156457671Y-112506202D01*
X156457664Y-112506206D01*
X156342455Y-112592452D01*
X156342452Y-112592455D01*
X156256206Y-112707664D01*
X156256202Y-112707671D01*
X156205908Y-112842517D01*
X156199501Y-112902116D01*
X156199501Y-112902123D01*
X156199500Y-112902135D01*
X137365500Y-112902135D01*
X137365500Y-111250000D01*
X179239540Y-111250000D01*
X179259326Y-111438256D01*
X179259327Y-111438259D01*
X179317818Y-111618277D01*
X179317821Y-111618284D01*
X179412467Y-111782216D01*
X179539129Y-111922888D01*
X179692265Y-112034148D01*
X179692270Y-112034151D01*
X179865192Y-112111142D01*
X179865197Y-112111144D01*
X180050354Y-112150500D01*
X180050355Y-112150500D01*
X180239644Y-112150500D01*
X180239646Y-112150500D01*
X180424803Y-112111144D01*
X180597730Y-112034151D01*
X180750871Y-111922888D01*
X180877533Y-111782216D01*
X180972179Y-111618284D01*
X181030674Y-111438256D01*
X181043338Y-111317755D01*
X181069922Y-111253142D01*
X181078969Y-111243046D01*
X184520198Y-107801819D01*
X184581521Y-107768334D01*
X184607879Y-107765500D01*
X194595946Y-107765500D01*
X194662985Y-107785185D01*
X194708740Y-107837989D01*
X194711369Y-107844187D01*
X194713607Y-107849888D01*
X194841041Y-108070612D01*
X194999950Y-108269877D01*
X195186783Y-108443232D01*
X195397366Y-108586805D01*
X195397371Y-108586807D01*
X195397372Y-108586808D01*
X195397373Y-108586809D01*
X195519328Y-108645538D01*
X195626992Y-108697387D01*
X195626993Y-108697387D01*
X195626996Y-108697389D01*
X195870542Y-108772513D01*
X196122565Y-108810500D01*
X196377435Y-108810500D01*
X196629458Y-108772513D01*
X196873004Y-108697389D01*
X197102634Y-108586805D01*
X197313217Y-108443232D01*
X197500050Y-108269877D01*
X197658959Y-108070612D01*
X197786393Y-107849888D01*
X197879508Y-107612637D01*
X197936222Y-107364157D01*
X197955268Y-107110000D01*
X197950197Y-107042335D01*
X197936222Y-106855845D01*
X197934403Y-106847876D01*
X197879508Y-106607363D01*
X197786393Y-106370112D01*
X197658959Y-106149388D01*
X197500050Y-105950123D01*
X197313217Y-105776768D01*
X197102634Y-105633195D01*
X197102630Y-105633193D01*
X197102627Y-105633191D01*
X197102626Y-105633190D01*
X196873006Y-105522612D01*
X196873008Y-105522612D01*
X196629466Y-105447489D01*
X196629462Y-105447488D01*
X196629458Y-105447487D01*
X196508231Y-105429214D01*
X196377440Y-105409500D01*
X196377435Y-105409500D01*
X196122565Y-105409500D01*
X196122559Y-105409500D01*
X195974504Y-105431817D01*
X195870542Y-105447487D01*
X195870539Y-105447488D01*
X195870533Y-105447489D01*
X195626992Y-105522612D01*
X195397373Y-105633190D01*
X195397372Y-105633191D01*
X195186782Y-105776768D01*
X194999952Y-105950121D01*
X194999950Y-105950123D01*
X194841041Y-106149388D01*
X194713608Y-106370109D01*
X194711375Y-106375800D01*
X194668560Y-106431014D01*
X194602691Y-106454316D01*
X194595946Y-106454500D01*
X184220434Y-106454500D01*
X184093805Y-106479687D01*
X184093796Y-106479690D01*
X183974508Y-106529100D01*
X183974506Y-106529101D01*
X183867143Y-106600839D01*
X183867139Y-106600842D01*
X182922180Y-107545802D01*
X182860857Y-107579287D01*
X182791165Y-107574303D01*
X182735232Y-107532431D01*
X182710815Y-107466967D01*
X182710499Y-107458121D01*
X182710499Y-105862129D01*
X182710498Y-105862123D01*
X182710497Y-105862116D01*
X182704091Y-105802517D01*
X182698619Y-105787847D01*
X182653797Y-105667671D01*
X182653793Y-105667664D01*
X182567547Y-105552455D01*
X182567544Y-105552452D01*
X182452335Y-105466206D01*
X182452328Y-105466202D01*
X182317482Y-105415908D01*
X182317483Y-105415908D01*
X182257883Y-105409501D01*
X182257881Y-105409500D01*
X182257873Y-105409500D01*
X182257864Y-105409500D01*
X179762129Y-105409500D01*
X179762123Y-105409501D01*
X179702516Y-105415908D01*
X179567671Y-105466202D01*
X179567664Y-105466206D01*
X179452455Y-105552452D01*
X179452452Y-105552455D01*
X179366206Y-105667664D01*
X179366202Y-105667671D01*
X179315908Y-105802517D01*
X179309501Y-105862116D01*
X179309501Y-105862123D01*
X179309500Y-105862135D01*
X179309500Y-108357870D01*
X179309501Y-108357876D01*
X179315908Y-108417483D01*
X179366202Y-108552328D01*
X179366206Y-108552335D01*
X179452452Y-108667544D01*
X179452455Y-108667547D01*
X179567664Y-108753793D01*
X179567671Y-108753797D01*
X179702517Y-108804091D01*
X179702516Y-108804091D01*
X179709444Y-108804835D01*
X179762127Y-108810500D01*
X181358120Y-108810499D01*
X181425159Y-108830184D01*
X181470914Y-108882987D01*
X181480858Y-108952146D01*
X181451833Y-109015702D01*
X181445801Y-109022180D01*
X180154802Y-110313181D01*
X180093479Y-110346666D01*
X180067121Y-110349500D01*
X180050354Y-110349500D01*
X180017897Y-110356398D01*
X179865197Y-110388855D01*
X179865192Y-110388857D01*
X179692270Y-110465848D01*
X179692265Y-110465851D01*
X179539129Y-110577111D01*
X179412466Y-110717785D01*
X179317821Y-110881715D01*
X179317818Y-110881722D01*
X179259327Y-111061740D01*
X179259326Y-111061744D01*
X179239540Y-111250000D01*
X137365500Y-111250000D01*
X137365500Y-108245439D01*
X137340310Y-108118798D01*
X137312323Y-108051232D01*
X137290897Y-107999504D01*
X137219160Y-107892143D01*
X137140584Y-107813567D01*
X137107101Y-107752247D01*
X137112085Y-107682555D01*
X137112788Y-107680715D01*
X137139508Y-107612637D01*
X137196222Y-107364157D01*
X137215268Y-107110000D01*
X137210197Y-107042335D01*
X137196222Y-106855845D01*
X137194403Y-106847876D01*
X137139508Y-106607363D01*
X137046393Y-106370112D01*
X136918959Y-106149388D01*
X136760050Y-105950123D01*
X136665221Y-105862135D01*
X149049500Y-105862135D01*
X149049500Y-108357870D01*
X149049501Y-108357876D01*
X149055908Y-108417483D01*
X149106202Y-108552328D01*
X149106206Y-108552335D01*
X149192452Y-108667544D01*
X149192455Y-108667547D01*
X149307664Y-108753793D01*
X149307671Y-108753797D01*
X149442517Y-108804091D01*
X149442516Y-108804091D01*
X149449444Y-108804835D01*
X149502127Y-108810500D01*
X151997872Y-108810499D01*
X152057483Y-108804091D01*
X152192331Y-108753796D01*
X152307546Y-108667546D01*
X152393796Y-108552331D01*
X152444091Y-108417483D01*
X152450500Y-108357873D01*
X152450499Y-105862128D01*
X152444091Y-105802517D01*
X152438619Y-105787847D01*
X152393797Y-105667671D01*
X152393793Y-105667664D01*
X152307547Y-105552455D01*
X152307544Y-105552452D01*
X152192335Y-105466206D01*
X152192328Y-105466202D01*
X152057482Y-105415908D01*
X152057483Y-105415908D01*
X151997883Y-105409501D01*
X151997881Y-105409500D01*
X151997873Y-105409500D01*
X151997864Y-105409500D01*
X149502129Y-105409500D01*
X149502123Y-105409501D01*
X149442516Y-105415908D01*
X149307671Y-105466202D01*
X149307664Y-105466206D01*
X149192455Y-105552452D01*
X149192452Y-105552455D01*
X149106206Y-105667664D01*
X149106202Y-105667671D01*
X149055908Y-105802517D01*
X149049501Y-105862116D01*
X149049501Y-105862123D01*
X149049500Y-105862135D01*
X136665221Y-105862135D01*
X136573217Y-105776768D01*
X136362634Y-105633195D01*
X136362630Y-105633193D01*
X136362627Y-105633191D01*
X136362626Y-105633190D01*
X136133006Y-105522612D01*
X136133008Y-105522612D01*
X135889460Y-105447487D01*
X135884944Y-105446457D01*
X135885264Y-105445052D01*
X135827644Y-105418250D01*
X135790281Y-105359209D01*
X135785500Y-105325107D01*
X135785500Y-100899653D01*
X135805185Y-100832614D01*
X135855696Y-100787934D01*
X135982634Y-100726805D01*
X136193217Y-100583232D01*
X136380050Y-100409877D01*
X136538959Y-100210612D01*
X136666393Y-99989888D01*
X136759508Y-99752637D01*
X136816222Y-99504157D01*
X136835268Y-99250000D01*
X136816222Y-98995843D01*
X136759508Y-98747363D01*
X136666393Y-98510112D01*
X136538959Y-98289388D01*
X136380050Y-98090123D01*
X136380044Y-98090117D01*
X136380041Y-98090114D01*
X136285222Y-98002135D01*
X148669500Y-98002135D01*
X148669500Y-100497870D01*
X148669501Y-100497876D01*
X148675908Y-100557483D01*
X148726202Y-100692328D01*
X148726206Y-100692335D01*
X148812452Y-100807544D01*
X148812455Y-100807547D01*
X148927664Y-100893793D01*
X148927671Y-100893797D01*
X149062517Y-100944091D01*
X149062516Y-100944091D01*
X149069444Y-100944835D01*
X149122127Y-100950500D01*
X151617872Y-100950499D01*
X151677483Y-100944091D01*
X151812331Y-100893796D01*
X151927546Y-100807546D01*
X152013796Y-100692331D01*
X152064091Y-100557483D01*
X152070500Y-100497873D01*
X152070499Y-98002128D01*
X152064091Y-97942517D01*
X152058619Y-97927847D01*
X152013797Y-97807671D01*
X152013793Y-97807664D01*
X151927547Y-97692455D01*
X151927544Y-97692452D01*
X151812335Y-97606206D01*
X151812328Y-97606202D01*
X151677482Y-97555908D01*
X151677483Y-97555908D01*
X151617883Y-97549501D01*
X151617881Y-97549500D01*
X151617873Y-97549500D01*
X151617864Y-97549500D01*
X149122129Y-97549500D01*
X149122123Y-97549501D01*
X149062516Y-97555908D01*
X148927671Y-97606202D01*
X148927664Y-97606206D01*
X148812455Y-97692452D01*
X148812452Y-97692455D01*
X148726206Y-97807664D01*
X148726202Y-97807671D01*
X148675908Y-97942517D01*
X148669501Y-98002116D01*
X148669501Y-98002123D01*
X148669500Y-98002135D01*
X136285222Y-98002135D01*
X136205159Y-97927847D01*
X136169404Y-97867819D01*
X136165500Y-97836949D01*
X136165500Y-92649653D01*
X136185185Y-92582614D01*
X136235696Y-92537934D01*
X136362634Y-92476805D01*
X136573217Y-92333232D01*
X136760050Y-92159877D01*
X136918959Y-91960612D01*
X137046393Y-91739888D01*
X137139508Y-91502637D01*
X137196222Y-91254157D01*
X137208059Y-91096195D01*
X137215268Y-91000004D01*
X137215268Y-90999995D01*
X137196222Y-90745845D01*
X137191357Y-90724531D01*
X137139508Y-90497363D01*
X137112838Y-90429411D01*
X137106670Y-90359816D01*
X137139107Y-90297932D01*
X137140448Y-90296567D01*
X137259160Y-90177857D01*
X137330897Y-90070496D01*
X137380310Y-89951202D01*
X137386797Y-89918592D01*
X137397103Y-89866774D01*
X137405500Y-89824561D01*
X137405500Y-89695439D01*
X137405500Y-79999995D01*
X141344732Y-79999995D01*
X141344732Y-80000004D01*
X141363777Y-80254154D01*
X141419009Y-80496142D01*
X141420492Y-80502637D01*
X141513607Y-80739888D01*
X141641041Y-80960612D01*
X141799950Y-81159877D01*
X141986783Y-81333232D01*
X142197366Y-81476805D01*
X142197371Y-81476807D01*
X142197372Y-81476808D01*
X142197373Y-81476809D01*
X142319328Y-81535538D01*
X142426992Y-81587387D01*
X142426993Y-81587387D01*
X142426996Y-81587389D01*
X142670542Y-81662513D01*
X142922565Y-81700500D01*
X143177435Y-81700500D01*
X143429458Y-81662513D01*
X143673004Y-81587389D01*
X143854458Y-81500005D01*
X143902626Y-81476809D01*
X143902626Y-81476808D01*
X143902634Y-81476805D01*
X144113217Y-81333232D01*
X144300050Y-81159877D01*
X144458959Y-80960612D01*
X144586393Y-80739888D01*
X144679508Y-80502637D01*
X144736222Y-80254157D01*
X144755022Y-80003284D01*
X144755268Y-80000004D01*
X144755268Y-79999995D01*
X144736871Y-79754501D01*
X144736222Y-79745843D01*
X144679508Y-79497363D01*
X144586393Y-79260112D01*
X144458959Y-79039388D01*
X144300050Y-78840123D01*
X144113217Y-78666768D01*
X143902634Y-78523195D01*
X143902630Y-78523193D01*
X143902627Y-78523191D01*
X143902626Y-78523190D01*
X143673006Y-78412612D01*
X143673008Y-78412612D01*
X143429466Y-78337489D01*
X143429462Y-78337488D01*
X143429458Y-78337487D01*
X143308231Y-78319214D01*
X143177440Y-78299500D01*
X143177435Y-78299500D01*
X142922565Y-78299500D01*
X142922559Y-78299500D01*
X142765609Y-78323157D01*
X142670542Y-78337487D01*
X142670539Y-78337488D01*
X142670533Y-78337489D01*
X142426992Y-78412612D01*
X142197373Y-78523190D01*
X142197372Y-78523191D01*
X141986782Y-78666768D01*
X141799952Y-78840121D01*
X141799950Y-78840123D01*
X141641041Y-79039388D01*
X141513608Y-79260109D01*
X141420492Y-79497362D01*
X141420490Y-79497369D01*
X141363777Y-79745845D01*
X141344732Y-79999995D01*
X137405500Y-79999995D01*
X137405500Y-72925283D01*
X137425185Y-72858244D01*
X137470482Y-72816228D01*
X137573509Y-72760474D01*
X137769744Y-72607738D01*
X137938164Y-72424785D01*
X138074173Y-72216607D01*
X138174063Y-71988881D01*
X138235108Y-71747821D01*
X138236743Y-71728089D01*
X138255643Y-71500005D01*
X138255643Y-71499994D01*
X142744357Y-71499994D01*
X142744357Y-71500005D01*
X142764890Y-71747812D01*
X142764892Y-71747824D01*
X142825936Y-71988881D01*
X142925826Y-72216606D01*
X143061833Y-72424782D01*
X143061836Y-72424785D01*
X143230256Y-72607738D01*
X143426491Y-72760474D01*
X143458226Y-72777648D01*
X143557626Y-72831441D01*
X143645190Y-72878828D01*
X143880386Y-72959571D01*
X144125665Y-73000500D01*
X144374335Y-73000500D01*
X144619614Y-72959571D01*
X144854810Y-72878828D01*
X145073509Y-72760474D01*
X145269744Y-72607738D01*
X145438164Y-72424785D01*
X145574173Y-72216607D01*
X145674063Y-71988881D01*
X145735108Y-71747821D01*
X145736743Y-71728089D01*
X145755643Y-71500005D01*
X145755643Y-71499994D01*
X145735109Y-71252187D01*
X145735107Y-71252175D01*
X145674063Y-71011118D01*
X145574173Y-70783393D01*
X145438166Y-70575217D01*
X145368927Y-70500004D01*
X145269744Y-70392262D01*
X145073509Y-70239526D01*
X145073507Y-70239525D01*
X145073506Y-70239524D01*
X144854811Y-70121172D01*
X144854802Y-70121169D01*
X144619616Y-70040429D01*
X144374335Y-69999500D01*
X144125665Y-69999500D01*
X143880383Y-70040429D01*
X143645197Y-70121169D01*
X143645188Y-70121172D01*
X143426493Y-70239524D01*
X143230257Y-70392261D01*
X143061833Y-70575217D01*
X142925826Y-70783393D01*
X142825936Y-71011118D01*
X142764892Y-71252175D01*
X142764890Y-71252187D01*
X142744357Y-71499994D01*
X138255643Y-71499994D01*
X138235109Y-71252187D01*
X138235108Y-71252183D01*
X138235108Y-71252179D01*
X138218920Y-71188256D01*
X138189709Y-71072904D01*
X138192333Y-71003084D01*
X138222231Y-70954784D01*
X145259160Y-63917857D01*
X145330897Y-63810496D01*
X145360213Y-63739720D01*
X145380310Y-63691203D01*
X145405500Y-63564561D01*
X145405500Y-63435439D01*
X145405500Y-63074852D01*
X145425185Y-63007813D01*
X145477094Y-62962470D01*
X145652734Y-62880568D01*
X145839139Y-62750047D01*
X146000047Y-62589139D01*
X146130568Y-62402734D01*
X146226739Y-62196496D01*
X146285635Y-61976692D01*
X146305468Y-61750000D01*
X146285635Y-61523308D01*
X146233065Y-61327112D01*
X146226741Y-61303511D01*
X146226738Y-61303502D01*
X146185865Y-61215851D01*
X146130568Y-61097266D01*
X146000047Y-60910861D01*
X146000045Y-60910858D01*
X145839141Y-60749954D01*
X145652734Y-60619432D01*
X145652732Y-60619431D01*
X145446497Y-60523261D01*
X145446488Y-60523258D01*
X145226697Y-60464366D01*
X145226693Y-60464365D01*
X145226692Y-60464365D01*
X145226691Y-60464364D01*
X145226686Y-60464364D01*
X145000002Y-60444532D01*
X144999998Y-60444532D01*
X144773313Y-60464364D01*
X144773299Y-60464367D01*
X144738411Y-60473715D01*
X144668561Y-60472052D01*
X144618638Y-60441621D01*
X144111819Y-59934802D01*
X144078334Y-59873479D01*
X144075500Y-59847121D01*
X144075500Y-50381879D01*
X144095185Y-50314840D01*
X144147989Y-50269085D01*
X144217147Y-50259141D01*
X144280703Y-50288166D01*
X144287181Y-50294198D01*
X144767139Y-50774157D01*
X144767143Y-50774160D01*
X144874504Y-50845897D01*
X144874505Y-50845897D01*
X144874506Y-50845898D01*
X144874508Y-50845899D01*
X144954033Y-50878839D01*
X144993798Y-50895310D01*
X144993800Y-50895310D01*
X144993805Y-50895312D01*
X145120434Y-50920499D01*
X145120438Y-50920500D01*
X145120439Y-50920500D01*
X145249561Y-50920500D01*
X153773121Y-50920500D01*
X153840160Y-50940185D01*
X153885915Y-50992989D01*
X153895859Y-51062147D01*
X153866834Y-51125703D01*
X153860802Y-51132181D01*
X152707143Y-52285840D01*
X152661490Y-52331492D01*
X152615838Y-52377144D01*
X152544101Y-52484506D01*
X152544100Y-52484508D01*
X152494690Y-52603796D01*
X152494687Y-52603805D01*
X152469500Y-52730434D01*
X152469500Y-61689565D01*
X152494687Y-61816194D01*
X152494690Y-61816203D01*
X152544100Y-61935491D01*
X152544101Y-61935493D01*
X152615839Y-62042856D01*
X152615842Y-62042860D01*
X153812606Y-63239623D01*
X153846091Y-63300946D01*
X153841107Y-63370638D01*
X153799235Y-63426571D01*
X153797855Y-63427589D01*
X153782481Y-63438760D01*
X153782480Y-63438761D01*
X153782476Y-63438764D01*
X153782475Y-63438764D01*
X153655818Y-63579433D01*
X153561173Y-63743363D01*
X153561170Y-63743370D01*
X153502679Y-63923387D01*
X153502678Y-63923390D01*
X153490013Y-64043889D01*
X153463428Y-64108504D01*
X153454373Y-64118608D01*
X150358216Y-67214767D01*
X149332143Y-68240840D01*
X149295130Y-68277853D01*
X149240838Y-68332144D01*
X149169101Y-68439506D01*
X149169100Y-68439508D01*
X149119690Y-68558796D01*
X149119687Y-68558805D01*
X149094500Y-68685434D01*
X149094500Y-73449631D01*
X149074815Y-73516670D01*
X149062650Y-73532603D01*
X149017466Y-73582785D01*
X148922821Y-73746715D01*
X148922818Y-73746722D01*
X148876811Y-73888318D01*
X148864326Y-73926744D01*
X148844540Y-74115000D01*
X148864326Y-74303256D01*
X148864327Y-74303259D01*
X148922818Y-74483277D01*
X148922821Y-74483284D01*
X149017467Y-74647216D01*
X149102093Y-74741202D01*
X149144129Y-74787888D01*
X149297265Y-74899148D01*
X149297270Y-74899151D01*
X149470192Y-74976142D01*
X149470197Y-74976144D01*
X149655354Y-75015500D01*
X149655355Y-75015500D01*
X149844644Y-75015500D01*
X149844646Y-75015500D01*
X150029803Y-74976144D01*
X150202730Y-74899151D01*
X150355871Y-74787888D01*
X150482533Y-74647216D01*
X150577179Y-74483284D01*
X150635674Y-74303256D01*
X150655460Y-74115000D01*
X150635674Y-73926744D01*
X150577179Y-73746716D01*
X150482533Y-73582784D01*
X150437350Y-73532603D01*
X150407120Y-73469611D01*
X150405500Y-73449631D01*
X150405500Y-70480894D01*
X150425185Y-70413855D01*
X150477989Y-70368100D01*
X150547147Y-70358156D01*
X150610703Y-70387181D01*
X150621645Y-70397917D01*
X150644129Y-70422888D01*
X150723968Y-70480894D01*
X150797265Y-70534148D01*
X150797270Y-70534151D01*
X150970192Y-70611142D01*
X150970197Y-70611144D01*
X151155354Y-70650500D01*
X151155355Y-70650500D01*
X151344642Y-70650500D01*
X151344646Y-70650500D01*
X151363020Y-70646594D01*
X151432683Y-70651909D01*
X151476481Y-70680203D01*
X152174253Y-71377975D01*
X152207738Y-71439298D01*
X152202754Y-71508990D01*
X152160882Y-71564923D01*
X152159462Y-71565971D01*
X152144128Y-71577112D01*
X152144123Y-71577116D01*
X152017466Y-71717785D01*
X151922821Y-71881715D01*
X151922818Y-71881722D01*
X151864327Y-72061740D01*
X151864326Y-72061744D01*
X151844540Y-72250000D01*
X151864326Y-72438256D01*
X151864327Y-72438259D01*
X151922818Y-72618277D01*
X151922821Y-72618284D01*
X152017466Y-72782215D01*
X152062649Y-72832395D01*
X152092879Y-72895387D01*
X152094500Y-72915368D01*
X152094500Y-89175500D01*
X152074815Y-89242539D01*
X152022011Y-89288294D01*
X151970500Y-89299500D01*
X149502129Y-89299500D01*
X149502123Y-89299501D01*
X149442516Y-89305908D01*
X149307671Y-89356202D01*
X149307664Y-89356206D01*
X149192455Y-89442452D01*
X149192452Y-89442455D01*
X149106206Y-89557664D01*
X149106202Y-89557671D01*
X149055908Y-89692517D01*
X149053319Y-89716602D01*
X149049501Y-89752123D01*
X149049500Y-89752135D01*
X149049500Y-92247870D01*
X149049501Y-92247876D01*
X149055908Y-92307483D01*
X149106202Y-92442328D01*
X149106206Y-92442335D01*
X149192452Y-92557544D01*
X149192455Y-92557547D01*
X149307664Y-92643793D01*
X149307671Y-92643797D01*
X149442517Y-92694091D01*
X149442516Y-92694091D01*
X149449444Y-92694835D01*
X149502127Y-92700500D01*
X151997872Y-92700499D01*
X152057483Y-92694091D01*
X152192331Y-92643796D01*
X152307546Y-92557546D01*
X152393796Y-92442331D01*
X152444091Y-92307483D01*
X152450500Y-92247873D01*
X152450499Y-90812211D01*
X152470184Y-90745173D01*
X152522987Y-90699418D01*
X152592146Y-90689474D01*
X152655702Y-90718499D01*
X152662180Y-90724531D01*
X162835534Y-100897885D01*
X162869019Y-100959208D01*
X162864035Y-101028900D01*
X162822163Y-101084833D01*
X162784403Y-101104057D01*
X162626992Y-101152612D01*
X162397373Y-101263190D01*
X162397372Y-101263191D01*
X162186782Y-101406768D01*
X161999952Y-101580121D01*
X161999950Y-101580123D01*
X161841041Y-101779388D01*
X161713608Y-102000109D01*
X161620492Y-102237362D01*
X161620490Y-102237369D01*
X161563777Y-102485845D01*
X161544732Y-102739995D01*
X161544732Y-102740004D01*
X161563777Y-102994154D01*
X161619864Y-103239888D01*
X161620492Y-103242637D01*
X161713607Y-103479888D01*
X161841041Y-103700612D01*
X161999950Y-103899877D01*
X162186783Y-104073232D01*
X162397366Y-104216805D01*
X162397371Y-104216807D01*
X162397372Y-104216808D01*
X162397373Y-104216809D01*
X162519328Y-104275538D01*
X162626992Y-104327387D01*
X162626993Y-104327387D01*
X162626996Y-104327389D01*
X162870542Y-104402513D01*
X163122565Y-104440500D01*
X163377435Y-104440500D01*
X163629458Y-104402513D01*
X163873004Y-104327389D01*
X164102634Y-104216805D01*
X164313217Y-104073232D01*
X164500050Y-103899877D01*
X164658959Y-103700612D01*
X164786393Y-103479888D01*
X164879508Y-103242637D01*
X164895646Y-103171929D01*
X164929752Y-103110955D01*
X164991413Y-103078097D01*
X165061050Y-103083791D01*
X165063988Y-103084964D01*
X165126737Y-103110955D01*
X165173464Y-103130310D01*
X165173466Y-103130310D01*
X165173471Y-103130312D01*
X165300100Y-103155499D01*
X165300104Y-103155500D01*
X165300105Y-103155500D01*
X167845946Y-103155500D01*
X167912985Y-103175185D01*
X167958740Y-103227989D01*
X167961369Y-103234187D01*
X167963607Y-103239888D01*
X168091041Y-103460612D01*
X168249950Y-103659877D01*
X168436783Y-103833232D01*
X168647366Y-103976805D01*
X168647371Y-103976807D01*
X168647372Y-103976808D01*
X168647373Y-103976809D01*
X168769328Y-104035538D01*
X168876992Y-104087387D01*
X168876993Y-104087387D01*
X168876996Y-104087389D01*
X169120542Y-104162513D01*
X169372565Y-104200500D01*
X169627435Y-104200500D01*
X169879458Y-104162513D01*
X170123004Y-104087389D01*
X170352634Y-103976805D01*
X170563217Y-103833232D01*
X170750050Y-103659877D01*
X170908959Y-103460612D01*
X171036393Y-103239888D01*
X171129508Y-103002637D01*
X171186222Y-102754157D01*
X171205268Y-102500000D01*
X171204207Y-102485845D01*
X171186222Y-102245845D01*
X171184287Y-102237369D01*
X171129508Y-101997363D01*
X171036393Y-101760112D01*
X170908959Y-101539388D01*
X170750050Y-101340123D01*
X170563217Y-101166768D01*
X170352634Y-101023195D01*
X170352630Y-101023193D01*
X170352627Y-101023191D01*
X170352626Y-101023190D01*
X170123006Y-100912612D01*
X170123008Y-100912612D01*
X169879466Y-100837489D01*
X169879462Y-100837488D01*
X169879458Y-100837487D01*
X169758231Y-100819214D01*
X169627440Y-100799500D01*
X169627435Y-100799500D01*
X169372565Y-100799500D01*
X169372559Y-100799500D01*
X169225021Y-100821739D01*
X169120542Y-100837487D01*
X169120539Y-100837488D01*
X169120533Y-100837489D01*
X168876992Y-100912612D01*
X168647373Y-101023190D01*
X168647372Y-101023191D01*
X168436782Y-101166768D01*
X168249952Y-101340121D01*
X168249950Y-101340123D01*
X168091041Y-101539388D01*
X167963608Y-101760109D01*
X167961375Y-101765800D01*
X167918560Y-101821014D01*
X167852691Y-101844316D01*
X167845946Y-101844500D01*
X165687545Y-101844500D01*
X165620506Y-101824815D01*
X165599864Y-101808181D01*
X161793818Y-98002135D01*
X178929500Y-98002135D01*
X178929500Y-100497870D01*
X178929501Y-100497876D01*
X178935908Y-100557483D01*
X178986202Y-100692328D01*
X178986206Y-100692335D01*
X179072452Y-100807544D01*
X179072455Y-100807547D01*
X179187664Y-100893793D01*
X179187671Y-100893797D01*
X179322517Y-100944091D01*
X179322516Y-100944091D01*
X179329444Y-100944835D01*
X179382127Y-100950500D01*
X181877872Y-100950499D01*
X181937483Y-100944091D01*
X182072331Y-100893796D01*
X182187546Y-100807546D01*
X182273796Y-100692331D01*
X182324091Y-100557483D01*
X182330500Y-100497873D01*
X182330499Y-99249995D01*
X194164732Y-99249995D01*
X194164732Y-99250004D01*
X194183777Y-99504154D01*
X194232266Y-99716599D01*
X194240492Y-99752637D01*
X194333607Y-99989888D01*
X194461041Y-100210612D01*
X194619950Y-100409877D01*
X194806783Y-100583232D01*
X195017366Y-100726805D01*
X195017371Y-100726807D01*
X195017372Y-100726808D01*
X195017373Y-100726809D01*
X195139328Y-100785538D01*
X195246992Y-100837387D01*
X195246993Y-100837387D01*
X195246996Y-100837389D01*
X195490542Y-100912513D01*
X195742565Y-100950500D01*
X195997435Y-100950500D01*
X196249458Y-100912513D01*
X196493004Y-100837389D01*
X196722634Y-100726805D01*
X196933217Y-100583232D01*
X197120050Y-100409877D01*
X197278959Y-100210612D01*
X197406393Y-99989888D01*
X197499508Y-99752637D01*
X197556222Y-99504157D01*
X197575268Y-99250000D01*
X197556222Y-98995843D01*
X197499508Y-98747363D01*
X197406393Y-98510112D01*
X197278959Y-98289388D01*
X197120050Y-98090123D01*
X196933217Y-97916768D01*
X196722634Y-97773195D01*
X196722630Y-97773193D01*
X196722627Y-97773191D01*
X196722626Y-97773190D01*
X196493006Y-97662612D01*
X196493008Y-97662612D01*
X196249466Y-97587489D01*
X196249462Y-97587488D01*
X196249458Y-97587487D01*
X196128231Y-97569214D01*
X195997440Y-97549500D01*
X195997435Y-97549500D01*
X195742565Y-97549500D01*
X195742559Y-97549500D01*
X195594504Y-97571817D01*
X195490542Y-97587487D01*
X195490539Y-97587488D01*
X195490533Y-97587489D01*
X195246992Y-97662612D01*
X195017373Y-97773190D01*
X195017372Y-97773191D01*
X194806782Y-97916768D01*
X194619952Y-98090121D01*
X194619950Y-98090123D01*
X194461041Y-98289388D01*
X194333608Y-98510109D01*
X194240492Y-98747362D01*
X194240490Y-98747369D01*
X194183777Y-98995845D01*
X194164732Y-99249995D01*
X182330499Y-99249995D01*
X182330499Y-98002128D01*
X182324091Y-97942517D01*
X182318619Y-97927847D01*
X182273797Y-97807671D01*
X182273793Y-97807664D01*
X182187547Y-97692455D01*
X182187544Y-97692452D01*
X182072335Y-97606206D01*
X182072328Y-97606202D01*
X181937482Y-97555908D01*
X181937483Y-97555908D01*
X181877883Y-97549501D01*
X181877881Y-97549500D01*
X181877873Y-97549500D01*
X181877864Y-97549500D01*
X179382129Y-97549500D01*
X179382123Y-97549501D01*
X179322516Y-97555908D01*
X179187671Y-97606202D01*
X179187664Y-97606206D01*
X179072455Y-97692452D01*
X179072452Y-97692455D01*
X178986206Y-97807664D01*
X178986202Y-97807671D01*
X178935908Y-97942517D01*
X178929501Y-98002116D01*
X178929501Y-98002123D01*
X178929500Y-98002135D01*
X161793818Y-98002135D01*
X153441819Y-89650136D01*
X153408334Y-89588813D01*
X153405500Y-89562455D01*
X153405500Y-72915368D01*
X153425185Y-72848329D01*
X153437339Y-72832408D01*
X153440561Y-72828830D01*
X153500042Y-72792180D01*
X153569900Y-72793505D01*
X153620395Y-72824117D01*
X154358181Y-73561903D01*
X154391666Y-73623226D01*
X154394500Y-73649584D01*
X154394500Y-74614565D01*
X154419687Y-74741194D01*
X154419690Y-74741203D01*
X154469100Y-74860491D01*
X154469101Y-74860493D01*
X154540839Y-74967856D01*
X154540842Y-74967860D01*
X155105840Y-75532857D01*
X155171812Y-75598829D01*
X155197144Y-75624161D01*
X155250459Y-75659785D01*
X155304504Y-75695897D01*
X155304505Y-75695897D01*
X155304506Y-75695898D01*
X155304508Y-75695899D01*
X155373640Y-75724534D01*
X155423798Y-75745310D01*
X155423800Y-75745310D01*
X155423805Y-75745312D01*
X155550434Y-75770499D01*
X155550438Y-75770500D01*
X155550439Y-75770500D01*
X156422857Y-75770500D01*
X156422858Y-75770499D01*
X156465069Y-75762103D01*
X156549489Y-75745312D01*
X156549492Y-75745310D01*
X156549497Y-75745310D01*
X156668791Y-75695897D01*
X156776152Y-75624160D01*
X159588572Y-72811740D01*
X162422819Y-69977494D01*
X162484142Y-69944009D01*
X162553834Y-69948993D01*
X162609767Y-69990865D01*
X162634184Y-70056329D01*
X162634500Y-70065175D01*
X162634500Y-85831082D01*
X162614815Y-85898121D01*
X162564302Y-85942802D01*
X162397370Y-86023192D01*
X162186782Y-86166768D01*
X161999952Y-86340121D01*
X161999950Y-86340123D01*
X161841041Y-86539388D01*
X161713608Y-86760109D01*
X161620492Y-86997362D01*
X161620490Y-86997369D01*
X161563777Y-87245845D01*
X161544732Y-87499995D01*
X161544732Y-87500004D01*
X161563777Y-87754154D01*
X161619864Y-87999888D01*
X161620492Y-88002637D01*
X161713607Y-88239888D01*
X161841041Y-88460612D01*
X161999950Y-88659877D01*
X162186783Y-88833232D01*
X162397366Y-88976805D01*
X162397371Y-88976807D01*
X162397372Y-88976808D01*
X162397373Y-88976809D01*
X162519328Y-89035538D01*
X162626992Y-89087387D01*
X162626993Y-89087387D01*
X162626996Y-89087389D01*
X162870542Y-89162513D01*
X163122565Y-89200500D01*
X163377435Y-89200500D01*
X163629458Y-89162513D01*
X163873004Y-89087389D01*
X164102634Y-88976805D01*
X164313217Y-88833232D01*
X164500050Y-88659877D01*
X164658959Y-88460612D01*
X164786393Y-88239888D01*
X164788625Y-88234198D01*
X164831440Y-88178986D01*
X164897309Y-88155684D01*
X164904054Y-88155500D01*
X167981857Y-88155500D01*
X168048896Y-88175185D01*
X168089247Y-88217506D01*
X168091036Y-88220606D01*
X168091040Y-88220611D01*
X168091041Y-88220612D01*
X168249950Y-88419877D01*
X168436783Y-88593232D01*
X168647366Y-88736805D01*
X168647371Y-88736807D01*
X168647372Y-88736808D01*
X168647373Y-88736809D01*
X168769328Y-88795538D01*
X168876992Y-88847387D01*
X168876993Y-88847387D01*
X168876996Y-88847389D01*
X169120542Y-88922513D01*
X169365419Y-88959422D01*
X169368624Y-88959906D01*
X169431981Y-88989363D01*
X169437823Y-88994840D01*
X173617139Y-93174157D01*
X173617143Y-93174160D01*
X173724504Y-93245897D01*
X173724505Y-93245897D01*
X173724506Y-93245898D01*
X173724508Y-93245899D01*
X173804033Y-93278839D01*
X173843798Y-93295310D01*
X173843800Y-93295310D01*
X173843805Y-93295312D01*
X173970434Y-93320499D01*
X173970438Y-93320500D01*
X173970439Y-93320500D01*
X174099561Y-93320500D01*
X193092121Y-93320500D01*
X193159160Y-93340185D01*
X193179802Y-93356819D01*
X204413181Y-104590198D01*
X204446666Y-104651521D01*
X204449500Y-104677879D01*
X204449500Y-106847870D01*
X204449501Y-106847876D01*
X204455908Y-106907483D01*
X204506202Y-107042328D01*
X204506206Y-107042335D01*
X204592452Y-107157544D01*
X204592455Y-107157547D01*
X204707664Y-107243793D01*
X204707671Y-107243797D01*
X204842517Y-107294091D01*
X204842516Y-107294091D01*
X204849444Y-107294835D01*
X204902127Y-107300500D01*
X207597872Y-107300499D01*
X207657483Y-107294091D01*
X207792331Y-107243796D01*
X207907546Y-107157546D01*
X207993796Y-107042331D01*
X208044091Y-106907483D01*
X208050500Y-106847873D01*
X208050499Y-104152128D01*
X208044091Y-104092517D01*
X208042178Y-104087389D01*
X207993797Y-103957671D01*
X207993793Y-103957664D01*
X207907547Y-103842455D01*
X207907544Y-103842452D01*
X207792335Y-103756206D01*
X207792328Y-103756202D01*
X207657482Y-103705908D01*
X207657483Y-103705908D01*
X207597883Y-103699501D01*
X207597881Y-103699500D01*
X207597873Y-103699500D01*
X207597865Y-103699500D01*
X205427879Y-103699500D01*
X205360840Y-103679815D01*
X205340198Y-103663181D01*
X202177012Y-100499995D01*
X204444451Y-100499995D01*
X204444451Y-100500004D01*
X204464616Y-100769101D01*
X204524664Y-101032188D01*
X204524666Y-101032195D01*
X204577482Y-101166768D01*
X204623257Y-101283398D01*
X204758185Y-101517102D01*
X204808443Y-101580123D01*
X204926442Y-101728089D01*
X205113183Y-101901358D01*
X205124259Y-101911635D01*
X205347226Y-102063651D01*
X205590359Y-102180738D01*
X205848228Y-102260280D01*
X205848229Y-102260280D01*
X205848232Y-102260281D01*
X206115063Y-102300499D01*
X206115068Y-102300499D01*
X206115071Y-102300500D01*
X206115072Y-102300500D01*
X206384928Y-102300500D01*
X206384929Y-102300500D01*
X206384936Y-102300499D01*
X206651767Y-102260281D01*
X206651768Y-102260280D01*
X206651772Y-102260280D01*
X206909641Y-102180738D01*
X207152775Y-102063651D01*
X207375741Y-101911635D01*
X207573561Y-101728085D01*
X207741815Y-101517102D01*
X207876743Y-101283398D01*
X207975334Y-101032195D01*
X208035383Y-100769103D01*
X208049312Y-100583231D01*
X208055549Y-100500004D01*
X208055549Y-100499995D01*
X208035383Y-100230898D01*
X208030753Y-100210611D01*
X207975334Y-99967805D01*
X207876743Y-99716602D01*
X207741815Y-99482898D01*
X207573561Y-99271915D01*
X207573560Y-99271914D01*
X207573557Y-99271910D01*
X207375741Y-99088365D01*
X207240036Y-98995843D01*
X207152775Y-98936349D01*
X207152769Y-98936346D01*
X207152768Y-98936345D01*
X207152767Y-98936344D01*
X206909643Y-98819263D01*
X206909645Y-98819263D01*
X206651773Y-98739720D01*
X206651767Y-98739718D01*
X206384936Y-98699500D01*
X206384929Y-98699500D01*
X206115071Y-98699500D01*
X206115063Y-98699500D01*
X205848232Y-98739718D01*
X205848226Y-98739720D01*
X205590358Y-98819262D01*
X205347230Y-98936346D01*
X205124258Y-99088365D01*
X204926442Y-99271910D01*
X204758185Y-99482898D01*
X204623258Y-99716599D01*
X204623256Y-99716603D01*
X204524666Y-99967804D01*
X204524664Y-99967811D01*
X204464616Y-100230898D01*
X204444451Y-100499995D01*
X202177012Y-100499995D01*
X197177013Y-95499995D01*
X204444451Y-95499995D01*
X204444451Y-95500004D01*
X204464616Y-95769101D01*
X204524664Y-96032188D01*
X204524666Y-96032195D01*
X204623257Y-96283398D01*
X204758185Y-96517102D01*
X204894080Y-96687509D01*
X204926442Y-96728089D01*
X205113183Y-96901358D01*
X205124259Y-96911635D01*
X205347226Y-97063651D01*
X205590359Y-97180738D01*
X205848228Y-97260280D01*
X205848229Y-97260280D01*
X205848232Y-97260281D01*
X206115063Y-97300499D01*
X206115068Y-97300499D01*
X206115071Y-97300500D01*
X206115072Y-97300500D01*
X206384928Y-97300500D01*
X206384929Y-97300500D01*
X206384936Y-97300499D01*
X206651767Y-97260281D01*
X206651768Y-97260280D01*
X206651772Y-97260280D01*
X206909641Y-97180738D01*
X207152775Y-97063651D01*
X207375741Y-96911635D01*
X207573561Y-96728085D01*
X207741815Y-96517102D01*
X207876743Y-96283398D01*
X207975334Y-96032195D01*
X208035383Y-95769103D01*
X208055549Y-95500000D01*
X208035383Y-95230897D01*
X207975334Y-94967805D01*
X207876743Y-94716602D01*
X207741815Y-94482898D01*
X207573561Y-94271915D01*
X207573560Y-94271914D01*
X207573557Y-94271910D01*
X207375741Y-94088365D01*
X207152775Y-93936349D01*
X207152769Y-93936346D01*
X207152768Y-93936345D01*
X207152767Y-93936344D01*
X206909643Y-93819263D01*
X206909645Y-93819263D01*
X206651773Y-93739720D01*
X206651767Y-93739718D01*
X206384936Y-93699500D01*
X206384929Y-93699500D01*
X206115071Y-93699500D01*
X206115063Y-93699500D01*
X205848232Y-93739718D01*
X205848226Y-93739720D01*
X205590358Y-93819262D01*
X205347230Y-93936346D01*
X205124258Y-94088365D01*
X204926442Y-94271910D01*
X204758185Y-94482898D01*
X204623258Y-94716599D01*
X204623256Y-94716603D01*
X204524666Y-94967804D01*
X204524664Y-94967811D01*
X204464616Y-95230898D01*
X204444451Y-95499995D01*
X197177013Y-95499995D01*
X193832860Y-92155842D01*
X193832856Y-92155839D01*
X193725493Y-92084101D01*
X193725491Y-92084100D01*
X193606203Y-92034690D01*
X193606194Y-92034687D01*
X193479565Y-92009500D01*
X193479561Y-92009500D01*
X182834500Y-92009500D01*
X182767461Y-91989815D01*
X182721706Y-91937011D01*
X182710500Y-91885500D01*
X182710500Y-90999995D01*
X194544732Y-90999995D01*
X194544732Y-91000004D01*
X194563777Y-91254154D01*
X194611099Y-91461486D01*
X194620492Y-91502637D01*
X194713607Y-91739888D01*
X194841041Y-91960612D01*
X194999950Y-92159877D01*
X195186783Y-92333232D01*
X195397366Y-92476805D01*
X195397371Y-92476807D01*
X195397372Y-92476808D01*
X195397373Y-92476809D01*
X195519328Y-92535538D01*
X195626992Y-92587387D01*
X195626993Y-92587387D01*
X195626996Y-92587389D01*
X195870542Y-92662513D01*
X196122565Y-92700500D01*
X196377435Y-92700500D01*
X196629458Y-92662513D01*
X196873004Y-92587389D01*
X197102634Y-92476805D01*
X197313217Y-92333232D01*
X197500050Y-92159877D01*
X197658959Y-91960612D01*
X197786393Y-91739888D01*
X197879508Y-91502637D01*
X197936222Y-91254157D01*
X197948059Y-91096195D01*
X197955268Y-91000004D01*
X197955268Y-90999995D01*
X197936222Y-90745845D01*
X197931357Y-90724531D01*
X197880109Y-90499995D01*
X204444451Y-90499995D01*
X204444451Y-90500004D01*
X204464616Y-90769101D01*
X204524664Y-91032188D01*
X204524666Y-91032195D01*
X204611780Y-91254157D01*
X204623257Y-91283398D01*
X204758185Y-91517102D01*
X204894080Y-91687509D01*
X204926442Y-91728089D01*
X205077073Y-91867853D01*
X205124259Y-91911635D01*
X205347226Y-92063651D01*
X205590359Y-92180738D01*
X205848228Y-92260280D01*
X205848229Y-92260280D01*
X205848232Y-92260281D01*
X206115063Y-92300499D01*
X206115068Y-92300499D01*
X206115071Y-92300500D01*
X206115072Y-92300500D01*
X206384928Y-92300500D01*
X206384929Y-92300500D01*
X206384936Y-92300499D01*
X206651767Y-92260281D01*
X206651768Y-92260280D01*
X206651772Y-92260280D01*
X206909641Y-92180738D01*
X207152775Y-92063651D01*
X207375741Y-91911635D01*
X207560838Y-91739890D01*
X207573557Y-91728089D01*
X207573557Y-91728087D01*
X207573561Y-91728085D01*
X207741815Y-91517102D01*
X207876743Y-91283398D01*
X207975334Y-91032195D01*
X208035383Y-90769103D01*
X208042105Y-90679402D01*
X208055549Y-90500004D01*
X208055549Y-90499995D01*
X208035383Y-90230898D01*
X208035383Y-90230897D01*
X207975334Y-89967805D01*
X207876743Y-89716602D01*
X207741815Y-89482898D01*
X207573561Y-89271915D01*
X207573560Y-89271914D01*
X207573557Y-89271910D01*
X207375741Y-89088365D01*
X207374307Y-89087387D01*
X207152775Y-88936349D01*
X207152769Y-88936346D01*
X207152768Y-88936345D01*
X207152767Y-88936344D01*
X206909643Y-88819263D01*
X206909645Y-88819263D01*
X206651773Y-88739720D01*
X206651767Y-88739718D01*
X206384936Y-88699500D01*
X206384929Y-88699500D01*
X206115071Y-88699500D01*
X206115063Y-88699500D01*
X205848232Y-88739718D01*
X205848226Y-88739720D01*
X205590358Y-88819262D01*
X205347230Y-88936346D01*
X205124258Y-89088365D01*
X204926442Y-89271910D01*
X204758185Y-89482898D01*
X204623258Y-89716599D01*
X204623256Y-89716603D01*
X204524666Y-89967804D01*
X204524664Y-89967811D01*
X204464616Y-90230898D01*
X204444451Y-90499995D01*
X197880109Y-90499995D01*
X197879508Y-90497363D01*
X197786393Y-90260112D01*
X197658959Y-90039388D01*
X197500050Y-89840123D01*
X197313217Y-89666768D01*
X197102634Y-89523195D01*
X197102630Y-89523193D01*
X197102627Y-89523191D01*
X197102626Y-89523190D01*
X196873006Y-89412612D01*
X196873008Y-89412612D01*
X196629466Y-89337489D01*
X196629462Y-89337488D01*
X196629458Y-89337487D01*
X196508231Y-89319214D01*
X196377440Y-89299500D01*
X196377435Y-89299500D01*
X196122565Y-89299500D01*
X196122559Y-89299500D01*
X195965609Y-89323157D01*
X195870542Y-89337487D01*
X195870539Y-89337488D01*
X195870533Y-89337489D01*
X195626992Y-89412612D01*
X195397373Y-89523190D01*
X195397372Y-89523191D01*
X195186782Y-89666768D01*
X194999952Y-89840121D01*
X194999950Y-89840123D01*
X194841041Y-90039388D01*
X194713608Y-90260109D01*
X194620492Y-90497362D01*
X194620490Y-90497369D01*
X194563777Y-90745845D01*
X194544732Y-90999995D01*
X182710500Y-90999995D01*
X182710499Y-89752129D01*
X182710498Y-89752123D01*
X182710497Y-89752116D01*
X182704091Y-89692517D01*
X182694487Y-89666768D01*
X182653797Y-89557671D01*
X182653793Y-89557664D01*
X182567547Y-89442455D01*
X182567544Y-89442452D01*
X182452335Y-89356206D01*
X182452328Y-89356202D01*
X182317482Y-89305908D01*
X182317483Y-89305908D01*
X182257883Y-89299501D01*
X182257881Y-89299500D01*
X182257873Y-89299500D01*
X182257864Y-89299500D01*
X179762129Y-89299500D01*
X179762123Y-89299501D01*
X179702516Y-89305908D01*
X179567671Y-89356202D01*
X179567664Y-89356206D01*
X179452455Y-89442452D01*
X179452452Y-89442455D01*
X179366206Y-89557664D01*
X179366202Y-89557671D01*
X179315908Y-89692517D01*
X179313319Y-89716602D01*
X179309501Y-89752123D01*
X179309500Y-89752135D01*
X179309501Y-91885500D01*
X179289816Y-91952539D01*
X179237013Y-91998294D01*
X179185501Y-92009500D01*
X177094077Y-92009500D01*
X177027038Y-91989815D01*
X176981283Y-91937011D01*
X176971339Y-91867853D01*
X176986690Y-91823500D01*
X176996700Y-91806161D01*
X177048088Y-91717155D01*
X177106583Y-91537127D01*
X177119247Y-91416626D01*
X177145831Y-91352013D01*
X177154878Y-91341917D01*
X180228330Y-88268467D01*
X180289653Y-88234982D01*
X180316011Y-88232148D01*
X186021317Y-88232148D01*
X186021318Y-88232147D01*
X186063529Y-88223751D01*
X186147949Y-88206960D01*
X186147952Y-88206958D01*
X186147957Y-88206958D01*
X186267251Y-88157545D01*
X186374612Y-88085808D01*
X188960425Y-85499995D01*
X204444451Y-85499995D01*
X204444451Y-85500004D01*
X204464616Y-85769101D01*
X204524664Y-86032188D01*
X204524666Y-86032195D01*
X204577482Y-86166768D01*
X204623257Y-86283398D01*
X204758185Y-86517102D01*
X204775958Y-86539388D01*
X204926442Y-86728089D01*
X205107856Y-86896415D01*
X205124259Y-86911635D01*
X205347226Y-87063651D01*
X205347229Y-87063652D01*
X205347230Y-87063653D01*
X205355198Y-87067490D01*
X205590359Y-87180738D01*
X205848228Y-87260280D01*
X205848229Y-87260280D01*
X205848232Y-87260281D01*
X206115063Y-87300499D01*
X206115068Y-87300499D01*
X206115071Y-87300500D01*
X206115072Y-87300500D01*
X206384928Y-87300500D01*
X206384929Y-87300500D01*
X206384936Y-87300499D01*
X206651767Y-87260281D01*
X206651768Y-87260280D01*
X206651772Y-87260280D01*
X206909641Y-87180738D01*
X207144803Y-87067490D01*
X207152767Y-87063655D01*
X207152767Y-87063654D01*
X207152775Y-87063651D01*
X207375741Y-86911635D01*
X207573561Y-86728085D01*
X207741815Y-86517102D01*
X207876743Y-86283398D01*
X207975334Y-86032195D01*
X208035383Y-85769103D01*
X208042614Y-85672611D01*
X208055549Y-85500004D01*
X208055549Y-85499995D01*
X208035383Y-85230898D01*
X208035383Y-85230897D01*
X207975334Y-84967805D01*
X207876743Y-84716602D01*
X207741815Y-84482898D01*
X207573561Y-84271915D01*
X207573560Y-84271914D01*
X207573557Y-84271910D01*
X207375741Y-84088365D01*
X207152775Y-83936349D01*
X207152769Y-83936346D01*
X207152768Y-83936345D01*
X207152767Y-83936344D01*
X206909643Y-83819263D01*
X206909645Y-83819263D01*
X206651773Y-83739720D01*
X206651767Y-83739718D01*
X206384936Y-83699500D01*
X206384929Y-83699500D01*
X206115071Y-83699500D01*
X206115063Y-83699500D01*
X205848232Y-83739718D01*
X205848226Y-83739720D01*
X205590358Y-83819262D01*
X205347230Y-83936346D01*
X205124258Y-84088365D01*
X204926442Y-84271910D01*
X204758185Y-84482898D01*
X204623258Y-84716599D01*
X204623256Y-84716603D01*
X204524666Y-84967804D01*
X204524664Y-84967811D01*
X204464616Y-85230898D01*
X204444451Y-85499995D01*
X188960425Y-85499995D01*
X189259160Y-85201260D01*
X189330897Y-85093899D01*
X189380310Y-84974605D01*
X189381662Y-84967811D01*
X189405499Y-84847968D01*
X189405500Y-84847965D01*
X189405500Y-79242879D01*
X189425185Y-79175840D01*
X189441819Y-79155198D01*
X189897517Y-78699500D01*
X190377368Y-78219648D01*
X190438689Y-78186165D01*
X190508380Y-78191149D01*
X190564314Y-78233021D01*
X190582978Y-78269013D01*
X190612271Y-78359168D01*
X190644780Y-78459219D01*
X190721356Y-78609508D01*
X190737715Y-78641613D01*
X190858028Y-78807213D01*
X191002786Y-78951971D01*
X191123108Y-79039388D01*
X191168390Y-79072287D01*
X191259840Y-79118883D01*
X191261080Y-79119515D01*
X191311876Y-79167490D01*
X191328671Y-79235311D01*
X191306134Y-79301446D01*
X191261080Y-79340485D01*
X191168386Y-79387715D01*
X191002786Y-79508028D01*
X190858028Y-79652786D01*
X190737715Y-79818386D01*
X190644781Y-80000776D01*
X190581522Y-80195465D01*
X190549500Y-80397648D01*
X190549500Y-80602351D01*
X190581522Y-80804534D01*
X190644781Y-80999223D01*
X190661919Y-81032857D01*
X190726639Y-81159877D01*
X190737715Y-81181613D01*
X190858028Y-81347213D01*
X191002786Y-81491971D01*
X191157749Y-81604556D01*
X191168390Y-81612287D01*
X191266958Y-81662510D01*
X191350776Y-81705218D01*
X191350778Y-81705218D01*
X191350781Y-81705220D01*
X191421165Y-81728089D01*
X191545465Y-81768477D01*
X191646557Y-81784488D01*
X191747648Y-81800500D01*
X191747649Y-81800500D01*
X192752351Y-81800500D01*
X192752352Y-81800500D01*
X192954534Y-81768477D01*
X193149219Y-81705220D01*
X193331610Y-81612287D01*
X193462622Y-81517102D01*
X193497213Y-81491971D01*
X193497215Y-81491968D01*
X193497219Y-81491966D01*
X193641966Y-81347219D01*
X193641968Y-81347215D01*
X193641971Y-81347213D01*
X193716006Y-81245311D01*
X193762287Y-81181610D01*
X193855220Y-80999219D01*
X193918477Y-80804534D01*
X193950500Y-80602352D01*
X193950500Y-80397648D01*
X193927773Y-80254157D01*
X193918477Y-80195465D01*
X193855218Y-80000776D01*
X193800716Y-79893812D01*
X193762287Y-79818390D01*
X193754556Y-79807749D01*
X193641971Y-79652786D01*
X193497213Y-79508028D01*
X193331614Y-79387715D01*
X193319840Y-79381716D01*
X193238917Y-79340483D01*
X193188123Y-79292511D01*
X193171328Y-79224690D01*
X193193865Y-79158555D01*
X193238917Y-79119516D01*
X193331610Y-79072287D01*
X193384104Y-79034148D01*
X193497213Y-78951971D01*
X193497215Y-78951968D01*
X193497219Y-78951966D01*
X193641966Y-78807219D01*
X193641968Y-78807215D01*
X193641971Y-78807213D01*
X193698943Y-78728796D01*
X193762287Y-78641610D01*
X193855220Y-78459219D01*
X193918477Y-78264534D01*
X193950500Y-78062352D01*
X193950500Y-77857648D01*
X193918477Y-77655466D01*
X193918476Y-77655464D01*
X193874092Y-77518864D01*
X193855220Y-77460781D01*
X193855218Y-77460778D01*
X193855218Y-77460776D01*
X193792810Y-77338294D01*
X193765461Y-77284620D01*
X193752566Y-77215953D01*
X193778842Y-77151212D01*
X193835948Y-77110955D01*
X193905754Y-77107963D01*
X193963628Y-77140646D01*
X197855840Y-81032857D01*
X197947143Y-81124160D01*
X198054504Y-81195897D01*
X198054505Y-81195897D01*
X198054506Y-81195898D01*
X198096680Y-81213367D01*
X198138856Y-81230837D01*
X198173797Y-81245310D01*
X198300434Y-81270499D01*
X198300438Y-81270500D01*
X198300439Y-81270500D01*
X202584562Y-81270500D01*
X202584563Y-81270499D01*
X202626774Y-81262103D01*
X202711194Y-81245312D01*
X202711197Y-81245310D01*
X202711202Y-81245310D01*
X202830496Y-81195897D01*
X202937857Y-81124160D01*
X203490198Y-80571819D01*
X203551521Y-80538334D01*
X203577879Y-80535500D01*
X203594644Y-80535500D01*
X203594646Y-80535500D01*
X203779803Y-80496144D01*
X203952730Y-80419151D01*
X204105871Y-80307888D01*
X204232533Y-80167216D01*
X204233073Y-80166279D01*
X204233529Y-80165844D01*
X204236355Y-80161956D01*
X204237065Y-80162472D01*
X204283633Y-80118061D01*
X204352239Y-80104831D01*
X204417106Y-80130792D01*
X204457641Y-80187702D01*
X204464118Y-80237537D01*
X204444451Y-80499995D01*
X204444451Y-80500004D01*
X204464616Y-80769101D01*
X204517139Y-80999219D01*
X204524666Y-81032195D01*
X204623257Y-81283398D01*
X204758185Y-81517102D01*
X204874145Y-81662511D01*
X204926442Y-81728089D01*
X205113183Y-81901358D01*
X205124259Y-81911635D01*
X205347226Y-82063651D01*
X205590359Y-82180738D01*
X205848228Y-82260280D01*
X205848229Y-82260280D01*
X205848232Y-82260281D01*
X206115063Y-82300499D01*
X206115068Y-82300499D01*
X206115071Y-82300500D01*
X206115072Y-82300500D01*
X206384928Y-82300500D01*
X206384929Y-82300500D01*
X206384936Y-82300499D01*
X206651767Y-82260281D01*
X206651768Y-82260280D01*
X206651772Y-82260280D01*
X206909641Y-82180738D01*
X207152775Y-82063651D01*
X207375741Y-81911635D01*
X207573561Y-81728085D01*
X207741815Y-81517102D01*
X207876743Y-81283398D01*
X207975334Y-81032195D01*
X208035383Y-80769103D01*
X208050167Y-80571819D01*
X208055549Y-80500004D01*
X208055549Y-80499995D01*
X208035383Y-80230898D01*
X208019765Y-80162472D01*
X207975334Y-79967805D01*
X207876743Y-79716602D01*
X207741815Y-79482898D01*
X207573561Y-79271915D01*
X207573560Y-79271914D01*
X207573557Y-79271910D01*
X207375741Y-79088365D01*
X207352159Y-79072287D01*
X207152775Y-78936349D01*
X207152769Y-78936346D01*
X207152768Y-78936345D01*
X207152767Y-78936344D01*
X206909643Y-78819263D01*
X206909645Y-78819263D01*
X206651773Y-78739720D01*
X206651767Y-78739718D01*
X206384936Y-78699500D01*
X206384929Y-78699500D01*
X206115071Y-78699500D01*
X206115063Y-78699500D01*
X205848232Y-78739718D01*
X205848226Y-78739720D01*
X205590358Y-78819262D01*
X205347230Y-78936346D01*
X205124258Y-79088365D01*
X204926442Y-79271910D01*
X204758185Y-79482898D01*
X204636847Y-79693062D01*
X204586280Y-79741278D01*
X204517673Y-79754501D01*
X204452808Y-79728533D01*
X204412280Y-79671618D01*
X204407190Y-79641352D01*
X204406139Y-79641463D01*
X204405460Y-79635000D01*
X204385674Y-79446744D01*
X204327179Y-79266716D01*
X204232533Y-79102784D01*
X204105871Y-78962112D01*
X204105870Y-78962111D01*
X203952734Y-78850851D01*
X203952729Y-78850848D01*
X203779807Y-78773857D01*
X203779802Y-78773855D01*
X203619195Y-78739718D01*
X203594646Y-78734500D01*
X203405354Y-78734500D01*
X203380805Y-78739718D01*
X203220197Y-78773855D01*
X203220192Y-78773857D01*
X203047270Y-78850848D01*
X203047265Y-78850851D01*
X202894129Y-78962111D01*
X202767465Y-79102785D01*
X202699189Y-79221044D01*
X202648622Y-79269260D01*
X202580015Y-79282483D01*
X202515150Y-79256514D01*
X202484414Y-79221042D01*
X202482533Y-79217784D01*
X202437350Y-79167603D01*
X202407120Y-79104611D01*
X202405500Y-79084631D01*
X202405500Y-78898626D01*
X202405499Y-78898623D01*
X202401856Y-78880310D01*
X202392028Y-78830897D01*
X202392028Y-78830894D01*
X202380311Y-78771991D01*
X202380310Y-78771985D01*
X202340023Y-78674726D01*
X202330898Y-78652694D01*
X202259160Y-78545331D01*
X202259157Y-78545327D01*
X199312659Y-75598829D01*
X199279174Y-75537506D01*
X199281857Y-75499995D01*
X204444451Y-75499995D01*
X204444451Y-75500004D01*
X204464616Y-75769101D01*
X204501295Y-75929802D01*
X204524666Y-76032195D01*
X204623257Y-76283398D01*
X204758185Y-76517102D01*
X204844407Y-76625220D01*
X204926442Y-76728089D01*
X205113183Y-76901358D01*
X205124259Y-76911635D01*
X205347226Y-77063651D01*
X205590359Y-77180738D01*
X205848228Y-77260280D01*
X205848229Y-77260280D01*
X205848232Y-77260281D01*
X206115063Y-77300499D01*
X206115068Y-77300499D01*
X206115071Y-77300500D01*
X206115072Y-77300500D01*
X206384928Y-77300500D01*
X206384929Y-77300500D01*
X206384936Y-77300499D01*
X206651767Y-77260281D01*
X206651768Y-77260280D01*
X206651772Y-77260280D01*
X206909641Y-77180738D01*
X207152775Y-77063651D01*
X207375741Y-76911635D01*
X207573561Y-76728085D01*
X207741815Y-76517102D01*
X207876743Y-76283398D01*
X207975334Y-76032195D01*
X208035383Y-75769103D01*
X208048143Y-75598829D01*
X208055549Y-75500004D01*
X208055549Y-75499995D01*
X208035383Y-75230898D01*
X208019095Y-75159536D01*
X207975334Y-74967805D01*
X207876743Y-74716602D01*
X207741815Y-74482898D01*
X207573561Y-74271915D01*
X207573560Y-74271914D01*
X207573557Y-74271910D01*
X207375741Y-74088365D01*
X207304091Y-74039515D01*
X207152775Y-73936349D01*
X207152769Y-73936346D01*
X207152768Y-73936345D01*
X207152767Y-73936344D01*
X206909643Y-73819263D01*
X206909645Y-73819263D01*
X206651773Y-73739720D01*
X206651767Y-73739718D01*
X206384936Y-73699500D01*
X206384929Y-73699500D01*
X206115071Y-73699500D01*
X206115063Y-73699500D01*
X205848232Y-73739718D01*
X205848226Y-73739720D01*
X205590358Y-73819262D01*
X205347230Y-73936346D01*
X205124258Y-74088365D01*
X204926442Y-74271910D01*
X204758185Y-74482898D01*
X204623258Y-74716599D01*
X204623256Y-74716603D01*
X204524666Y-74967804D01*
X204524664Y-74967811D01*
X204464616Y-75230898D01*
X204444451Y-75499995D01*
X199281857Y-75499995D01*
X199284158Y-75467814D01*
X199326030Y-75411881D01*
X199391494Y-75387464D01*
X199400340Y-75387148D01*
X199581292Y-75387148D01*
X199581294Y-75387148D01*
X199766451Y-75347792D01*
X199939378Y-75270799D01*
X200092519Y-75159536D01*
X200219181Y-75018864D01*
X200313827Y-74854932D01*
X200372322Y-74674904D01*
X200392108Y-74486648D01*
X200372322Y-74298392D01*
X200313827Y-74118364D01*
X200219181Y-73954432D01*
X200173998Y-73904251D01*
X200143768Y-73841259D01*
X200142148Y-73821279D01*
X200142148Y-69892086D01*
X200142147Y-69892082D01*
X200116960Y-69765453D01*
X200116957Y-69765444D01*
X200067547Y-69646156D01*
X200067546Y-69646154D01*
X200065727Y-69643432D01*
X199995808Y-69538791D01*
X199904505Y-69447488D01*
X193858509Y-63401492D01*
X193825024Y-63340169D01*
X193830008Y-63270477D01*
X193835697Y-63257533D01*
X193855220Y-63219219D01*
X193918477Y-63024534D01*
X193950500Y-62822352D01*
X193950500Y-62617648D01*
X193918477Y-62415466D01*
X193914339Y-62402732D01*
X193881122Y-62300499D01*
X193855220Y-62220781D01*
X193855218Y-62220778D01*
X193855218Y-62220776D01*
X193813702Y-62139297D01*
X193762287Y-62038390D01*
X193751896Y-62024088D01*
X193641971Y-61872786D01*
X193497213Y-61728028D01*
X193331614Y-61607715D01*
X193307022Y-61595185D01*
X193238917Y-61560483D01*
X193188123Y-61512511D01*
X193171328Y-61444690D01*
X193193865Y-61378555D01*
X193238917Y-61339516D01*
X193331610Y-61292287D01*
X193436819Y-61215849D01*
X193497213Y-61171971D01*
X193497215Y-61171968D01*
X193497219Y-61171966D01*
X193641966Y-61027219D01*
X193641968Y-61027215D01*
X193641971Y-61027213D01*
X193726504Y-60910861D01*
X193762287Y-60861610D01*
X193855220Y-60679219D01*
X193917022Y-60489011D01*
X193956458Y-60431338D01*
X194020817Y-60404139D01*
X194089663Y-60416054D01*
X194122633Y-60439650D01*
X202794828Y-69111845D01*
X202828313Y-69173168D01*
X202831147Y-69199526D01*
X202831147Y-69821279D01*
X202811462Y-69888318D01*
X202799297Y-69904251D01*
X202754113Y-69954433D01*
X202659468Y-70118363D01*
X202659465Y-70118370D01*
X202606229Y-70282216D01*
X202600973Y-70298392D01*
X202581187Y-70486648D01*
X202600973Y-70674904D01*
X202600974Y-70674907D01*
X202659465Y-70854925D01*
X202659468Y-70854932D01*
X202754114Y-71018864D01*
X202802772Y-71072904D01*
X202880776Y-71159536D01*
X203033912Y-71270796D01*
X203033917Y-71270799D01*
X203206839Y-71347790D01*
X203206844Y-71347792D01*
X203392001Y-71387148D01*
X203392002Y-71387148D01*
X203581291Y-71387148D01*
X203581293Y-71387148D01*
X203766450Y-71347792D01*
X203939377Y-71270799D01*
X204092518Y-71159536D01*
X204219180Y-71018864D01*
X204277961Y-70917052D01*
X204328526Y-70868838D01*
X204397133Y-70855614D01*
X204461998Y-70881582D01*
X204502527Y-70938496D01*
X204506238Y-70951460D01*
X204521623Y-71018864D01*
X204524666Y-71032195D01*
X204623257Y-71283398D01*
X204758185Y-71517102D01*
X204887440Y-71679182D01*
X204926442Y-71728089D01*
X205092013Y-71881715D01*
X205124259Y-71911635D01*
X205347226Y-72063651D01*
X205590359Y-72180738D01*
X205848228Y-72260280D01*
X205848229Y-72260280D01*
X205848232Y-72260281D01*
X206115063Y-72300499D01*
X206115068Y-72300499D01*
X206115071Y-72300500D01*
X206115072Y-72300500D01*
X206384928Y-72300500D01*
X206384929Y-72300500D01*
X206384936Y-72300499D01*
X206651767Y-72260281D01*
X206651768Y-72260280D01*
X206651772Y-72260280D01*
X206909641Y-72180738D01*
X207152775Y-72063651D01*
X207375741Y-71911635D01*
X207529259Y-71769190D01*
X207573557Y-71728089D01*
X207573557Y-71728087D01*
X207573561Y-71728085D01*
X207741815Y-71517102D01*
X207876743Y-71283398D01*
X207975334Y-71032195D01*
X208035383Y-70769103D01*
X208045678Y-70631722D01*
X208055549Y-70500004D01*
X208055549Y-70499995D01*
X208035383Y-70230898D01*
X208031948Y-70215848D01*
X207975334Y-69967805D01*
X207876743Y-69716602D01*
X207741815Y-69482898D01*
X207573561Y-69271915D01*
X207573560Y-69271914D01*
X207573557Y-69271910D01*
X207375741Y-69088365D01*
X207351038Y-69071523D01*
X207152775Y-68936349D01*
X207152769Y-68936346D01*
X207152768Y-68936345D01*
X207152767Y-68936344D01*
X206909643Y-68819263D01*
X206909645Y-68819263D01*
X206651773Y-68739720D01*
X206651767Y-68739718D01*
X206384936Y-68699500D01*
X206384929Y-68699500D01*
X206115071Y-68699500D01*
X206115063Y-68699500D01*
X205848232Y-68739718D01*
X205848226Y-68739720D01*
X205590358Y-68819262D01*
X205347230Y-68936346D01*
X205124258Y-69088365D01*
X204926442Y-69271910D01*
X204758185Y-69482898D01*
X204623258Y-69716599D01*
X204623256Y-69716603D01*
X204524666Y-69967804D01*
X204524664Y-69967809D01*
X204510606Y-70029402D01*
X204476496Y-70090380D01*
X204414835Y-70123237D01*
X204345197Y-70117541D01*
X204289694Y-70075101D01*
X204282328Y-70063808D01*
X204219180Y-69954432D01*
X204173997Y-69904251D01*
X204143767Y-69841259D01*
X204142147Y-69821279D01*
X204142147Y-68812085D01*
X204142146Y-68812081D01*
X204116959Y-68685452D01*
X204116956Y-68685443D01*
X204116954Y-68685439D01*
X204067544Y-68566151D01*
X204007239Y-68475899D01*
X203995808Y-68458791D01*
X203954701Y-68417684D01*
X203904504Y-68367487D01*
X201037012Y-65499995D01*
X204444451Y-65499995D01*
X204444451Y-65500004D01*
X204464616Y-65769101D01*
X204524664Y-66032188D01*
X204524666Y-66032195D01*
X204610922Y-66251971D01*
X204623257Y-66283398D01*
X204758185Y-66517102D01*
X204856580Y-66640485D01*
X204926442Y-66728089D01*
X205113183Y-66901358D01*
X205124259Y-66911635D01*
X205347226Y-67063651D01*
X205590359Y-67180738D01*
X205848228Y-67260280D01*
X205848229Y-67260280D01*
X205848232Y-67260281D01*
X206115063Y-67300499D01*
X206115068Y-67300499D01*
X206115071Y-67300500D01*
X206115072Y-67300500D01*
X206384928Y-67300500D01*
X206384929Y-67300500D01*
X206417963Y-67295521D01*
X206651767Y-67260281D01*
X206651768Y-67260280D01*
X206651772Y-67260280D01*
X206909641Y-67180738D01*
X207101765Y-67088216D01*
X207152767Y-67063655D01*
X207152767Y-67063654D01*
X207152775Y-67063651D01*
X207375741Y-66911635D01*
X207529259Y-66769190D01*
X207573557Y-66728089D01*
X207573557Y-66728087D01*
X207573561Y-66728085D01*
X207741815Y-66517102D01*
X207876743Y-66283398D01*
X207975334Y-66032195D01*
X208035383Y-65769103D01*
X208051797Y-65550066D01*
X208055549Y-65500004D01*
X208055549Y-65499995D01*
X208035383Y-65230898D01*
X208017925Y-65154409D01*
X207975334Y-64967805D01*
X207876743Y-64716602D01*
X207741815Y-64482898D01*
X207573561Y-64271915D01*
X207573560Y-64271914D01*
X207573557Y-64271910D01*
X207375741Y-64088365D01*
X207326481Y-64054780D01*
X207152775Y-63936349D01*
X207152769Y-63936346D01*
X207152768Y-63936345D01*
X207152767Y-63936344D01*
X206909643Y-63819263D01*
X206909645Y-63819263D01*
X206651773Y-63739720D01*
X206651767Y-63739718D01*
X206384936Y-63699500D01*
X206384929Y-63699500D01*
X206115071Y-63699500D01*
X206115063Y-63699500D01*
X205848232Y-63739718D01*
X205848226Y-63739720D01*
X205590358Y-63819262D01*
X205347230Y-63936346D01*
X205124258Y-64088365D01*
X204926442Y-64271910D01*
X204758185Y-64482898D01*
X204623258Y-64716599D01*
X204623256Y-64716603D01*
X204524666Y-64967804D01*
X204524664Y-64967811D01*
X204464616Y-65230898D01*
X204444451Y-65499995D01*
X201037012Y-65499995D01*
X196037012Y-60499995D01*
X204444451Y-60499995D01*
X204444451Y-60500004D01*
X204464616Y-60769101D01*
X204524664Y-61032188D01*
X204524666Y-61032195D01*
X204623256Y-61283396D01*
X204623258Y-61283400D01*
X204648495Y-61327112D01*
X204758185Y-61517102D01*
X204894080Y-61687509D01*
X204926442Y-61728089D01*
X205113183Y-61901358D01*
X205124259Y-61911635D01*
X205347226Y-62063651D01*
X205590359Y-62180738D01*
X205848228Y-62260280D01*
X205848229Y-62260280D01*
X205848232Y-62260281D01*
X206115063Y-62300499D01*
X206115068Y-62300499D01*
X206115071Y-62300500D01*
X206115072Y-62300500D01*
X206384928Y-62300500D01*
X206384929Y-62300500D01*
X206384936Y-62300499D01*
X206651767Y-62260281D01*
X206651768Y-62260280D01*
X206651772Y-62260280D01*
X206909641Y-62180738D01*
X207152775Y-62063651D01*
X207375741Y-61911635D01*
X207549942Y-61750000D01*
X207573557Y-61728089D01*
X207573557Y-61728087D01*
X207573561Y-61728085D01*
X207741815Y-61517102D01*
X207876743Y-61283398D01*
X207975334Y-61032195D01*
X208035383Y-60769103D01*
X208053806Y-60523258D01*
X208055549Y-60500004D01*
X208055549Y-60499995D01*
X208035383Y-60230898D01*
X208035383Y-60230897D01*
X207975334Y-59967805D01*
X207876743Y-59716602D01*
X207741815Y-59482898D01*
X207573561Y-59271915D01*
X207573560Y-59271914D01*
X207573557Y-59271910D01*
X207375741Y-59088365D01*
X207345450Y-59067713D01*
X207152775Y-58936349D01*
X207152769Y-58936346D01*
X207152768Y-58936345D01*
X207152767Y-58936344D01*
X206909643Y-58819263D01*
X206909645Y-58819263D01*
X206651773Y-58739720D01*
X206651767Y-58739718D01*
X206384936Y-58699500D01*
X206384929Y-58699500D01*
X206115071Y-58699500D01*
X206115063Y-58699500D01*
X205848232Y-58739718D01*
X205848226Y-58739720D01*
X205590358Y-58819262D01*
X205347230Y-58936346D01*
X205124258Y-59088365D01*
X204926442Y-59271910D01*
X204758185Y-59482898D01*
X204623258Y-59716599D01*
X204623256Y-59716603D01*
X204524666Y-59967804D01*
X204524664Y-59967811D01*
X204464616Y-60230898D01*
X204444451Y-60499995D01*
X196037012Y-60499995D01*
X193858509Y-58321492D01*
X193825024Y-58260169D01*
X193830008Y-58190477D01*
X193835697Y-58177533D01*
X193855220Y-58139219D01*
X193918477Y-57944534D01*
X193950500Y-57742352D01*
X193950500Y-57537648D01*
X193918477Y-57335466D01*
X193918033Y-57334101D01*
X193855218Y-57140776D01*
X193815920Y-57063651D01*
X193762287Y-56958390D01*
X193728317Y-56911634D01*
X193641971Y-56792786D01*
X193497213Y-56648028D01*
X193331613Y-56527715D01*
X193331612Y-56527714D01*
X193331610Y-56527713D01*
X193274653Y-56498691D01*
X193149223Y-56434781D01*
X192954534Y-56371522D01*
X192779995Y-56343878D01*
X192752352Y-56339500D01*
X191747648Y-56339500D01*
X191723329Y-56343351D01*
X191545465Y-56371522D01*
X191350776Y-56434781D01*
X191168386Y-56527715D01*
X191002786Y-56648028D01*
X190858028Y-56792786D01*
X190737715Y-56958386D01*
X190644781Y-57140776D01*
X190581522Y-57335465D01*
X190549500Y-57537648D01*
X190549500Y-57742351D01*
X190581522Y-57944534D01*
X190644781Y-58139223D01*
X190737715Y-58321613D01*
X190858028Y-58487213D01*
X191002786Y-58631971D01*
X191095734Y-58699500D01*
X191168390Y-58752287D01*
X191257212Y-58797544D01*
X191261080Y-58799515D01*
X191311876Y-58847490D01*
X191328671Y-58915311D01*
X191306134Y-58981446D01*
X191261080Y-59020485D01*
X191168386Y-59067715D01*
X191002786Y-59188028D01*
X190858028Y-59332786D01*
X190737715Y-59498386D01*
X190644781Y-59680776D01*
X190581522Y-59875465D01*
X190549500Y-60077648D01*
X190549500Y-60282351D01*
X190581522Y-60484534D01*
X190644781Y-60679223D01*
X190737715Y-60861613D01*
X190858028Y-61027213D01*
X191002786Y-61171971D01*
X191101486Y-61243679D01*
X191168390Y-61292287D01*
X191259840Y-61338883D01*
X191261080Y-61339515D01*
X191311876Y-61387490D01*
X191328671Y-61455311D01*
X191306134Y-61521446D01*
X191261080Y-61560485D01*
X191168386Y-61607715D01*
X191002786Y-61728028D01*
X190858028Y-61872786D01*
X190737715Y-62038386D01*
X190644781Y-62220776D01*
X190581522Y-62415465D01*
X190549500Y-62617648D01*
X190549500Y-62822351D01*
X190581522Y-63024534D01*
X190644781Y-63219223D01*
X190664292Y-63257514D01*
X190721447Y-63369687D01*
X190737715Y-63401613D01*
X190858028Y-63567213D01*
X191002786Y-63711971D01*
X191138397Y-63810496D01*
X191168390Y-63832287D01*
X191259840Y-63878883D01*
X191261080Y-63879515D01*
X191311876Y-63927490D01*
X191328671Y-63995311D01*
X191306134Y-64061446D01*
X191261080Y-64100485D01*
X191168386Y-64147715D01*
X191002786Y-64268028D01*
X190858028Y-64412786D01*
X190737715Y-64578386D01*
X190644781Y-64760776D01*
X190581522Y-64955465D01*
X190549500Y-65157648D01*
X190549500Y-65362351D01*
X190581522Y-65564534D01*
X190644781Y-65759223D01*
X190737715Y-65941613D01*
X190858028Y-66107213D01*
X191002786Y-66251971D01*
X191101486Y-66323679D01*
X191168390Y-66372287D01*
X191259840Y-66418883D01*
X191261080Y-66419515D01*
X191311876Y-66467490D01*
X191328671Y-66535311D01*
X191306134Y-66601446D01*
X191261080Y-66640485D01*
X191168386Y-66687715D01*
X191002786Y-66808028D01*
X190858028Y-66952786D01*
X190737715Y-67118386D01*
X190644781Y-67300776D01*
X190581522Y-67495465D01*
X190549500Y-67697648D01*
X190549500Y-67902351D01*
X190581523Y-68104535D01*
X190581523Y-68104538D01*
X190631121Y-68257182D01*
X190633116Y-68327023D01*
X190597036Y-68386856D01*
X190534335Y-68417684D01*
X190513190Y-68419500D01*
X186366810Y-68419500D01*
X186299771Y-68399815D01*
X186254016Y-68347011D01*
X186244072Y-68277853D01*
X186248879Y-68257182D01*
X186298476Y-68104538D01*
X186298476Y-68104537D01*
X186298477Y-68104534D01*
X186330500Y-67902352D01*
X186330500Y-67697648D01*
X186298477Y-67495466D01*
X186235220Y-67300781D01*
X186235218Y-67300778D01*
X186235218Y-67300776D01*
X186154949Y-67143240D01*
X186142053Y-67074571D01*
X186168329Y-67009830D01*
X186177753Y-66999264D01*
X186804157Y-66372860D01*
X186804160Y-66372857D01*
X186875897Y-66265496D01*
X186925310Y-66146202D01*
X186950500Y-66019561D01*
X186950500Y-65890439D01*
X186950500Y-61780439D01*
X186944446Y-61750001D01*
X186925312Y-61653805D01*
X186925309Y-61653796D01*
X186875899Y-61534508D01*
X186875898Y-61534506D01*
X186864268Y-61517101D01*
X186830656Y-61466796D01*
X186804161Y-61427144D01*
X186761251Y-61384234D01*
X186712857Y-61335840D01*
X186238509Y-60861492D01*
X186205024Y-60800169D01*
X186210008Y-60730477D01*
X186215697Y-60717533D01*
X186235220Y-60679219D01*
X186298477Y-60484534D01*
X186330500Y-60282352D01*
X186330500Y-60077648D01*
X186298477Y-59875466D01*
X186297831Y-59873479D01*
X186238024Y-59689411D01*
X186235220Y-59680781D01*
X186235218Y-59680778D01*
X186235218Y-59680776D01*
X186177988Y-59568457D01*
X186142287Y-59498390D01*
X186134556Y-59487749D01*
X186021971Y-59332786D01*
X185877219Y-59188034D01*
X185840930Y-59161669D01*
X185798264Y-59106339D01*
X185792285Y-59036726D01*
X185824890Y-58974931D01*
X185885728Y-58940573D01*
X185900562Y-58938060D01*
X185937483Y-58934091D01*
X186072328Y-58883797D01*
X186072327Y-58883797D01*
X186072331Y-58883796D01*
X186187546Y-58797546D01*
X186273796Y-58682331D01*
X186324091Y-58547483D01*
X186330500Y-58487873D01*
X186330499Y-56792128D01*
X186324091Y-56732517D01*
X186322439Y-56728089D01*
X186273797Y-56597671D01*
X186273793Y-56597664D01*
X186187547Y-56482455D01*
X186187544Y-56482452D01*
X186072335Y-56396206D01*
X186072328Y-56396202D01*
X185937482Y-56345908D01*
X185937483Y-56345908D01*
X185877883Y-56339501D01*
X185877881Y-56339500D01*
X185877873Y-56339500D01*
X185877864Y-56339500D01*
X183382129Y-56339500D01*
X183382123Y-56339501D01*
X183322516Y-56345908D01*
X183187671Y-56396202D01*
X183187664Y-56396206D01*
X183072455Y-56482452D01*
X183072452Y-56482455D01*
X182986206Y-56597664D01*
X182986202Y-56597671D01*
X182935908Y-56732517D01*
X182929501Y-56792116D01*
X182929501Y-56792123D01*
X182929500Y-56792135D01*
X182929500Y-57643121D01*
X182909815Y-57710160D01*
X182857011Y-57755915D01*
X182787853Y-57765859D01*
X182724297Y-57736834D01*
X182717819Y-57730802D01*
X180691819Y-55704802D01*
X180658334Y-55643479D01*
X180655500Y-55617121D01*
X180655500Y-55499995D01*
X204444451Y-55499995D01*
X204444451Y-55500004D01*
X204464616Y-55769101D01*
X204524664Y-56032188D01*
X204524666Y-56032195D01*
X204610342Y-56250493D01*
X204623257Y-56283398D01*
X204758185Y-56517102D01*
X204862600Y-56648034D01*
X204926442Y-56728089D01*
X205113183Y-56901358D01*
X205124259Y-56911635D01*
X205347226Y-57063651D01*
X205590359Y-57180738D01*
X205848228Y-57260280D01*
X205848229Y-57260280D01*
X205848232Y-57260281D01*
X206115063Y-57300499D01*
X206115068Y-57300499D01*
X206115071Y-57300500D01*
X206115072Y-57300500D01*
X206384928Y-57300500D01*
X206384929Y-57300500D01*
X206384936Y-57300499D01*
X206651767Y-57260281D01*
X206651768Y-57260280D01*
X206651772Y-57260280D01*
X206909641Y-57180738D01*
X207152775Y-57063651D01*
X207375741Y-56911635D01*
X207529259Y-56769190D01*
X207573557Y-56728089D01*
X207573557Y-56728087D01*
X207573561Y-56728085D01*
X207741815Y-56517102D01*
X207876743Y-56283398D01*
X207975334Y-56032195D01*
X208035383Y-55769103D01*
X208055549Y-55500000D01*
X208035383Y-55230897D01*
X207975334Y-54967805D01*
X207876743Y-54716602D01*
X207741815Y-54482898D01*
X207573561Y-54271915D01*
X207573560Y-54271914D01*
X207573557Y-54271910D01*
X207375741Y-54088365D01*
X207152775Y-53936349D01*
X207152769Y-53936346D01*
X207152768Y-53936345D01*
X207152767Y-53936344D01*
X206909643Y-53819263D01*
X206909645Y-53819263D01*
X206651773Y-53739720D01*
X206651767Y-53739718D01*
X206384936Y-53699500D01*
X206384929Y-53699500D01*
X206115071Y-53699500D01*
X206115063Y-53699500D01*
X205848232Y-53739718D01*
X205848226Y-53739720D01*
X205590358Y-53819262D01*
X205347230Y-53936346D01*
X205124258Y-54088365D01*
X204926442Y-54271910D01*
X204758185Y-54482898D01*
X204623258Y-54716599D01*
X204623256Y-54716603D01*
X204524666Y-54967804D01*
X204524664Y-54967811D01*
X204464616Y-55230898D01*
X204444451Y-55499995D01*
X180655500Y-55499995D01*
X180655500Y-50499995D01*
X204444451Y-50499995D01*
X204444451Y-50500004D01*
X204464616Y-50769101D01*
X204493423Y-50895312D01*
X204524666Y-51032195D01*
X204623257Y-51283398D01*
X204758185Y-51517102D01*
X204894080Y-51687509D01*
X204926442Y-51728089D01*
X205113183Y-51901358D01*
X205124259Y-51911635D01*
X205347226Y-52063651D01*
X205590359Y-52180738D01*
X205848228Y-52260280D01*
X205848229Y-52260280D01*
X205848232Y-52260281D01*
X206115063Y-52300499D01*
X206115068Y-52300499D01*
X206115071Y-52300500D01*
X206115072Y-52300500D01*
X206384928Y-52300500D01*
X206384929Y-52300500D01*
X206384936Y-52300499D01*
X206651767Y-52260281D01*
X206651768Y-52260280D01*
X206651772Y-52260280D01*
X206909641Y-52180738D01*
X207152775Y-52063651D01*
X207375741Y-51911635D01*
X207573561Y-51728085D01*
X207741815Y-51517102D01*
X207876743Y-51283398D01*
X207975334Y-51032195D01*
X208035383Y-50769103D01*
X208055549Y-50500000D01*
X208043320Y-50336818D01*
X208035383Y-50230898D01*
X208024226Y-50182015D01*
X207975334Y-49967805D01*
X207876743Y-49716602D01*
X207741815Y-49482898D01*
X207573561Y-49271915D01*
X207573560Y-49271914D01*
X207573557Y-49271910D01*
X207375741Y-49088365D01*
X207293355Y-49032195D01*
X207152775Y-48936349D01*
X207152769Y-48936346D01*
X207152768Y-48936345D01*
X207152767Y-48936344D01*
X206909643Y-48819263D01*
X206909645Y-48819263D01*
X206651773Y-48739720D01*
X206651767Y-48739718D01*
X206384936Y-48699500D01*
X206384929Y-48699500D01*
X206115071Y-48699500D01*
X206115063Y-48699500D01*
X205848232Y-48739718D01*
X205848226Y-48739720D01*
X205590358Y-48819262D01*
X205347230Y-48936346D01*
X205124258Y-49088365D01*
X204926442Y-49271910D01*
X204758185Y-49482898D01*
X204623258Y-49716599D01*
X204623256Y-49716603D01*
X204524666Y-49967804D01*
X204524664Y-49967811D01*
X204464616Y-50230898D01*
X204444451Y-50499995D01*
X180655500Y-50499995D01*
X180655500Y-50106527D01*
X180675185Y-50039488D01*
X180727989Y-49993733D01*
X180797147Y-49983789D01*
X180848389Y-50003425D01*
X180889504Y-50030897D01*
X181008797Y-50080310D01*
X181135434Y-50105499D01*
X181135438Y-50105500D01*
X181135439Y-50105500D01*
X192364562Y-50105500D01*
X192364563Y-50105499D01*
X192406774Y-50097103D01*
X192491194Y-50080312D01*
X192491197Y-50080310D01*
X192491202Y-50080310D01*
X192610496Y-50030897D01*
X192717857Y-49959160D01*
X194368639Y-48308376D01*
X194429960Y-48274893D01*
X194488413Y-48276285D01*
X194523300Y-48285633D01*
X194523301Y-48285633D01*
X194523308Y-48285635D01*
X194716239Y-48302514D01*
X194749998Y-48305468D01*
X194750000Y-48305468D01*
X194750002Y-48305468D01*
X194806673Y-48300509D01*
X194976692Y-48285635D01*
X195196496Y-48226739D01*
X195402734Y-48130568D01*
X195589139Y-48000047D01*
X195750047Y-47839139D01*
X195880568Y-47652734D01*
X195976739Y-47446496D01*
X196035635Y-47226692D01*
X196055468Y-47000000D01*
X196054199Y-46985500D01*
X196042101Y-46847213D01*
X196035635Y-46773308D01*
X195977885Y-46557780D01*
X195976741Y-46553511D01*
X195976738Y-46553502D01*
X195974872Y-46549500D01*
X195880568Y-46347266D01*
X195750047Y-46160861D01*
X195750045Y-46160858D01*
X195589141Y-45999954D01*
X195402734Y-45869432D01*
X195402732Y-45869431D01*
X195196497Y-45773261D01*
X195196488Y-45773258D01*
X194976697Y-45714366D01*
X194976693Y-45714365D01*
X194976692Y-45714365D01*
X194976691Y-45714364D01*
X194976686Y-45714364D01*
X194750002Y-45694532D01*
X194749998Y-45694532D01*
X194523313Y-45714364D01*
X194523302Y-45714366D01*
X194303511Y-45773258D01*
X194303502Y-45773261D01*
X194097267Y-45869431D01*
X194097265Y-45869432D01*
X193910858Y-45999954D01*
X193749954Y-46160858D01*
X193619432Y-46347265D01*
X193619431Y-46347267D01*
X193523261Y-46553502D01*
X193523258Y-46553511D01*
X193464366Y-46773302D01*
X193464364Y-46773313D01*
X193444532Y-46999998D01*
X193444532Y-47000001D01*
X193464364Y-47226686D01*
X193464365Y-47226693D01*
X193473715Y-47261585D01*
X193472052Y-47331435D01*
X193441621Y-47381360D01*
X192064802Y-48758181D01*
X192003479Y-48791666D01*
X191977121Y-48794500D01*
X181775445Y-48794500D01*
X181708406Y-48774815D01*
X181662651Y-48722011D01*
X181652707Y-48652853D01*
X181654554Y-48642908D01*
X181686222Y-48504157D01*
X181686222Y-48504155D01*
X181686534Y-48500000D01*
X181700893Y-48308378D01*
X181705268Y-48250004D01*
X181705268Y-48249995D01*
X181686222Y-47995845D01*
X181679823Y-47967811D01*
X181629508Y-47747363D01*
X181536393Y-47510112D01*
X181408959Y-47289388D01*
X181250050Y-47090123D01*
X181152918Y-46999998D01*
X188444532Y-46999998D01*
X188444532Y-47000001D01*
X188464364Y-47226686D01*
X188464366Y-47226697D01*
X188523258Y-47446488D01*
X188523261Y-47446497D01*
X188619431Y-47652732D01*
X188619432Y-47652734D01*
X188749954Y-47839141D01*
X188910858Y-48000045D01*
X188910861Y-48000047D01*
X189097266Y-48130568D01*
X189303504Y-48226739D01*
X189303509Y-48226740D01*
X189303511Y-48226741D01*
X189319029Y-48230899D01*
X189523308Y-48285635D01*
X189685230Y-48299801D01*
X189749998Y-48305468D01*
X189750000Y-48305468D01*
X189750002Y-48305468D01*
X189806673Y-48300509D01*
X189976692Y-48285635D01*
X190196496Y-48226739D01*
X190402734Y-48130568D01*
X190589139Y-48000047D01*
X190750047Y-47839139D01*
X190880568Y-47652734D01*
X190976739Y-47446496D01*
X191035635Y-47226692D01*
X191055468Y-47000000D01*
X191054199Y-46985500D01*
X191042101Y-46847213D01*
X191035635Y-46773308D01*
X190977885Y-46557780D01*
X190976741Y-46553511D01*
X190976738Y-46553502D01*
X190974872Y-46549500D01*
X190880568Y-46347266D01*
X190750047Y-46160861D01*
X190750045Y-46160858D01*
X190589141Y-45999954D01*
X190402734Y-45869432D01*
X190402732Y-45869431D01*
X190196497Y-45773261D01*
X190196488Y-45773258D01*
X189976697Y-45714366D01*
X189976693Y-45714365D01*
X189976692Y-45714365D01*
X189976691Y-45714364D01*
X189976686Y-45714364D01*
X189750002Y-45694532D01*
X189749998Y-45694532D01*
X189523313Y-45714364D01*
X189523302Y-45714366D01*
X189303511Y-45773258D01*
X189303502Y-45773261D01*
X189097267Y-45869431D01*
X189097265Y-45869432D01*
X188910858Y-45999954D01*
X188749954Y-46160858D01*
X188619432Y-46347265D01*
X188619431Y-46347267D01*
X188523261Y-46553502D01*
X188523258Y-46553511D01*
X188464366Y-46773302D01*
X188464364Y-46773313D01*
X188444532Y-46999998D01*
X181152918Y-46999998D01*
X181063217Y-46916768D01*
X180852634Y-46773195D01*
X180852630Y-46773193D01*
X180852627Y-46773191D01*
X180852626Y-46773190D01*
X180623006Y-46662612D01*
X180623008Y-46662612D01*
X180379466Y-46587489D01*
X180379462Y-46587488D01*
X180379458Y-46587487D01*
X180258231Y-46569214D01*
X180127440Y-46549500D01*
X180127435Y-46549500D01*
X179872565Y-46549500D01*
X179872559Y-46549500D01*
X179715609Y-46573157D01*
X179620542Y-46587487D01*
X179620539Y-46587488D01*
X179620533Y-46587489D01*
X179376992Y-46662612D01*
X179147373Y-46773190D01*
X179147372Y-46773191D01*
X178936782Y-46916768D01*
X178749952Y-47090121D01*
X178749950Y-47090123D01*
X178591041Y-47289388D01*
X178463608Y-47510109D01*
X178370492Y-47747362D01*
X178370490Y-47747369D01*
X178313777Y-47995845D01*
X178294732Y-48249995D01*
X178294732Y-48250004D01*
X178313777Y-48504154D01*
X178367543Y-48739720D01*
X178370492Y-48752637D01*
X178463607Y-48989888D01*
X178591041Y-49210612D01*
X178749950Y-49409877D01*
X178936783Y-49583232D01*
X179147366Y-49726805D01*
X179274303Y-49787934D01*
X179326161Y-49834755D01*
X179344500Y-49899653D01*
X179344500Y-56004565D01*
X179369687Y-56131194D01*
X179369690Y-56131203D01*
X179419100Y-56250491D01*
X179419101Y-56250493D01*
X179490839Y-56357856D01*
X179490842Y-56357860D01*
X182923263Y-59790280D01*
X182956748Y-59851603D01*
X182958055Y-59897359D01*
X182929500Y-60077648D01*
X182929500Y-60282351D01*
X182961522Y-60484534D01*
X183024781Y-60679223D01*
X183117715Y-60861613D01*
X183238028Y-61027213D01*
X183382786Y-61171971D01*
X183481486Y-61243679D01*
X183548390Y-61292287D01*
X183639840Y-61338883D01*
X183641080Y-61339515D01*
X183691876Y-61387490D01*
X183708671Y-61455311D01*
X183686134Y-61521446D01*
X183641080Y-61560485D01*
X183548386Y-61607715D01*
X183382786Y-61728028D01*
X183238028Y-61872786D01*
X183117715Y-62038386D01*
X183024781Y-62220776D01*
X182961522Y-62415465D01*
X182929500Y-62617648D01*
X182929500Y-62822351D01*
X182961522Y-63024534D01*
X183024781Y-63219223D01*
X183044292Y-63257514D01*
X183101447Y-63369687D01*
X183117715Y-63401613D01*
X183238028Y-63567213D01*
X183382786Y-63711971D01*
X183518397Y-63810496D01*
X183548390Y-63832287D01*
X183639840Y-63878883D01*
X183641080Y-63879515D01*
X183691876Y-63927490D01*
X183708671Y-63995311D01*
X183686134Y-64061446D01*
X183641080Y-64100485D01*
X183548386Y-64147715D01*
X183382786Y-64268028D01*
X183238032Y-64412782D01*
X183238028Y-64412787D01*
X183135879Y-64553385D01*
X183080550Y-64596051D01*
X183035561Y-64604500D01*
X182332879Y-64604500D01*
X182265840Y-64584815D01*
X182245198Y-64568181D01*
X181167860Y-63490842D01*
X181167856Y-63490839D01*
X181060493Y-63419101D01*
X181060491Y-63419100D01*
X180941203Y-63369690D01*
X180941194Y-63369687D01*
X180814565Y-63344500D01*
X180814561Y-63344500D01*
X176572879Y-63344500D01*
X176505840Y-63324815D01*
X176485198Y-63308181D01*
X175667860Y-62490842D01*
X175667856Y-62490839D01*
X175560493Y-62419101D01*
X175560491Y-62419100D01*
X175441203Y-62369690D01*
X175441194Y-62369687D01*
X175314565Y-62344500D01*
X175314561Y-62344500D01*
X173376856Y-62344500D01*
X173309817Y-62324815D01*
X173264062Y-62272011D01*
X173254118Y-62202853D01*
X173283143Y-62139297D01*
X173302540Y-62121236D01*
X173347546Y-62087546D01*
X173433796Y-61972331D01*
X173484091Y-61837483D01*
X173490500Y-61777873D01*
X173490500Y-61699500D01*
X173510185Y-61632461D01*
X173562989Y-61586706D01*
X173614500Y-61575500D01*
X177576528Y-61575500D01*
X177643567Y-61595185D01*
X177683915Y-61637500D01*
X177767465Y-61782214D01*
X177894129Y-61922888D01*
X178047265Y-62034148D01*
X178047270Y-62034151D01*
X178220192Y-62111142D01*
X178220197Y-62111144D01*
X178405354Y-62150500D01*
X178405355Y-62150500D01*
X178594644Y-62150500D01*
X178594646Y-62150500D01*
X178779803Y-62111144D01*
X178952730Y-62034151D01*
X179105871Y-61922888D01*
X179203218Y-61814773D01*
X179262704Y-61778125D01*
X179332561Y-61779456D01*
X179383048Y-61810065D01*
X179566021Y-61993038D01*
X179599506Y-62054361D01*
X179601660Y-62067754D01*
X179608832Y-62135988D01*
X179614326Y-62188257D01*
X179614327Y-62188260D01*
X179672818Y-62368277D01*
X179672821Y-62368284D01*
X179767467Y-62532216D01*
X179818721Y-62589139D01*
X179894129Y-62672888D01*
X180047265Y-62784148D01*
X180047270Y-62784151D01*
X180220192Y-62861142D01*
X180220197Y-62861144D01*
X180405354Y-62900500D01*
X180405355Y-62900500D01*
X180594644Y-62900500D01*
X180594646Y-62900500D01*
X180779803Y-62861144D01*
X180952730Y-62784151D01*
X181105871Y-62672888D01*
X181232533Y-62532216D01*
X181327179Y-62368284D01*
X181385674Y-62188256D01*
X181405460Y-62000000D01*
X181385674Y-61811744D01*
X181327179Y-61631716D01*
X181232533Y-61467784D01*
X181105871Y-61327112D01*
X181073387Y-61303511D01*
X180952734Y-61215851D01*
X180952729Y-61215848D01*
X180779807Y-61138857D01*
X180779802Y-61138855D01*
X180634001Y-61107865D01*
X180594646Y-61099500D01*
X180594645Y-61099500D01*
X180577879Y-61099500D01*
X180510840Y-61079815D01*
X180490198Y-61063181D01*
X176832860Y-57405842D01*
X176832856Y-57405839D01*
X176725493Y-57334101D01*
X176725491Y-57334100D01*
X176606203Y-57284690D01*
X176606194Y-57284687D01*
X176479565Y-57259500D01*
X176479561Y-57259500D01*
X162549561Y-57259500D01*
X162420439Y-57259500D01*
X162420434Y-57259500D01*
X162293805Y-57284687D01*
X162293796Y-57284690D01*
X162174508Y-57334100D01*
X162174506Y-57334101D01*
X162067143Y-57405839D01*
X162067139Y-57405842D01*
X159869526Y-59603455D01*
X159808203Y-59636940D01*
X159749754Y-59635549D01*
X159708446Y-59624481D01*
X159708429Y-59624478D01*
X159480002Y-59604494D01*
X159479998Y-59604494D01*
X159251570Y-59624478D01*
X159251563Y-59624479D01*
X159030074Y-59683827D01*
X159030070Y-59683829D01*
X158822247Y-59780738D01*
X158634409Y-59912264D01*
X158634407Y-59912265D01*
X158634404Y-59912268D01*
X158472268Y-60074404D01*
X158472265Y-60074407D01*
X158472264Y-60074409D01*
X158444443Y-60114142D01*
X158340737Y-60262247D01*
X158322382Y-60301612D01*
X158276210Y-60354051D01*
X158209016Y-60373203D01*
X158142135Y-60352987D01*
X158097618Y-60301612D01*
X158079262Y-60262247D01*
X158024356Y-60183834D01*
X157947736Y-60074409D01*
X157785591Y-59912264D01*
X157597753Y-59780738D01*
X157389930Y-59683829D01*
X157389927Y-59683828D01*
X157389925Y-59683827D01*
X157168436Y-59624479D01*
X157168429Y-59624478D01*
X156940002Y-59604494D01*
X156939998Y-59604494D01*
X156711570Y-59624478D01*
X156711563Y-59624479D01*
X156490074Y-59683827D01*
X156490070Y-59683829D01*
X156282247Y-59780738D01*
X156094409Y-59912264D01*
X156094407Y-59912265D01*
X156094404Y-59912268D01*
X155932268Y-60074404D01*
X155932265Y-60074407D01*
X155932264Y-60074409D01*
X155904443Y-60114142D01*
X155800737Y-60262247D01*
X155782382Y-60301612D01*
X155736210Y-60354051D01*
X155669016Y-60373203D01*
X155602135Y-60352987D01*
X155557618Y-60301612D01*
X155539262Y-60262247D01*
X155484356Y-60183834D01*
X155407736Y-60074409D01*
X155245591Y-59912264D01*
X155057753Y-59780738D01*
X154849930Y-59683829D01*
X154849927Y-59683828D01*
X154849925Y-59683827D01*
X154628436Y-59624479D01*
X154628429Y-59624478D01*
X154400002Y-59604494D01*
X154399998Y-59604494D01*
X154171570Y-59624478D01*
X154171563Y-59624479D01*
X153950066Y-59683829D01*
X153946915Y-59684977D01*
X153945433Y-59685071D01*
X153944841Y-59685230D01*
X153944809Y-59685110D01*
X153877186Y-59689411D01*
X153816129Y-59655443D01*
X153783129Y-59593857D01*
X153780500Y-59568457D01*
X153780500Y-55181648D01*
X154662892Y-55181648D01*
X154682678Y-55369904D01*
X154682679Y-55369907D01*
X154741170Y-55549925D01*
X154741173Y-55549932D01*
X154835819Y-55713864D01*
X154885555Y-55769101D01*
X154962481Y-55854536D01*
X155115617Y-55965796D01*
X155115622Y-55965799D01*
X155288544Y-56042790D01*
X155288549Y-56042792D01*
X155473706Y-56082148D01*
X155473707Y-56082148D01*
X155662996Y-56082148D01*
X155662998Y-56082148D01*
X155848155Y-56042792D01*
X156021082Y-55965799D01*
X156174223Y-55854536D01*
X156300885Y-55713864D01*
X156395531Y-55549932D01*
X156454026Y-55369904D01*
X156466690Y-55249403D01*
X156493274Y-55184790D01*
X156502321Y-55174694D01*
X161340198Y-50336818D01*
X161401521Y-50303333D01*
X161427879Y-50300499D01*
X163847871Y-50300499D01*
X163847872Y-50300499D01*
X163907483Y-50294091D01*
X164042331Y-50243796D01*
X164157546Y-50157546D01*
X164243796Y-50042331D01*
X164294091Y-49907483D01*
X164300500Y-49847873D01*
X164300499Y-47152128D01*
X164294937Y-47100385D01*
X164294091Y-47092516D01*
X164260381Y-47002135D01*
X173299500Y-47002135D01*
X173299500Y-49497870D01*
X173299501Y-49497876D01*
X173305908Y-49557483D01*
X173356202Y-49692328D01*
X173356206Y-49692335D01*
X173442452Y-49807544D01*
X173442455Y-49807547D01*
X173557664Y-49893793D01*
X173557671Y-49893797D01*
X173692517Y-49944091D01*
X173692516Y-49944091D01*
X173699444Y-49944835D01*
X173752127Y-49950500D01*
X176247872Y-49950499D01*
X176307483Y-49944091D01*
X176442331Y-49893796D01*
X176557546Y-49807546D01*
X176643796Y-49692331D01*
X176694091Y-49557483D01*
X176700500Y-49497873D01*
X176700499Y-47002128D01*
X176694091Y-46942517D01*
X176691790Y-46936349D01*
X176643797Y-46807671D01*
X176643793Y-46807664D01*
X176557547Y-46692455D01*
X176557544Y-46692452D01*
X176442335Y-46606206D01*
X176442328Y-46606202D01*
X176307482Y-46555908D01*
X176307483Y-46555908D01*
X176247883Y-46549501D01*
X176247881Y-46549500D01*
X176247873Y-46549500D01*
X176247864Y-46549500D01*
X173752129Y-46549500D01*
X173752123Y-46549501D01*
X173692516Y-46555908D01*
X173557671Y-46606202D01*
X173557664Y-46606206D01*
X173442455Y-46692452D01*
X173442452Y-46692455D01*
X173356206Y-46807664D01*
X173356202Y-46807671D01*
X173305908Y-46942517D01*
X173299501Y-47002116D01*
X173299501Y-47002123D01*
X173299500Y-47002135D01*
X164260381Y-47002135D01*
X164243797Y-46957671D01*
X164243793Y-46957664D01*
X164157547Y-46842455D01*
X164157544Y-46842452D01*
X164042335Y-46756206D01*
X164042328Y-46756202D01*
X163907482Y-46705908D01*
X163907483Y-46705908D01*
X163847883Y-46699501D01*
X163847881Y-46699500D01*
X163847873Y-46699500D01*
X163847864Y-46699500D01*
X161152129Y-46699500D01*
X161152123Y-46699501D01*
X161092516Y-46705908D01*
X160957671Y-46756202D01*
X160957664Y-46756206D01*
X160842455Y-46842452D01*
X160842452Y-46842455D01*
X160756206Y-46957664D01*
X160756202Y-46957671D01*
X160705908Y-47092517D01*
X160703783Y-47112287D01*
X160699501Y-47152123D01*
X160699500Y-47152135D01*
X160699500Y-49072120D01*
X160679815Y-49139159D01*
X160663181Y-49159801D01*
X155578154Y-54244829D01*
X155516831Y-54278314D01*
X155490473Y-54281148D01*
X155473706Y-54281148D01*
X155441249Y-54288046D01*
X155288549Y-54320503D01*
X155288544Y-54320505D01*
X155115622Y-54397496D01*
X155115617Y-54397499D01*
X154962481Y-54508759D01*
X154835818Y-54649433D01*
X154741173Y-54813363D01*
X154741170Y-54813370D01*
X154682679Y-54993388D01*
X154682678Y-54993392D01*
X154662892Y-55181648D01*
X153780500Y-55181648D01*
X153780500Y-53117878D01*
X153800185Y-53050839D01*
X153816814Y-53030202D01*
X156635625Y-50211390D01*
X156696946Y-50177907D01*
X156759854Y-50180582D01*
X156760357Y-50180737D01*
X156760359Y-50180738D01*
X157018228Y-50260280D01*
X157018229Y-50260280D01*
X157018232Y-50260281D01*
X157285063Y-50300499D01*
X157285068Y-50300499D01*
X157285071Y-50300500D01*
X157285072Y-50300500D01*
X157554928Y-50300500D01*
X157554929Y-50300500D01*
X157554936Y-50300499D01*
X157821767Y-50260281D01*
X157821768Y-50260280D01*
X157821772Y-50260280D01*
X158079641Y-50180738D01*
X158322775Y-50063651D01*
X158545741Y-49911635D01*
X158743561Y-49728085D01*
X158911815Y-49517102D01*
X159046743Y-49283398D01*
X159145334Y-49032195D01*
X159205383Y-48769103D01*
X159214840Y-48642908D01*
X159225549Y-48500004D01*
X159225549Y-48499995D01*
X159206815Y-48250004D01*
X159205383Y-48230897D01*
X159145334Y-47967805D01*
X159046743Y-47716602D01*
X158911815Y-47482898D01*
X158743561Y-47271915D01*
X158743560Y-47271914D01*
X158743557Y-47271910D01*
X158545741Y-47088365D01*
X158437442Y-47014528D01*
X158322775Y-46936349D01*
X158322769Y-46936346D01*
X158322768Y-46936345D01*
X158322767Y-46936344D01*
X158079643Y-46819263D01*
X158079645Y-46819263D01*
X157821773Y-46739720D01*
X157821767Y-46739718D01*
X157554936Y-46699500D01*
X157554929Y-46699500D01*
X157285071Y-46699500D01*
X157285063Y-46699500D01*
X157018232Y-46739718D01*
X157018226Y-46739720D01*
X156760358Y-46819262D01*
X156517230Y-46936346D01*
X156294258Y-47088365D01*
X156096442Y-47271910D01*
X155928185Y-47482898D01*
X155793258Y-47716599D01*
X155793256Y-47716603D01*
X155694666Y-47967804D01*
X155694664Y-47967811D01*
X155634616Y-48230899D01*
X155621248Y-48409290D01*
X155596609Y-48474671D01*
X155585276Y-48487705D01*
X154499802Y-49573181D01*
X154438479Y-49606666D01*
X154412121Y-49609500D01*
X150424500Y-49609500D01*
X150357461Y-49589815D01*
X150311706Y-49537011D01*
X150300500Y-49485500D01*
X150300499Y-47152129D01*
X150300498Y-47152123D01*
X150300497Y-47152116D01*
X150294937Y-47100385D01*
X150294091Y-47092516D01*
X150243797Y-46957671D01*
X150243793Y-46957664D01*
X150157547Y-46842455D01*
X150157544Y-46842452D01*
X150042335Y-46756206D01*
X150042328Y-46756202D01*
X149907482Y-46705908D01*
X149907483Y-46705908D01*
X149847883Y-46699501D01*
X149847881Y-46699500D01*
X149847873Y-46699500D01*
X149847864Y-46699500D01*
X147152129Y-46699500D01*
X147152123Y-46699501D01*
X147092516Y-46705908D01*
X146957671Y-46756202D01*
X146957664Y-46756206D01*
X146842455Y-46842452D01*
X146842452Y-46842455D01*
X146756206Y-46957664D01*
X146756202Y-46957671D01*
X146705908Y-47092517D01*
X146703783Y-47112287D01*
X146699501Y-47152123D01*
X146699500Y-47152135D01*
X146699501Y-49485500D01*
X146679816Y-49552539D01*
X146627013Y-49598294D01*
X146575501Y-49609500D01*
X145507879Y-49609500D01*
X145440840Y-49589815D01*
X145420198Y-49573181D01*
X145127734Y-49280717D01*
X145094249Y-49219394D01*
X145099233Y-49149702D01*
X145099936Y-49147864D01*
X145145334Y-49032195D01*
X145205383Y-48769103D01*
X145214840Y-48642908D01*
X145225549Y-48500004D01*
X145225549Y-48499995D01*
X145206815Y-48250004D01*
X145205383Y-48230897D01*
X145145334Y-47967805D01*
X145046743Y-47716602D01*
X144911815Y-47482898D01*
X144743561Y-47271915D01*
X144743560Y-47271914D01*
X144743557Y-47271910D01*
X144545741Y-47088365D01*
X144437442Y-47014528D01*
X144322775Y-46936349D01*
X144322769Y-46936346D01*
X144322768Y-46936345D01*
X144322767Y-46936344D01*
X144079643Y-46819263D01*
X144079645Y-46819263D01*
X143821773Y-46739720D01*
X143821767Y-46739718D01*
X143554936Y-46699500D01*
X143554929Y-46699500D01*
X143285071Y-46699500D01*
X143285063Y-46699500D01*
X143018232Y-46739718D01*
X143018226Y-46739720D01*
X142760358Y-46819262D01*
X142517230Y-46936346D01*
X142294258Y-47088365D01*
X142096442Y-47271910D01*
X141928185Y-47482898D01*
X141793258Y-47716599D01*
X141793256Y-47716603D01*
X141694666Y-47967804D01*
X141694664Y-47967811D01*
X141634616Y-48230898D01*
X141614451Y-48499995D01*
X141614451Y-48500004D01*
X141634616Y-48769101D01*
X141694664Y-49032188D01*
X141694666Y-49032195D01*
X141769673Y-49223309D01*
X141793257Y-49283398D01*
X141928185Y-49517102D01*
X142064080Y-49687509D01*
X142096442Y-49728089D01*
X142275030Y-49893793D01*
X142294259Y-49911635D01*
X142517226Y-50063651D01*
X142517231Y-50063653D01*
X142517232Y-50063654D01*
X142517233Y-50063655D01*
X142694301Y-50148926D01*
X142746161Y-50195748D01*
X142764500Y-50260646D01*
X142764500Y-60234565D01*
X142789687Y-60361194D01*
X142789690Y-60361203D01*
X142839100Y-60480491D01*
X142839101Y-60480493D01*
X142910839Y-60587856D01*
X142910842Y-60587860D01*
X143691621Y-61368638D01*
X143725106Y-61429961D01*
X143723715Y-61488411D01*
X143714367Y-61523299D01*
X143714364Y-61523313D01*
X143694532Y-61749998D01*
X143694532Y-61750001D01*
X143714364Y-61976686D01*
X143714366Y-61976697D01*
X143773258Y-62196488D01*
X143773261Y-62196497D01*
X143869431Y-62402732D01*
X143869432Y-62402734D01*
X143999951Y-62589137D01*
X143999952Y-62589138D01*
X143999953Y-62589139D01*
X144058182Y-62647368D01*
X144091666Y-62708689D01*
X144094500Y-62735048D01*
X144094500Y-63177120D01*
X144074815Y-63244159D01*
X144058181Y-63264801D01*
X137295645Y-70027336D01*
X137234322Y-70060821D01*
X137167703Y-70056937D01*
X137119613Y-70040428D01*
X136874335Y-69999500D01*
X136625665Y-69999500D01*
X136380383Y-70040429D01*
X136145197Y-70121169D01*
X136145188Y-70121172D01*
X135926493Y-70239524D01*
X135730257Y-70392261D01*
X135561833Y-70575217D01*
X135425826Y-70783393D01*
X135325936Y-71011118D01*
X135264892Y-71252175D01*
X135264890Y-71252187D01*
X135244357Y-71499994D01*
X135244357Y-71500005D01*
X135264890Y-71747812D01*
X135264892Y-71747824D01*
X135325936Y-71988881D01*
X135425826Y-72216606D01*
X135561833Y-72424782D01*
X135561836Y-72424785D01*
X135730256Y-72607738D01*
X135761062Y-72631715D01*
X135926488Y-72760472D01*
X135926492Y-72760475D01*
X135958226Y-72777648D01*
X136029517Y-72816228D01*
X136079108Y-72865447D01*
X136094500Y-72925283D01*
X136094500Y-89232719D01*
X136074815Y-89299758D01*
X136022011Y-89345513D01*
X135952853Y-89355457D01*
X135933952Y-89351210D01*
X135889474Y-89337491D01*
X135889464Y-89337488D01*
X135889458Y-89337487D01*
X135768231Y-89319214D01*
X135637440Y-89299500D01*
X135637435Y-89299500D01*
X135382565Y-89299500D01*
X135382559Y-89299500D01*
X135225609Y-89323157D01*
X135130542Y-89337487D01*
X135130539Y-89337488D01*
X135130533Y-89337489D01*
X134886992Y-89412612D01*
X134657373Y-89523190D01*
X134657372Y-89523191D01*
X134446782Y-89666768D01*
X134259952Y-89840121D01*
X134259950Y-89840123D01*
X134101041Y-90039388D01*
X133973608Y-90260109D01*
X133880492Y-90497362D01*
X133880490Y-90497369D01*
X133823777Y-90745845D01*
X133804732Y-90999995D01*
X133804732Y-91000004D01*
X133823777Y-91254154D01*
X133871099Y-91461486D01*
X133880492Y-91502637D01*
X133973607Y-91739888D01*
X134101041Y-91960612D01*
X134259950Y-92159877D01*
X134446783Y-92333232D01*
X134657366Y-92476805D01*
X134784303Y-92537934D01*
X134836161Y-92584755D01*
X134854500Y-92649653D01*
X134854500Y-97465107D01*
X134834815Y-97532146D01*
X134782011Y-97577901D01*
X134754940Y-97585952D01*
X134755056Y-97586457D01*
X134750539Y-97587487D01*
X134506992Y-97662612D01*
X134277373Y-97773190D01*
X134277372Y-97773191D01*
X134066782Y-97916768D01*
X133879952Y-98090121D01*
X133879950Y-98090123D01*
X133721041Y-98289388D01*
X133593608Y-98510109D01*
X133500492Y-98747362D01*
X133500490Y-98747369D01*
X133443777Y-98995845D01*
X133424732Y-99249995D01*
X124000000Y-99249995D01*
X124000000Y-61749998D01*
X138694532Y-61749998D01*
X138694532Y-61750001D01*
X138714364Y-61976686D01*
X138714366Y-61976697D01*
X138773258Y-62196488D01*
X138773261Y-62196497D01*
X138869431Y-62402732D01*
X138869432Y-62402734D01*
X138999954Y-62589141D01*
X139160858Y-62750045D01*
X139160861Y-62750047D01*
X139347266Y-62880568D01*
X139553504Y-62976739D01*
X139773308Y-63035635D01*
X139935230Y-63049801D01*
X139999998Y-63055468D01*
X140000000Y-63055468D01*
X140000002Y-63055468D01*
X140056673Y-63050509D01*
X140226692Y-63035635D01*
X140446496Y-62976739D01*
X140652734Y-62880568D01*
X140839139Y-62750047D01*
X141000047Y-62589139D01*
X141130568Y-62402734D01*
X141226739Y-62196496D01*
X141285635Y-61976692D01*
X141305468Y-61750000D01*
X141285635Y-61523308D01*
X141233065Y-61327112D01*
X141226741Y-61303511D01*
X141226738Y-61303502D01*
X141185865Y-61215851D01*
X141130568Y-61097266D01*
X141000047Y-60910861D01*
X141000045Y-60910858D01*
X140839141Y-60749954D01*
X140652734Y-60619432D01*
X140652732Y-60619431D01*
X140446497Y-60523261D01*
X140446488Y-60523258D01*
X140226697Y-60464366D01*
X140226693Y-60464365D01*
X140226692Y-60464365D01*
X140226691Y-60464364D01*
X140226686Y-60464364D01*
X140000002Y-60444532D01*
X139999998Y-60444532D01*
X139773313Y-60464364D01*
X139773302Y-60464366D01*
X139553511Y-60523258D01*
X139553502Y-60523261D01*
X139347267Y-60619431D01*
X139347265Y-60619432D01*
X139160858Y-60749954D01*
X138999954Y-60910858D01*
X138869432Y-61097265D01*
X138869431Y-61097267D01*
X138773261Y-61303502D01*
X138773258Y-61303511D01*
X138714366Y-61523302D01*
X138714364Y-61523313D01*
X138694532Y-61749998D01*
X124000000Y-61749998D01*
X124000000Y-46061277D01*
X124019685Y-45994238D01*
X124048676Y-45962777D01*
X124133845Y-45897648D01*
X126699500Y-45897648D01*
X126699500Y-46102351D01*
X126731522Y-46304534D01*
X126794781Y-46499223D01*
X126887715Y-46681613D01*
X127008028Y-46847213D01*
X127152786Y-46991971D01*
X127291177Y-47092516D01*
X127318390Y-47112287D01*
X127402959Y-47155377D01*
X127500776Y-47205218D01*
X127500778Y-47205218D01*
X127500781Y-47205220D01*
X127605137Y-47239127D01*
X127695465Y-47268477D01*
X127717172Y-47271915D01*
X127897648Y-47300500D01*
X127897649Y-47300500D01*
X128102351Y-47300500D01*
X128102352Y-47300500D01*
X128304534Y-47268477D01*
X128499219Y-47205220D01*
X128681610Y-47112287D01*
X128816165Y-47014528D01*
X128847213Y-46991971D01*
X128847215Y-46991968D01*
X128847219Y-46991966D01*
X128991966Y-46847219D01*
X128991968Y-46847215D01*
X128991971Y-46847213D01*
X129070069Y-46739718D01*
X129112287Y-46681610D01*
X129205220Y-46499219D01*
X129268477Y-46304534D01*
X129300500Y-46102352D01*
X129300500Y-45897648D01*
X129280798Y-45773258D01*
X129268477Y-45695465D01*
X129205218Y-45500776D01*
X129171503Y-45434607D01*
X129112287Y-45318390D01*
X129104556Y-45307749D01*
X128991971Y-45152786D01*
X128986833Y-45147648D01*
X212699500Y-45147648D01*
X212699500Y-45352351D01*
X212731522Y-45554534D01*
X212794781Y-45749223D01*
X212856031Y-45869431D01*
X212870408Y-45897648D01*
X212887715Y-45931613D01*
X213008028Y-46097213D01*
X213152786Y-46241971D01*
X213307749Y-46354556D01*
X213318390Y-46362287D01*
X213434607Y-46421503D01*
X213500776Y-46455218D01*
X213500778Y-46455218D01*
X213500781Y-46455220D01*
X213605137Y-46489127D01*
X213695465Y-46518477D01*
X213796557Y-46534488D01*
X213897648Y-46550500D01*
X213897649Y-46550500D01*
X214102351Y-46550500D01*
X214102352Y-46550500D01*
X214304534Y-46518477D01*
X214499219Y-46455220D01*
X214681610Y-46362287D01*
X214774590Y-46294732D01*
X214847213Y-46241971D01*
X214847215Y-46241968D01*
X214847219Y-46241966D01*
X214991966Y-46097219D01*
X214991968Y-46097215D01*
X214991971Y-46097213D01*
X215055768Y-46009402D01*
X215112287Y-45931610D01*
X215205220Y-45749219D01*
X215268477Y-45554534D01*
X215300500Y-45352352D01*
X215300500Y-45147648D01*
X215268477Y-44945465D01*
X215205218Y-44750776D01*
X215171503Y-44684607D01*
X215112287Y-44568390D01*
X215101530Y-44553584D01*
X214991971Y-44402786D01*
X214847213Y-44258028D01*
X214681613Y-44137715D01*
X214681612Y-44137714D01*
X214681610Y-44137713D01*
X214603473Y-44097900D01*
X214499223Y-44044781D01*
X214304534Y-43981522D01*
X214129995Y-43953878D01*
X214102352Y-43949500D01*
X213897648Y-43949500D01*
X213873329Y-43953351D01*
X213695465Y-43981522D01*
X213500776Y-44044781D01*
X213318386Y-44137715D01*
X213152786Y-44258028D01*
X213008028Y-44402786D01*
X212887715Y-44568386D01*
X212794781Y-44750776D01*
X212731522Y-44945465D01*
X212699500Y-45147648D01*
X128986833Y-45147648D01*
X128847213Y-45008028D01*
X128681613Y-44887715D01*
X128681612Y-44887714D01*
X128681610Y-44887713D01*
X128624653Y-44858691D01*
X128499223Y-44794781D01*
X128304534Y-44731522D01*
X128129995Y-44703878D01*
X128102352Y-44699500D01*
X127897648Y-44699500D01*
X127873329Y-44703351D01*
X127695465Y-44731522D01*
X127500776Y-44794781D01*
X127318386Y-44887715D01*
X127152786Y-45008028D01*
X127008028Y-45152786D01*
X126887715Y-45318386D01*
X126794781Y-45500776D01*
X126731522Y-45695465D01*
X126699500Y-45897648D01*
X124133845Y-45897648D01*
X124846926Y-45352351D01*
X128250000Y-42750000D01*
X128250000Y-41374000D01*
X128269685Y-41306961D01*
X128322489Y-41261206D01*
X128374000Y-41250000D01*
X211963381Y-41250000D01*
X212030420Y-41269685D01*
G37*
%TD.AperFunction*%
%TA.AperFunction,NonConductor*%
G36*
X176159160Y-58590185D02*
G01*
X176179802Y-58606819D01*
X177625802Y-60052819D01*
X177659287Y-60114142D01*
X177654303Y-60183834D01*
X177612431Y-60239767D01*
X177546967Y-60264184D01*
X177538121Y-60264500D01*
X173614499Y-60264500D01*
X173547460Y-60244815D01*
X173501705Y-60192011D01*
X173490499Y-60140500D01*
X173490499Y-60062129D01*
X173490498Y-60062123D01*
X173484091Y-60002516D01*
X173433797Y-59867671D01*
X173433793Y-59867664D01*
X173347547Y-59752455D01*
X173347544Y-59752452D01*
X173232335Y-59666206D01*
X173232328Y-59666202D01*
X173097482Y-59615908D01*
X173097483Y-59615908D01*
X173037883Y-59609501D01*
X173037881Y-59609500D01*
X173037873Y-59609500D01*
X173037864Y-59609500D01*
X171322129Y-59609500D01*
X171322123Y-59609501D01*
X171262516Y-59615908D01*
X171127671Y-59666202D01*
X171127664Y-59666206D01*
X171012455Y-59752452D01*
X171012452Y-59752455D01*
X170926206Y-59867664D01*
X170926202Y-59867671D01*
X170875908Y-60002516D01*
X170874161Y-60018772D01*
X170847423Y-60083323D01*
X170790030Y-60123171D01*
X170720205Y-60125664D01*
X170660116Y-60090011D01*
X170649304Y-60076648D01*
X170647736Y-60074409D01*
X170485591Y-59912264D01*
X170297753Y-59780738D01*
X170089930Y-59683829D01*
X170089927Y-59683828D01*
X170089925Y-59683827D01*
X169868436Y-59624479D01*
X169868429Y-59624478D01*
X169640002Y-59604494D01*
X169639998Y-59604494D01*
X169411570Y-59624478D01*
X169411563Y-59624479D01*
X169190074Y-59683827D01*
X169190070Y-59683829D01*
X168982247Y-59780738D01*
X168794409Y-59912264D01*
X168794407Y-59912265D01*
X168794404Y-59912268D01*
X168632268Y-60074404D01*
X168632265Y-60074407D01*
X168632264Y-60074409D01*
X168604443Y-60114142D01*
X168500737Y-60262247D01*
X168482382Y-60301612D01*
X168436210Y-60354051D01*
X168369016Y-60373203D01*
X168302135Y-60352987D01*
X168257618Y-60301612D01*
X168239262Y-60262247D01*
X168184356Y-60183834D01*
X168107736Y-60074409D01*
X167945591Y-59912264D01*
X167757753Y-59780738D01*
X167549930Y-59683829D01*
X167549927Y-59683828D01*
X167549925Y-59683827D01*
X167328436Y-59624479D01*
X167328429Y-59624478D01*
X167100002Y-59604494D01*
X167099998Y-59604494D01*
X166871570Y-59624478D01*
X166871563Y-59624479D01*
X166650074Y-59683827D01*
X166650070Y-59683829D01*
X166442247Y-59780738D01*
X166254409Y-59912264D01*
X166254407Y-59912265D01*
X166254404Y-59912268D01*
X166092268Y-60074404D01*
X166092265Y-60074407D01*
X166092264Y-60074409D01*
X166064443Y-60114142D01*
X165960737Y-60262247D01*
X165942382Y-60301612D01*
X165896210Y-60354051D01*
X165829016Y-60373203D01*
X165762135Y-60352987D01*
X165717618Y-60301612D01*
X165699262Y-60262247D01*
X165644356Y-60183834D01*
X165567736Y-60074409D01*
X165405591Y-59912264D01*
X165217753Y-59780738D01*
X165009930Y-59683829D01*
X165009927Y-59683828D01*
X165009925Y-59683827D01*
X164788436Y-59624479D01*
X164788429Y-59624478D01*
X164560002Y-59604494D01*
X164559998Y-59604494D01*
X164331570Y-59624478D01*
X164331563Y-59624479D01*
X164110074Y-59683827D01*
X164110070Y-59683829D01*
X163902247Y-59780738D01*
X163714409Y-59912264D01*
X163714407Y-59912265D01*
X163714404Y-59912268D01*
X163552268Y-60074404D01*
X163552265Y-60074407D01*
X163552264Y-60074409D01*
X163524443Y-60114142D01*
X163420737Y-60262247D01*
X163402382Y-60301612D01*
X163356210Y-60354051D01*
X163289016Y-60373203D01*
X163222135Y-60352987D01*
X163177618Y-60301612D01*
X163159262Y-60262247D01*
X163104356Y-60183834D01*
X163027736Y-60074409D01*
X162865591Y-59912264D01*
X162677753Y-59780738D01*
X162469930Y-59683829D01*
X162469927Y-59683828D01*
X162469925Y-59683827D01*
X162248436Y-59624479D01*
X162248429Y-59624478D01*
X162014607Y-59604022D01*
X162014748Y-59602398D01*
X161954845Y-59584809D01*
X161909090Y-59532005D01*
X161899146Y-59462847D01*
X161928171Y-59399291D01*
X161934203Y-59392813D01*
X162220678Y-59106339D01*
X162720198Y-58606819D01*
X162781521Y-58573334D01*
X162807879Y-58570500D01*
X176092121Y-58570500D01*
X176159160Y-58590185D01*
G37*
%TD.AperFunction*%
%TA.AperFunction,NonConductor*%
G36*
X170835718Y-61744057D02*
G01*
X170871137Y-61804284D01*
X170874160Y-61821226D01*
X170875907Y-61837480D01*
X170926202Y-61972328D01*
X170926206Y-61972335D01*
X170964949Y-62024088D01*
X171012454Y-62087546D01*
X171057456Y-62121234D01*
X171099326Y-62177167D01*
X171104310Y-62246859D01*
X171070825Y-62308182D01*
X171009501Y-62341666D01*
X170983144Y-62344500D01*
X170245385Y-62344500D01*
X170178346Y-62324815D01*
X170132591Y-62272011D01*
X170122647Y-62202853D01*
X170151672Y-62139297D01*
X170192980Y-62108118D01*
X170297753Y-62059262D01*
X170485591Y-61927736D01*
X170647736Y-61765591D01*
X170649292Y-61763367D01*
X170650230Y-61762617D01*
X170651214Y-61761446D01*
X170651449Y-61761643D01*
X170703863Y-61719740D01*
X170773361Y-61712541D01*
X170835718Y-61744057D01*
G37*
%TD.AperFunction*%
%TA.AperFunction,NonConductor*%
G36*
X165897864Y-61487011D02*
G01*
X165942380Y-61538385D01*
X165960738Y-61577753D01*
X166092264Y-61765591D01*
X166254409Y-61927736D01*
X166442247Y-62059262D01*
X166650070Y-62156171D01*
X166871565Y-62215521D01*
X167034732Y-62229796D01*
X167099998Y-62235506D01*
X167100000Y-62235506D01*
X167100002Y-62235506D01*
X167131661Y-62232735D01*
X167328435Y-62215521D01*
X167369750Y-62204450D01*
X167439598Y-62206111D01*
X167489526Y-62236543D01*
X168762139Y-63509157D01*
X168762143Y-63509160D01*
X168869504Y-63580897D01*
X168988797Y-63630310D01*
X169115434Y-63655499D01*
X169115438Y-63655500D01*
X169115439Y-63655500D01*
X174927121Y-63655500D01*
X174994160Y-63675185D01*
X175014802Y-63691819D01*
X175180802Y-63857819D01*
X175214287Y-63919142D01*
X175209303Y-63988834D01*
X175167431Y-64044767D01*
X175101967Y-64069184D01*
X175093121Y-64069500D01*
X164500434Y-64069500D01*
X164373801Y-64094688D01*
X164373796Y-64094690D01*
X164338857Y-64109161D01*
X164338856Y-64109162D01*
X164254504Y-64144103D01*
X164254503Y-64144104D01*
X164254502Y-64144104D01*
X164249101Y-64147713D01*
X164184015Y-64191203D01*
X164184014Y-64191204D01*
X164147140Y-64215841D01*
X163679526Y-64683455D01*
X163618203Y-64716940D01*
X163559754Y-64715549D01*
X163518446Y-64704481D01*
X163518429Y-64704478D01*
X163290002Y-64684494D01*
X163289998Y-64684494D01*
X163137710Y-64697817D01*
X163061565Y-64704479D01*
X163061562Y-64704479D01*
X163020247Y-64715550D01*
X162950397Y-64713887D01*
X162900473Y-64683456D01*
X162432860Y-64215842D01*
X162432856Y-64215839D01*
X162325493Y-64144101D01*
X162325491Y-64144100D01*
X162206203Y-64094690D01*
X162206194Y-64094687D01*
X162079565Y-64069500D01*
X162079561Y-64069500D01*
X156547879Y-64069500D01*
X156480840Y-64049815D01*
X156460198Y-64033181D01*
X154791425Y-62364408D01*
X154757940Y-62303085D01*
X154762924Y-62233393D01*
X154804796Y-62177460D01*
X154847026Y-62156949D01*
X154849930Y-62156171D01*
X155057753Y-62059262D01*
X155245591Y-61927736D01*
X155407736Y-61765591D01*
X155539262Y-61577753D01*
X155557619Y-61538385D01*
X155603789Y-61485948D01*
X155670983Y-61466796D01*
X155737864Y-61487011D01*
X155782380Y-61538385D01*
X155800738Y-61577753D01*
X155932264Y-61765591D01*
X156094409Y-61927736D01*
X156282247Y-62059262D01*
X156490070Y-62156171D01*
X156711565Y-62215521D01*
X156874732Y-62229796D01*
X156939998Y-62235506D01*
X156940000Y-62235506D01*
X156940002Y-62235506D01*
X156997232Y-62230499D01*
X157168435Y-62215521D01*
X157389930Y-62156171D01*
X157597753Y-62059262D01*
X157785591Y-61927736D01*
X157947736Y-61765591D01*
X158079262Y-61577753D01*
X158097619Y-61538385D01*
X158143789Y-61485948D01*
X158210983Y-61466796D01*
X158277864Y-61487011D01*
X158322380Y-61538385D01*
X158340738Y-61577753D01*
X158472264Y-61765591D01*
X158634409Y-61927736D01*
X158822247Y-62059262D01*
X159030070Y-62156171D01*
X159251565Y-62215521D01*
X159414732Y-62229796D01*
X159479998Y-62235506D01*
X159480000Y-62235506D01*
X159480002Y-62235506D01*
X159537232Y-62230499D01*
X159708435Y-62215521D01*
X159929930Y-62156171D01*
X160137753Y-62059262D01*
X160325591Y-61927736D01*
X160487736Y-61765591D01*
X160619262Y-61577753D01*
X160637619Y-61538385D01*
X160683789Y-61485948D01*
X160750983Y-61466796D01*
X160817864Y-61487011D01*
X160862380Y-61538385D01*
X160880738Y-61577753D01*
X161012264Y-61765591D01*
X161174409Y-61927736D01*
X161362247Y-62059262D01*
X161570070Y-62156171D01*
X161791565Y-62215521D01*
X161954732Y-62229796D01*
X162019998Y-62235506D01*
X162020000Y-62235506D01*
X162020002Y-62235506D01*
X162077232Y-62230499D01*
X162248435Y-62215521D01*
X162469930Y-62156171D01*
X162677753Y-62059262D01*
X162865591Y-61927736D01*
X163027736Y-61765591D01*
X163159262Y-61577753D01*
X163177619Y-61538385D01*
X163223789Y-61485948D01*
X163290983Y-61466796D01*
X163357864Y-61487011D01*
X163402380Y-61538385D01*
X163420738Y-61577753D01*
X163552264Y-61765591D01*
X163714409Y-61927736D01*
X163902247Y-62059262D01*
X164110070Y-62156171D01*
X164331565Y-62215521D01*
X164494732Y-62229796D01*
X164559998Y-62235506D01*
X164560000Y-62235506D01*
X164560002Y-62235506D01*
X164617232Y-62230499D01*
X164788435Y-62215521D01*
X165009930Y-62156171D01*
X165217753Y-62059262D01*
X165405591Y-61927736D01*
X165567736Y-61765591D01*
X165699262Y-61577753D01*
X165717619Y-61538385D01*
X165763789Y-61485948D01*
X165830983Y-61466796D01*
X165897864Y-61487011D01*
G37*
%TD.AperFunction*%
%TA.AperFunction,NonConductor*%
G36*
X180342348Y-65400185D02*
G01*
X180362990Y-65416819D01*
X181973989Y-67027819D01*
X182007474Y-67089142D01*
X182002490Y-67158834D01*
X181960618Y-67214767D01*
X181895154Y-67239184D01*
X181886308Y-67239500D01*
X171817874Y-67239500D01*
X171750835Y-67219815D01*
X171705080Y-67167011D01*
X171695136Y-67097853D01*
X171724161Y-67034297D01*
X171746746Y-67013929D01*
X171755591Y-67007736D01*
X171917736Y-66845591D01*
X172049262Y-66657753D01*
X172146171Y-66449930D01*
X172205521Y-66228435D01*
X172225506Y-66000000D01*
X172205521Y-65771565D01*
X172146171Y-65550070D01*
X172146170Y-65550066D01*
X172145023Y-65546915D01*
X172144928Y-65545433D01*
X172144770Y-65544841D01*
X172144889Y-65544809D01*
X172140589Y-65477186D01*
X172174557Y-65416129D01*
X172236143Y-65383129D01*
X172261543Y-65380500D01*
X180275309Y-65380500D01*
X180342348Y-65400185D01*
G37*
%TD.AperFunction*%
%TA.AperFunction,NonConductor*%
G36*
X169707864Y-66567011D02*
G01*
X169752380Y-66618385D01*
X169770738Y-66657753D01*
X169902264Y-66845591D01*
X170064409Y-67007736D01*
X170073250Y-67013926D01*
X170116874Y-67068501D01*
X170124068Y-67137999D01*
X170092546Y-67200354D01*
X170032317Y-67235769D01*
X170002126Y-67239500D01*
X169277874Y-67239500D01*
X169210835Y-67219815D01*
X169165080Y-67167011D01*
X169155136Y-67097853D01*
X169184161Y-67034297D01*
X169206746Y-67013929D01*
X169215591Y-67007736D01*
X169377736Y-66845591D01*
X169509262Y-66657753D01*
X169527619Y-66618385D01*
X169573789Y-66565948D01*
X169640983Y-66546796D01*
X169707864Y-66567011D01*
G37*
%TD.AperFunction*%
%TA.AperFunction,NonConductor*%
G36*
X190576980Y-69750185D02*
G01*
X190622735Y-69802989D01*
X190632679Y-69872147D01*
X190627872Y-69892818D01*
X190581523Y-70035461D01*
X190581523Y-70035464D01*
X190549500Y-70237648D01*
X190549500Y-70442351D01*
X190581523Y-70644535D01*
X190581523Y-70644538D01*
X190627872Y-70787182D01*
X190629867Y-70857023D01*
X190593787Y-70916856D01*
X190531086Y-70947684D01*
X190509941Y-70949500D01*
X186370059Y-70949500D01*
X186303020Y-70929815D01*
X186257265Y-70877011D01*
X186247321Y-70807853D01*
X186252128Y-70787182D01*
X186298476Y-70644538D01*
X186298476Y-70644537D01*
X186298477Y-70644534D01*
X186330500Y-70442352D01*
X186330500Y-70237648D01*
X186298477Y-70035466D01*
X186298476Y-70035462D01*
X186298476Y-70035461D01*
X186252128Y-69892818D01*
X186250133Y-69822977D01*
X186286213Y-69763144D01*
X186348914Y-69732316D01*
X186370059Y-69730500D01*
X190509941Y-69730500D01*
X190576980Y-69750185D01*
G37*
%TD.AperFunction*%
%TA.AperFunction,NonConductor*%
G36*
X182956980Y-69750185D02*
G01*
X183002735Y-69802989D01*
X183012679Y-69872147D01*
X183007872Y-69892818D01*
X182961523Y-70035461D01*
X182961523Y-70035464D01*
X182929500Y-70237648D01*
X182929500Y-70442351D01*
X182961523Y-70644535D01*
X182961523Y-70644538D01*
X183007872Y-70787182D01*
X183009867Y-70857023D01*
X182973787Y-70916856D01*
X182911086Y-70947684D01*
X182889941Y-70949500D01*
X181982879Y-70949500D01*
X181915840Y-70929815D01*
X181895198Y-70913181D01*
X180934565Y-69952548D01*
X180901080Y-69891225D01*
X180898925Y-69877821D01*
X180897836Y-69867454D01*
X180910409Y-69798725D01*
X180958144Y-69747704D01*
X181021157Y-69730500D01*
X182889941Y-69730500D01*
X182956980Y-69750185D01*
G37*
%TD.AperFunction*%
%TA.AperFunction,NonConductor*%
G36*
X154572395Y-65013270D02*
G01*
X154628129Y-65055407D01*
X154652234Y-65120987D01*
X154637057Y-65189188D01*
X154630091Y-65200355D01*
X154608706Y-65230898D01*
X154530738Y-65342247D01*
X154433830Y-65550068D01*
X154433827Y-65550074D01*
X154374479Y-65771563D01*
X154374478Y-65771570D01*
X154354494Y-65999997D01*
X154354494Y-66000002D01*
X154374478Y-66228429D01*
X154374479Y-66228436D01*
X154433827Y-66449925D01*
X154433828Y-66449927D01*
X154433829Y-66449930D01*
X154530738Y-66657753D01*
X154662264Y-66845591D01*
X154824409Y-67007736D01*
X154961626Y-67103816D01*
X155005248Y-67158391D01*
X155014500Y-67205389D01*
X155014500Y-72064826D01*
X154994815Y-72131865D01*
X154942011Y-72177620D01*
X154872853Y-72187564D01*
X154809297Y-72158539D01*
X154802819Y-72152507D01*
X152119960Y-69469648D01*
X152089711Y-69420286D01*
X152077179Y-69381716D01*
X152077178Y-69381714D01*
X152077177Y-69381711D01*
X151982534Y-69217785D01*
X151855870Y-69077111D01*
X151702734Y-68965851D01*
X151702729Y-68965848D01*
X151529807Y-68888857D01*
X151529802Y-68888855D01*
X151384001Y-68857865D01*
X151344646Y-68849500D01*
X151155354Y-68849500D01*
X151122897Y-68856398D01*
X150970197Y-68888855D01*
X150970192Y-68888857D01*
X150802632Y-68963461D01*
X150733382Y-68972746D01*
X150670105Y-68943118D01*
X150632892Y-68883983D01*
X150633557Y-68814117D01*
X150664513Y-68762503D01*
X154378550Y-65048467D01*
X154439873Y-65014982D01*
X154466231Y-65012148D01*
X154482996Y-65012148D01*
X154482998Y-65012148D01*
X154502729Y-65007954D01*
X154572395Y-65013270D01*
G37*
%TD.AperFunction*%
%TA.AperFunction,NonConductor*%
G36*
X182960229Y-72280185D02*
G01*
X183005984Y-72332989D01*
X183015928Y-72402147D01*
X183011121Y-72422818D01*
X182961523Y-72575461D01*
X182961523Y-72575464D01*
X182936829Y-72731375D01*
X182906900Y-72794510D01*
X182847588Y-72831441D01*
X182777726Y-72830443D01*
X182726675Y-72799658D01*
X182399198Y-72472181D01*
X182365713Y-72410858D01*
X182370697Y-72341166D01*
X182412569Y-72285233D01*
X182478033Y-72260816D01*
X182486879Y-72260500D01*
X182893190Y-72260500D01*
X182960229Y-72280185D01*
G37*
%TD.AperFunction*%
%TA.AperFunction,NonConductor*%
G36*
X162087864Y-66567011D02*
G01*
X162132380Y-66618385D01*
X162150738Y-66657753D01*
X162282264Y-66845591D01*
X162444409Y-67007736D01*
X162581626Y-67103816D01*
X162625248Y-67158391D01*
X162634500Y-67205389D01*
X162634500Y-68106020D01*
X162614815Y-68173059D01*
X162562011Y-68218814D01*
X162492853Y-68228758D01*
X162459269Y-68217136D01*
X162458666Y-68218492D01*
X162279807Y-68138857D01*
X162279802Y-68138855D01*
X162118329Y-68104534D01*
X162094646Y-68099500D01*
X161905354Y-68099500D01*
X161881671Y-68104534D01*
X161720197Y-68138855D01*
X161720192Y-68138857D01*
X161547270Y-68215848D01*
X161547265Y-68215851D01*
X161394129Y-68327111D01*
X161267466Y-68467785D01*
X161172821Y-68631715D01*
X161172818Y-68631722D01*
X161130430Y-68762181D01*
X161114326Y-68811744D01*
X161094540Y-69000000D01*
X161114326Y-69188256D01*
X161150608Y-69299920D01*
X161152603Y-69369760D01*
X161120358Y-69425918D01*
X156870395Y-73675881D01*
X156809072Y-73709366D01*
X156739380Y-73704382D01*
X156690565Y-73671173D01*
X156605871Y-73577112D01*
X156605870Y-73577111D01*
X156452732Y-73465849D01*
X156399063Y-73441954D01*
X156345827Y-73396703D01*
X156325506Y-73329854D01*
X156325500Y-73328675D01*
X156325500Y-67205389D01*
X156345185Y-67138350D01*
X156378372Y-67103817D01*
X156515591Y-67007736D01*
X156677736Y-66845591D01*
X156809262Y-66657753D01*
X156827619Y-66618385D01*
X156873789Y-66565948D01*
X156940983Y-66546796D01*
X157007864Y-66567011D01*
X157052380Y-66618385D01*
X157070738Y-66657753D01*
X157202264Y-66845591D01*
X157364409Y-67007736D01*
X157552247Y-67139262D01*
X157760070Y-67236171D01*
X157981565Y-67295521D01*
X158144732Y-67309796D01*
X158209998Y-67315506D01*
X158210000Y-67315506D01*
X158210002Y-67315506D01*
X158267108Y-67310509D01*
X158438435Y-67295521D01*
X158659930Y-67236171D01*
X158867753Y-67139262D01*
X159055591Y-67007736D01*
X159217736Y-66845591D01*
X159349262Y-66657753D01*
X159367619Y-66618385D01*
X159413789Y-66565948D01*
X159480983Y-66546796D01*
X159547864Y-66567011D01*
X159592380Y-66618385D01*
X159610738Y-66657753D01*
X159742264Y-66845591D01*
X159904409Y-67007736D01*
X160092247Y-67139262D01*
X160300070Y-67236171D01*
X160521565Y-67295521D01*
X160684732Y-67309796D01*
X160749998Y-67315506D01*
X160750000Y-67315506D01*
X160750002Y-67315506D01*
X160807108Y-67310509D01*
X160978435Y-67295521D01*
X161199930Y-67236171D01*
X161407753Y-67139262D01*
X161595591Y-67007736D01*
X161757736Y-66845591D01*
X161889262Y-66657753D01*
X161907619Y-66618385D01*
X161953789Y-66565948D01*
X162020983Y-66546796D01*
X162087864Y-66567011D01*
G37*
%TD.AperFunction*%
%TA.AperFunction,NonConductor*%
G36*
X194089663Y-65496054D02*
G01*
X194122633Y-65519650D01*
X198794829Y-70191846D01*
X198828314Y-70253169D01*
X198831148Y-70279527D01*
X198831148Y-73821279D01*
X198811463Y-73888318D01*
X198799298Y-73904251D01*
X198754114Y-73954433D01*
X198659469Y-74118363D01*
X198659466Y-74118370D01*
X198609577Y-74271915D01*
X198600974Y-74298392D01*
X198584225Y-74457749D01*
X198581542Y-74483284D01*
X198581188Y-74486648D01*
X198585977Y-74532216D01*
X198589300Y-74563826D01*
X198576731Y-74632555D01*
X198528998Y-74683579D01*
X198461258Y-74700697D01*
X198395017Y-74678475D01*
X198378298Y-74664468D01*
X194606819Y-70892989D01*
X194573334Y-70831666D01*
X194570500Y-70805308D01*
X194570500Y-66860438D01*
X194570499Y-66860434D01*
X194545312Y-66733805D01*
X194545309Y-66733796D01*
X194542943Y-66728085D01*
X194495897Y-66614504D01*
X194450656Y-66546796D01*
X194424161Y-66507144D01*
X194382237Y-66465220D01*
X194332857Y-66415840D01*
X193858509Y-65941492D01*
X193825024Y-65880169D01*
X193830008Y-65810477D01*
X193835697Y-65797533D01*
X193855220Y-65759219D01*
X193917022Y-65569011D01*
X193956458Y-65511338D01*
X194020817Y-65484139D01*
X194089663Y-65496054D01*
G37*
%TD.AperFunction*%
%TA.AperFunction,NonConductor*%
G36*
X194089663Y-73116054D02*
G01*
X194122633Y-73139650D01*
X196294829Y-75311846D01*
X196328314Y-75373169D01*
X196331148Y-75399527D01*
X196331148Y-76321279D01*
X196311463Y-76388318D01*
X196299298Y-76404251D01*
X196254114Y-76454433D01*
X196159469Y-76618363D01*
X196159466Y-76618370D01*
X196115144Y-76754780D01*
X196100974Y-76798392D01*
X196089072Y-76911634D01*
X196081188Y-76986648D01*
X196093623Y-77104962D01*
X196081053Y-77173692D01*
X196033321Y-77224715D01*
X195965581Y-77241833D01*
X195899339Y-77219610D01*
X195882621Y-77205604D01*
X194606819Y-75929802D01*
X194573334Y-75868479D01*
X194570500Y-75842121D01*
X194570500Y-74831458D01*
X194570499Y-74831454D01*
X194545312Y-74704825D01*
X194545309Y-74704816D01*
X194536512Y-74683579D01*
X194507926Y-74614565D01*
X194495899Y-74585528D01*
X194495898Y-74585526D01*
X194487385Y-74572786D01*
X194424160Y-74478163D01*
X194332857Y-74386860D01*
X193730002Y-73784005D01*
X193696517Y-73722682D01*
X193701501Y-73652990D01*
X193717362Y-73623443D01*
X193762287Y-73561610D01*
X193855220Y-73379219D01*
X193917022Y-73189011D01*
X193956458Y-73131338D01*
X194020817Y-73104139D01*
X194089663Y-73116054D01*
G37*
%TD.AperFunction*%
%TA.AperFunction,NonConductor*%
G36*
X179045882Y-69750185D02*
G01*
X179091637Y-69802989D01*
X179102164Y-69867461D01*
X179094540Y-69939999D01*
X179114297Y-70127985D01*
X179114326Y-70128256D01*
X179131848Y-70182183D01*
X179133843Y-70252022D01*
X179097763Y-70311855D01*
X179035062Y-70342684D01*
X179013917Y-70344500D01*
X174170093Y-70344500D01*
X174103054Y-70324815D01*
X174097208Y-70320818D01*
X173952734Y-70215851D01*
X173952729Y-70215848D01*
X173779807Y-70138857D01*
X173779802Y-70138855D01*
X173634001Y-70107865D01*
X173594646Y-70099500D01*
X173405354Y-70099500D01*
X173372897Y-70106398D01*
X173220197Y-70138855D01*
X173220192Y-70138857D01*
X173047270Y-70215848D01*
X173047265Y-70215851D01*
X172894129Y-70327111D01*
X172767466Y-70467785D01*
X172672821Y-70631715D01*
X172672818Y-70631722D01*
X172616417Y-70805308D01*
X172614326Y-70811744D01*
X172594540Y-71000000D01*
X172614326Y-71188256D01*
X172614327Y-71188259D01*
X172672818Y-71368277D01*
X172672821Y-71368284D01*
X172767467Y-71532216D01*
X172878473Y-71655500D01*
X172894129Y-71672888D01*
X173047265Y-71784148D01*
X173047270Y-71784151D01*
X173220192Y-71861142D01*
X173220197Y-71861144D01*
X173405354Y-71900500D01*
X173405355Y-71900500D01*
X173594644Y-71900500D01*
X173594646Y-71900500D01*
X173779803Y-71861144D01*
X173952730Y-71784151D01*
X174097208Y-71679181D01*
X174163014Y-71655702D01*
X174170093Y-71655500D01*
X179677121Y-71655500D01*
X179744160Y-71675185D01*
X179764802Y-71691819D01*
X181086837Y-73013854D01*
X181120322Y-73075177D01*
X181115338Y-73144869D01*
X181073466Y-73200802D01*
X181049601Y-73214810D01*
X181047271Y-73215847D01*
X180894129Y-73327111D01*
X180767466Y-73467785D01*
X180672821Y-73631715D01*
X180672818Y-73631722D01*
X180614327Y-73811740D01*
X180614326Y-73811744D01*
X180594540Y-74000000D01*
X180614326Y-74188256D01*
X180614327Y-74188259D01*
X180672818Y-74368277D01*
X180672821Y-74368284D01*
X180767466Y-74532215D01*
X180812649Y-74582395D01*
X180842879Y-74645387D01*
X180844500Y-74665368D01*
X180844500Y-77225500D01*
X180824815Y-77292539D01*
X180772011Y-77338294D01*
X180720500Y-77349500D01*
X180540354Y-77349500D01*
X180514831Y-77354925D01*
X180355197Y-77388855D01*
X180355192Y-77388857D01*
X180182270Y-77465848D01*
X180182265Y-77465851D01*
X180037792Y-77570818D01*
X179971986Y-77594298D01*
X179964907Y-77594500D01*
X178822879Y-77594500D01*
X178755840Y-77574815D01*
X178735198Y-77558181D01*
X174433978Y-73256961D01*
X174400493Y-73195638D01*
X174398338Y-73182241D01*
X174394410Y-73144869D01*
X174385674Y-73061744D01*
X174327179Y-72881716D01*
X174232533Y-72717784D01*
X174105871Y-72577112D01*
X174105870Y-72577111D01*
X173952734Y-72465851D01*
X173952729Y-72465848D01*
X173779807Y-72388857D01*
X173779802Y-72388855D01*
X173634001Y-72357865D01*
X173594646Y-72349500D01*
X173405354Y-72349500D01*
X173372897Y-72356398D01*
X173220197Y-72388855D01*
X173220192Y-72388857D01*
X173047270Y-72465848D01*
X173047265Y-72465851D01*
X172894129Y-72577111D01*
X172767466Y-72717785D01*
X172672821Y-72881715D01*
X172672818Y-72881722D01*
X172632350Y-73006271D01*
X172614326Y-73061744D01*
X172601029Y-73188259D01*
X172594540Y-73250000D01*
X172606975Y-73368314D01*
X172594405Y-73437044D01*
X172546673Y-73488067D01*
X172478933Y-73505185D01*
X172412691Y-73482962D01*
X172395973Y-73468956D01*
X171691819Y-72764802D01*
X171658334Y-72703479D01*
X171655500Y-72677121D01*
X171655500Y-70605368D01*
X171675185Y-70538329D01*
X171687351Y-70522395D01*
X171707512Y-70500004D01*
X171732533Y-70472216D01*
X171827179Y-70308284D01*
X171885674Y-70128256D01*
X171905460Y-69940000D01*
X171897836Y-69867460D01*
X171910406Y-69798731D01*
X171958138Y-69747708D01*
X172021157Y-69730500D01*
X178978843Y-69730500D01*
X179045882Y-69750185D01*
G37*
%TD.AperFunction*%
%TA.AperFunction,NonConductor*%
G36*
X190580229Y-72280185D02*
G01*
X190625984Y-72332989D01*
X190635928Y-72402147D01*
X190631121Y-72422818D01*
X190581523Y-72575461D01*
X190581523Y-72575464D01*
X190558412Y-72721379D01*
X190549500Y-72777648D01*
X190549500Y-72982352D01*
X190554490Y-73013854D01*
X190581523Y-73184535D01*
X190581523Y-73184538D01*
X190644779Y-73379218D01*
X190644779Y-73379219D01*
X190673842Y-73436259D01*
X190686738Y-73504928D01*
X190660461Y-73569669D01*
X190632249Y-73595655D01*
X190557139Y-73645842D01*
X186502633Y-77700348D01*
X186441310Y-77733833D01*
X186371618Y-77728849D01*
X186315685Y-77686977D01*
X186297021Y-77650985D01*
X186273018Y-77577112D01*
X186235220Y-77460781D01*
X186142287Y-77278390D01*
X186115727Y-77241833D01*
X186021971Y-77112786D01*
X185877213Y-76968028D01*
X185711614Y-76847715D01*
X185705006Y-76844348D01*
X185618917Y-76800483D01*
X185568123Y-76752511D01*
X185551328Y-76684690D01*
X185573865Y-76618555D01*
X185618917Y-76579516D01*
X185711610Y-76532287D01*
X185818768Y-76454433D01*
X185877213Y-76411971D01*
X185877215Y-76411968D01*
X185877219Y-76411966D01*
X186021966Y-76267219D01*
X186021968Y-76267215D01*
X186021971Y-76267213D01*
X186074732Y-76194590D01*
X186142287Y-76101610D01*
X186235220Y-75919219D01*
X186298477Y-75724534D01*
X186330500Y-75522352D01*
X186330500Y-75317648D01*
X186298477Y-75115466D01*
X186235220Y-74920781D01*
X186235218Y-74920778D01*
X186235218Y-74920776D01*
X186189708Y-74831459D01*
X186142287Y-74738390D01*
X186098757Y-74678475D01*
X186021971Y-74572786D01*
X185877213Y-74428028D01*
X185711614Y-74307715D01*
X185702863Y-74303256D01*
X185618917Y-74260483D01*
X185568123Y-74212511D01*
X185551328Y-74144690D01*
X185573865Y-74078555D01*
X185618917Y-74039516D01*
X185711610Y-73992287D01*
X185763712Y-73954433D01*
X185877213Y-73871971D01*
X185877215Y-73871968D01*
X185877219Y-73871966D01*
X186021966Y-73727219D01*
X186059771Y-73675185D01*
X186124121Y-73586615D01*
X186179450Y-73543949D01*
X186224439Y-73535500D01*
X186833947Y-73535500D01*
X186900986Y-73555185D01*
X186902838Y-73556398D01*
X186939497Y-73580893D01*
X186939510Y-73580900D01*
X186981330Y-73598222D01*
X187058798Y-73630310D01*
X187058800Y-73630310D01*
X187058805Y-73630312D01*
X187185434Y-73655499D01*
X187185438Y-73655500D01*
X187185439Y-73655500D01*
X187314561Y-73655500D01*
X187329907Y-73655500D01*
X187396946Y-73675185D01*
X187402792Y-73679182D01*
X187547265Y-73784148D01*
X187547270Y-73784151D01*
X187720192Y-73861142D01*
X187720197Y-73861144D01*
X187905354Y-73900500D01*
X187905355Y-73900500D01*
X188094644Y-73900500D01*
X188094646Y-73900500D01*
X188279803Y-73861144D01*
X188452730Y-73784151D01*
X188605871Y-73672888D01*
X188732533Y-73532216D01*
X188827179Y-73368284D01*
X188885674Y-73188256D01*
X188905460Y-73000000D01*
X188885674Y-72811744D01*
X188827179Y-72631716D01*
X188732533Y-72467784D01*
X188732251Y-72467471D01*
X188732145Y-72467251D01*
X188728715Y-72462529D01*
X188729578Y-72461901D01*
X188702022Y-72404481D01*
X188710647Y-72335146D01*
X188755388Y-72281480D01*
X188822041Y-72260522D01*
X188824402Y-72260500D01*
X190513190Y-72260500D01*
X190580229Y-72280185D01*
G37*
%TD.AperFunction*%
%TA.AperFunction,NonConductor*%
G36*
X197847351Y-75988002D02*
G01*
X197853829Y-75994034D01*
X200972189Y-79112394D01*
X201005674Y-79173717D01*
X201000690Y-79243409D01*
X200991896Y-79262074D01*
X200922820Y-79381718D01*
X200922818Y-79381722D01*
X200864327Y-79561740D01*
X200864326Y-79561744D01*
X200844540Y-79750000D01*
X200851727Y-79818386D01*
X200852164Y-79822539D01*
X200839594Y-79891269D01*
X200791862Y-79942292D01*
X200728843Y-79959500D01*
X198687879Y-79959500D01*
X198620840Y-79939815D01*
X198600198Y-79923181D01*
X196771677Y-78094660D01*
X196738192Y-78033337D01*
X196743176Y-77963645D01*
X196785048Y-77907712D01*
X196850512Y-77883295D01*
X196885137Y-77885688D01*
X196892002Y-77887148D01*
X196892003Y-77887148D01*
X197081292Y-77887148D01*
X197081294Y-77887148D01*
X197266451Y-77847792D01*
X197439378Y-77770799D01*
X197592519Y-77659536D01*
X197719181Y-77518864D01*
X197813827Y-77354932D01*
X197872322Y-77174904D01*
X197892108Y-76986648D01*
X197872322Y-76798392D01*
X197813827Y-76618364D01*
X197719181Y-76454432D01*
X197673998Y-76404251D01*
X197643768Y-76341259D01*
X197642148Y-76321279D01*
X197642148Y-76081715D01*
X197661833Y-76014676D01*
X197714637Y-75968921D01*
X197783795Y-75958977D01*
X197847351Y-75988002D01*
G37*
%TD.AperFunction*%
%TA.AperFunction,NonConductor*%
G36*
X173398489Y-74149040D02*
G01*
X173405354Y-74150500D01*
X173422121Y-74150500D01*
X173489160Y-74170185D01*
X173509802Y-74186819D01*
X178082139Y-78759157D01*
X178082143Y-78759160D01*
X178189504Y-78830897D01*
X178189508Y-78830899D01*
X178237677Y-78850851D01*
X178308798Y-78880310D01*
X178308800Y-78880310D01*
X178308805Y-78880312D01*
X178435434Y-78905499D01*
X178435438Y-78905500D01*
X178435439Y-78905500D01*
X178564561Y-78905500D01*
X179964907Y-78905500D01*
X180031946Y-78925185D01*
X180037792Y-78929182D01*
X180182265Y-79034148D01*
X180182270Y-79034151D01*
X180355192Y-79111142D01*
X180355197Y-79111144D01*
X180540354Y-79150500D01*
X180540355Y-79150500D01*
X180720500Y-79150500D01*
X180787539Y-79170185D01*
X180833294Y-79222989D01*
X180844500Y-79274500D01*
X180844500Y-81618121D01*
X180824815Y-81685160D01*
X180772011Y-81730915D01*
X180702853Y-81740859D01*
X180639297Y-81711834D01*
X180632819Y-81705802D01*
X173285029Y-74358012D01*
X173251544Y-74296689D01*
X173256528Y-74226997D01*
X173298400Y-74171064D01*
X173363864Y-74146647D01*
X173398489Y-74149040D01*
G37*
%TD.AperFunction*%
%TA.AperFunction,NonConductor*%
G36*
X190508381Y-75651149D02*
G01*
X190564314Y-75693021D01*
X190582978Y-75729013D01*
X190644781Y-75919221D01*
X190664293Y-75957516D01*
X190677189Y-76026186D01*
X190650912Y-76090926D01*
X190641489Y-76101492D01*
X188895193Y-77847790D01*
X188332143Y-78410840D01*
X188286490Y-78456492D01*
X188240838Y-78502144D01*
X188169101Y-78609506D01*
X188169100Y-78609508D01*
X188119690Y-78728796D01*
X188119687Y-78728805D01*
X188094500Y-78855434D01*
X188094500Y-84460523D01*
X188074815Y-84527562D01*
X188058181Y-84548204D01*
X187831389Y-84774996D01*
X187770066Y-84808481D01*
X187700374Y-84803497D01*
X187644441Y-84761625D01*
X187620387Y-84700277D01*
X187602322Y-84528392D01*
X187543827Y-84348364D01*
X187449181Y-84184432D01*
X187322519Y-84043760D01*
X187322518Y-84043759D01*
X187169382Y-83932499D01*
X187169377Y-83932496D01*
X186996455Y-83855505D01*
X186996450Y-83855503D01*
X186850649Y-83824513D01*
X186811294Y-83816148D01*
X186622002Y-83816148D01*
X186589545Y-83823046D01*
X186436845Y-83855503D01*
X186436840Y-83855505D01*
X186263918Y-83932496D01*
X186263913Y-83932499D01*
X186110777Y-84043759D01*
X185984114Y-84184433D01*
X185889469Y-84348363D01*
X185889466Y-84348370D01*
X185830975Y-84528388D01*
X185830974Y-84528392D01*
X185811188Y-84716648D01*
X185830974Y-84904904D01*
X185830975Y-84904907D01*
X185889466Y-85084925D01*
X185889468Y-85084929D01*
X185889469Y-85084932D01*
X185904511Y-85110985D01*
X185920982Y-85178885D01*
X185898130Y-85244912D01*
X185843208Y-85288102D01*
X185773655Y-85294743D01*
X185746687Y-85286263D01*
X185621455Y-85230505D01*
X185621450Y-85230503D01*
X185475649Y-85199513D01*
X185436294Y-85191148D01*
X185436293Y-85191148D01*
X185419527Y-85191148D01*
X185352488Y-85171463D01*
X185331846Y-85154829D01*
X182191819Y-82014802D01*
X182158334Y-81953479D01*
X182155500Y-81927121D01*
X182155500Y-76672140D01*
X182175185Y-76605101D01*
X182227989Y-76559346D01*
X182297147Y-76549402D01*
X182360703Y-76578427D01*
X182382602Y-76603249D01*
X182384102Y-76605494D01*
X182384103Y-76605496D01*
X182423145Y-76663926D01*
X182455839Y-76712856D01*
X182455842Y-76712860D01*
X183021489Y-77278506D01*
X183054974Y-77339829D01*
X183049990Y-77409520D01*
X183044294Y-77422479D01*
X183024779Y-77460779D01*
X183024779Y-77460781D01*
X182961523Y-77655461D01*
X182961523Y-77655464D01*
X182929500Y-77857648D01*
X182929500Y-78062351D01*
X182961522Y-78264534D01*
X183024781Y-78459223D01*
X183117715Y-78641613D01*
X183238028Y-78807213D01*
X183382786Y-78951971D01*
X183503108Y-79039388D01*
X183548390Y-79072287D01*
X183639840Y-79118883D01*
X183641080Y-79119515D01*
X183691876Y-79167490D01*
X183708671Y-79235311D01*
X183686134Y-79301446D01*
X183641080Y-79340485D01*
X183548386Y-79387715D01*
X183382786Y-79508028D01*
X183238028Y-79652786D01*
X183117715Y-79818386D01*
X183024781Y-80000776D01*
X182961522Y-80195465D01*
X182929500Y-80397648D01*
X182929500Y-80602351D01*
X182961522Y-80804534D01*
X183024781Y-80999223D01*
X183041919Y-81032857D01*
X183106639Y-81159877D01*
X183117715Y-81181613D01*
X183238028Y-81347213D01*
X183382786Y-81491971D01*
X183537749Y-81604556D01*
X183548390Y-81612287D01*
X183646958Y-81662510D01*
X183730776Y-81705218D01*
X183730778Y-81705218D01*
X183730781Y-81705220D01*
X183801165Y-81728089D01*
X183925465Y-81768477D01*
X184026557Y-81784488D01*
X184127648Y-81800500D01*
X184127649Y-81800500D01*
X185132351Y-81800500D01*
X185132352Y-81800500D01*
X185334534Y-81768477D01*
X185529219Y-81705220D01*
X185711610Y-81612287D01*
X185842622Y-81517102D01*
X185877213Y-81491971D01*
X185877215Y-81491968D01*
X185877219Y-81491966D01*
X186021966Y-81347219D01*
X186021968Y-81347215D01*
X186021971Y-81347213D01*
X186096006Y-81245311D01*
X186142287Y-81181610D01*
X186235220Y-80999219D01*
X186298477Y-80804534D01*
X186330500Y-80602352D01*
X186330500Y-80397648D01*
X186307773Y-80254157D01*
X186298477Y-80195465D01*
X186277463Y-80130792D01*
X186235220Y-80000781D01*
X186215705Y-79962481D01*
X186202809Y-79893812D01*
X186229086Y-79829072D01*
X186238500Y-79818515D01*
X190377368Y-75679648D01*
X190438689Y-75646165D01*
X190508381Y-75651149D01*
G37*
%TD.AperFunction*%
%TA.AperFunction,NonConductor*%
G36*
X181458259Y-84405154D02*
G01*
X181508747Y-84435764D01*
X183782450Y-86709467D01*
X183815935Y-86770790D01*
X183810951Y-86840482D01*
X183769079Y-86896415D01*
X183703615Y-86920832D01*
X183694769Y-86921148D01*
X179928566Y-86921148D01*
X179801937Y-86946335D01*
X179801928Y-86946338D01*
X179682640Y-86995748D01*
X179682638Y-86995749D01*
X179575275Y-87067487D01*
X179575271Y-87067490D01*
X176444766Y-90197995D01*
X176383443Y-90231480D01*
X176313751Y-90226496D01*
X176257818Y-90184624D01*
X176249698Y-90172314D01*
X176190913Y-90070496D01*
X176168552Y-90031765D01*
X176123369Y-89981584D01*
X176093139Y-89918592D01*
X176091519Y-89898612D01*
X176091519Y-89386860D01*
X176111204Y-89319821D01*
X176127838Y-89299179D01*
X180628550Y-84798467D01*
X180689873Y-84764982D01*
X180716231Y-84762148D01*
X180732996Y-84762148D01*
X180732998Y-84762148D01*
X180918155Y-84722792D01*
X181091082Y-84645799D01*
X181244223Y-84534536D01*
X181328919Y-84440471D01*
X181388402Y-84403825D01*
X181458259Y-84405154D01*
G37*
%TD.AperFunction*%
%TA.AperFunction,NonConductor*%
G36*
X164627864Y-66567011D02*
G01*
X164672380Y-66618385D01*
X164690738Y-66657753D01*
X164822264Y-66845591D01*
X164984409Y-67007736D01*
X165172247Y-67139262D01*
X165380070Y-67236171D01*
X165601565Y-67295521D01*
X165764732Y-67309796D01*
X165829998Y-67315506D01*
X165830000Y-67315506D01*
X165830002Y-67315506D01*
X165861661Y-67312735D01*
X166058435Y-67295521D01*
X166099750Y-67284450D01*
X166169598Y-67286111D01*
X166219526Y-67316543D01*
X167307139Y-68404157D01*
X167307143Y-68404160D01*
X167414504Y-68475897D01*
X167414505Y-68475897D01*
X167414506Y-68475898D01*
X167414508Y-68475899D01*
X167494033Y-68508839D01*
X167533798Y-68525310D01*
X167533800Y-68525310D01*
X167533805Y-68525312D01*
X167660434Y-68550499D01*
X167660438Y-68550500D01*
X167660439Y-68550500D01*
X167789561Y-68550500D01*
X169393120Y-68550500D01*
X169460159Y-68570185D01*
X169505914Y-68622989D01*
X169515858Y-68692147D01*
X169486833Y-68755703D01*
X169480801Y-68762181D01*
X165929802Y-72313181D01*
X165868479Y-72346666D01*
X165842121Y-72349500D01*
X165825354Y-72349500D01*
X165792897Y-72356398D01*
X165640197Y-72388855D01*
X165640192Y-72388857D01*
X165467270Y-72465848D01*
X165467265Y-72465851D01*
X165314129Y-72577111D01*
X165187466Y-72717785D01*
X165092821Y-72881715D01*
X165092818Y-72881722D01*
X165052350Y-73006271D01*
X165034326Y-73061744D01*
X165014540Y-73250000D01*
X165034326Y-73438256D01*
X165034327Y-73438259D01*
X165092818Y-73618277D01*
X165092821Y-73618284D01*
X165187467Y-73782216D01*
X165268283Y-73871971D01*
X165314129Y-73922888D01*
X165467265Y-74034148D01*
X165467270Y-74034151D01*
X165640192Y-74111142D01*
X165640197Y-74111144D01*
X165825354Y-74150500D01*
X165825355Y-74150500D01*
X166014644Y-74150500D01*
X166014646Y-74150500D01*
X166199803Y-74111144D01*
X166372730Y-74034151D01*
X166525871Y-73922888D01*
X166652533Y-73782216D01*
X166747179Y-73618284D01*
X166805674Y-73438256D01*
X166818338Y-73317755D01*
X166844922Y-73253142D01*
X166853969Y-73243046D01*
X169935547Y-70161468D01*
X169996868Y-70127985D01*
X170066560Y-70132969D01*
X170122493Y-70174841D01*
X170141157Y-70210833D01*
X170172818Y-70308278D01*
X170172821Y-70308284D01*
X170267466Y-70472215D01*
X170312649Y-70522395D01*
X170342879Y-70585387D01*
X170344500Y-70605368D01*
X170344500Y-73064565D01*
X170369687Y-73191194D01*
X170369690Y-73191203D01*
X170419100Y-73310491D01*
X170419101Y-73310493D01*
X170490839Y-73417856D01*
X170490842Y-73417860D01*
X180062606Y-82989623D01*
X180096091Y-83050946D01*
X180091107Y-83120638D01*
X180049235Y-83176571D01*
X180047855Y-83177589D01*
X180032481Y-83188760D01*
X180032480Y-83188761D01*
X180032476Y-83188764D01*
X180032475Y-83188764D01*
X179905818Y-83329433D01*
X179811173Y-83493363D01*
X179811170Y-83493370D01*
X179752679Y-83673387D01*
X179752678Y-83673390D01*
X179740013Y-83793889D01*
X179713428Y-83858504D01*
X179704373Y-83868608D01*
X176072988Y-87499995D01*
X175018162Y-88554821D01*
X174979752Y-88593231D01*
X174926857Y-88646125D01*
X174855120Y-88753487D01*
X174855119Y-88753489D01*
X174805709Y-88872777D01*
X174805706Y-88872786D01*
X174780519Y-88999415D01*
X174780519Y-89898612D01*
X174760834Y-89965651D01*
X174748669Y-89981584D01*
X174703485Y-90031766D01*
X174608840Y-90195696D01*
X174608837Y-90195703D01*
X174555514Y-90359816D01*
X174550345Y-90375725D01*
X174530559Y-90563981D01*
X174550345Y-90752237D01*
X174550346Y-90752240D01*
X174608837Y-90932258D01*
X174608840Y-90932265D01*
X174703486Y-91096197D01*
X174830148Y-91236869D01*
X174983284Y-91348129D01*
X174983289Y-91348132D01*
X175137131Y-91416628D01*
X175156216Y-91425125D01*
X175240007Y-91442935D01*
X175301486Y-91476126D01*
X175331984Y-91531350D01*
X175333227Y-91530947D01*
X175393727Y-91717148D01*
X175393730Y-91717155D01*
X175455128Y-91823500D01*
X175471601Y-91891401D01*
X175448748Y-91957427D01*
X175393827Y-92000618D01*
X175347741Y-92009500D01*
X174357879Y-92009500D01*
X174290840Y-91989815D01*
X174270198Y-91973181D01*
X170813696Y-88516679D01*
X170780211Y-88455356D01*
X170785195Y-88385664D01*
X170804426Y-88351691D01*
X170908959Y-88220612D01*
X171036393Y-87999888D01*
X171129508Y-87762637D01*
X171186222Y-87514157D01*
X171205268Y-87260000D01*
X171204207Y-87245845D01*
X171186222Y-87005845D01*
X171184287Y-86997369D01*
X171129508Y-86757363D01*
X171036393Y-86520112D01*
X170908959Y-86299388D01*
X170750050Y-86100123D01*
X170563217Y-85926768D01*
X170352634Y-85783195D01*
X170352630Y-85783193D01*
X170352627Y-85783191D01*
X170352626Y-85783190D01*
X170123006Y-85672612D01*
X170123008Y-85672612D01*
X169879466Y-85597489D01*
X169879462Y-85597488D01*
X169879458Y-85597487D01*
X169758231Y-85579214D01*
X169627440Y-85559500D01*
X169627435Y-85559500D01*
X169372565Y-85559500D01*
X169372559Y-85559500D01*
X169215609Y-85583157D01*
X169120542Y-85597487D01*
X169120539Y-85597488D01*
X169120533Y-85597489D01*
X168876992Y-85672612D01*
X168647373Y-85783190D01*
X168647372Y-85783191D01*
X168436782Y-85926768D01*
X168249952Y-86100121D01*
X168249950Y-86100123D01*
X168091041Y-86299388D01*
X167963608Y-86520109D01*
X167963607Y-86520112D01*
X167870493Y-86757362D01*
X167868797Y-86761683D01*
X167867785Y-86761286D01*
X167832016Y-86815311D01*
X167768070Y-86843467D01*
X167752098Y-86844500D01*
X164904054Y-86844500D01*
X164837015Y-86824815D01*
X164791260Y-86772011D01*
X164788625Y-86765800D01*
X164786393Y-86760112D01*
X164658959Y-86539388D01*
X164500050Y-86340123D01*
X164313217Y-86166768D01*
X164102634Y-86023195D01*
X164102631Y-86023194D01*
X164102629Y-86023192D01*
X164015698Y-85981328D01*
X163963838Y-85934505D01*
X163945500Y-85869608D01*
X163945500Y-79999995D01*
X166744732Y-79999995D01*
X166744732Y-80000004D01*
X166763777Y-80254154D01*
X166819009Y-80496142D01*
X166820492Y-80502637D01*
X166913607Y-80739888D01*
X167041041Y-80960612D01*
X167199950Y-81159877D01*
X167386783Y-81333232D01*
X167597366Y-81476805D01*
X167597371Y-81476807D01*
X167597372Y-81476808D01*
X167597373Y-81476809D01*
X167719328Y-81535538D01*
X167826992Y-81587387D01*
X167826993Y-81587387D01*
X167826996Y-81587389D01*
X168070542Y-81662513D01*
X168322565Y-81700500D01*
X168577435Y-81700500D01*
X168829458Y-81662513D01*
X169073004Y-81587389D01*
X169254458Y-81500005D01*
X169302626Y-81476809D01*
X169302626Y-81476808D01*
X169302634Y-81476805D01*
X169513217Y-81333232D01*
X169700050Y-81159877D01*
X169858959Y-80960612D01*
X169986393Y-80739888D01*
X170079508Y-80502637D01*
X170136222Y-80254157D01*
X170155022Y-80003284D01*
X170155268Y-80000004D01*
X170155268Y-79999995D01*
X170136871Y-79754501D01*
X170136222Y-79745843D01*
X170079508Y-79497363D01*
X169986393Y-79260112D01*
X169858959Y-79039388D01*
X169700050Y-78840123D01*
X169513217Y-78666768D01*
X169302634Y-78523195D01*
X169302630Y-78523193D01*
X169302627Y-78523191D01*
X169302626Y-78523190D01*
X169073006Y-78412612D01*
X169073008Y-78412612D01*
X168829466Y-78337489D01*
X168829462Y-78337488D01*
X168829458Y-78337487D01*
X168708231Y-78319214D01*
X168577440Y-78299500D01*
X168577435Y-78299500D01*
X168322565Y-78299500D01*
X168322559Y-78299500D01*
X168165609Y-78323157D01*
X168070542Y-78337487D01*
X168070539Y-78337488D01*
X168070533Y-78337489D01*
X167826992Y-78412612D01*
X167597373Y-78523190D01*
X167597372Y-78523191D01*
X167386782Y-78666768D01*
X167199952Y-78840121D01*
X167199950Y-78840123D01*
X167041041Y-79039388D01*
X166913608Y-79260109D01*
X166820492Y-79497362D01*
X166820490Y-79497369D01*
X166763777Y-79745845D01*
X166744732Y-79999995D01*
X163945500Y-79999995D01*
X163945500Y-67205389D01*
X163965185Y-67138350D01*
X163998372Y-67103817D01*
X164135591Y-67007736D01*
X164297736Y-66845591D01*
X164429262Y-66657753D01*
X164447619Y-66618385D01*
X164493789Y-66565948D01*
X164560983Y-66546796D01*
X164627864Y-66567011D01*
G37*
%TD.AperFunction*%
M02*
